<svg width="167" height="48" viewBox="0 0 167 48" fill="none" xmlns="http://www.w3.org/2000/svg">
<path d="M48 24C48 10.7452 37.2548 0 24 0C10.7452 0 0 10.7452 0 24C0 37.2548 10.7452 48 24 48C37.2548 48 48 37.2548 48 24Z" fill="url(#paint0_linear_8647_100234)"/>
<path fill-rule="evenodd" clip-rule="evenodd" d="M28.1596 11.521H19.8404V19.9277H11.522V28.3345H19.8404V36.4786H28.1596V28.0719H19.8411V19.9278H28.1596V11.521ZM36.4794 19.9277H28.1603V28.3345H36.4794V19.9277Z" fill="black"/>
<path d="M59.52 23.9999C59.52 19.4795 60.3739 15.5294 62.0823 12.1496C63.8319 8.72759 66.3111 6.08711 69.5189 4.22826C72.7685 2.36938 76.5807 1.43994 80.9554 1.43994C84.3715 1.43994 87.4339 2.1159 90.1416 3.46781C92.8498 4.81972 95.0371 6.72085 96.7037 9.17116C98.3703 11.6215 99.3701 14.4521 99.7032 17.6629H90.3293C89.7879 15.1281 88.6421 13.1424 86.892 11.706C85.1842 10.2273 83.0386 9.48805 80.4552 9.48805C76.9555 9.48805 74.185 10.8188 72.1435 13.4804C70.1021 16.142 69.0816 19.6485 69.0816 23.9999C69.0816 28.3091 70.1021 31.8157 72.1435 34.5195C74.185 37.1811 76.9555 38.5118 80.4552 38.5118C83.0386 38.5118 85.1842 37.7937 86.892 36.3573C88.6421 34.8786 89.7879 32.8718 90.3293 30.337H99.7032C99.3701 33.5478 98.3703 36.3784 96.7037 38.8287C95.0371 41.279 92.8498 43.1802 90.1416 44.5321C87.4339 45.884 84.3715 46.5599 80.9554 46.5599C76.5807 46.5599 72.7685 45.6305 69.5189 43.7716C66.3111 41.9127 63.8319 39.2934 62.0823 35.9136C60.3739 32.4916 59.52 28.5204 59.52 23.9999Z" fill="white"/>
<path d="M105.149 46.1799V1.82031H114.524V38.0051H131.897V46.1799H105.149Z" fill="white"/>
<path d="M125.689 1.82031H135.626L146.124 34.6464L156.874 1.82031H166.56L151.749 46.1799H140.563L125.689 1.82031Z" fill="white"/>
<defs>
<linearGradient id="paint0_linear_8647_100234" x1="48" y1="-1.43051e-06" x2="1.43051e-06" y2="48" gradientUnits="userSpaceOnUse">
<stop offset="0.395833" stop-color="#A9FFE0"/>
<stop offset="1" stop-color="#86D5FF"/>
</linearGradient>
</defs>
</svg>
