<svg width="147" height="48" viewBox="0 0 147 48" fill="none" xmlns="http://www.w3.org/2000/svg">
<path d="M119.783 21.4396C119.257 21.443 118.753 21.6527 118.379 22.0235C118.006 22.3943 117.792 22.8968 117.785 23.4232C117.785 24.2438 118.201 24.8814 119.028 25.3418C119.933 25.5898 120.66 25.4289 121.209 24.8681C121.4 24.6838 121.55 24.4625 121.652 24.2178C121.753 23.9731 121.804 23.7102 121.8 23.4453C121.805 23.1819 121.756 22.9203 121.654 22.6772C121.552 22.4342 121.401 22.2152 121.209 22.0344C121.025 21.8431 120.803 21.6917 120.558 21.5894C120.313 21.4871 120.049 21.4361 119.783 21.4396V21.4396Z" fill="#DE5959"/>
<path d="M87.6358 6.22575H86.1364C85.828 6.22848 85.5333 6.35308 85.3165 6.57236C85.0997 6.79163 84.9785 7.08777 84.9793 7.39612V8.2226C83.3868 6.57701 81.5848 5.74609 79.5894 5.74609C77.2624 5.74609 75.33 6.608 73.7922 8.33182C72.241 10.0468 71.4795 12.1971 71.4795 14.7829C71.4795 17.4099 72.241 19.6001 73.7922 21.3549C75.3433 23.0699 77.3033 23.9421 79.6853 23.9421C81.5774 23.9421 83.3322 23.1658 84.9793 21.6279V23.2765C84.9781 23.4668 85.0145 23.6555 85.0864 23.8317C85.1583 24.0079 85.2642 24.1682 85.3982 24.3034C85.5322 24.4386 85.6915 24.546 85.867 24.6195C86.0426 24.693 86.2309 24.7311 86.4212 24.7317H88.9641V7.55994C88.9649 7.38501 88.9311 7.21165 88.8647 7.04981C88.7983 6.88798 88.7006 6.74085 88.5772 6.61688C88.4538 6.49291 88.3071 6.39454 88.1455 6.32742C87.984 6.2603 87.8108 6.22575 87.6358 6.22575V6.22575ZM83.8665 18.8681C82.9544 19.8746 81.7707 20.3793 80.3008 20.3793C79.6478 20.395 78.9998 20.2622 78.4057 19.991C77.8115 19.7197 77.2867 19.3171 76.8708 18.8135C75.9853 17.7803 75.5426 16.4329 75.5426 14.7858C75.5426 13.2347 76.006 11.9418 76.9033 10.8939C77.3259 10.3993 77.8524 10.0038 78.4452 9.7357C79.038 9.4676 79.6827 9.33345 80.3332 9.34279C81.7899 9.34279 82.9603 9.84606 83.8753 10.8792C84.7904 11.9123 85.2361 13.2612 85.2361 14.864C85.2361 16.4668 84.7756 17.8158 83.865 18.8681H83.8665Z" fill="#DE5959"/>
<path d="M71.4811 7.43663C71.4806 7.2783 71.4487 7.12164 71.3875 6.97564C71.3262 6.82963 71.2367 6.69716 71.1242 6.58582C71.0116 6.47448 70.8781 6.38646 70.7315 6.32681C70.5848 6.26716 70.4278 6.23706 70.2695 6.23823H68.7035C68.5453 6.23725 68.3885 6.2675 68.242 6.32724C68.0955 6.38697 67.9622 6.47502 67.8498 6.58635C67.7374 6.69767 67.648 6.83007 67.5869 6.97598C67.5257 7.12188 67.4939 7.27842 67.4933 7.43663V8.17457C66.8268 7.39763 65.9968 6.77754 65.0628 6.35861C64.1287 5.93968 63.1137 5.73226 62.0902 5.75119C59.6137 5.75119 57.6271 6.69132 56.1159 8.54206C54.7153 10.2969 54.0068 12.4339 54.0068 14.937C54.0068 17.5227 54.7644 19.6731 56.2797 21.388C57.7762 23.0897 59.6948 23.9324 62.0356 23.9324C64.09 23.9324 65.9102 23.1296 67.4963 21.5238V23.9192C67.4963 27.4981 66.0544 29.281 63.141 29.281C61.5633 29.281 60.3516 28.7497 59.5354 27.6752C59.3045 27.3656 59.1251 27.0208 59.0041 26.6539C58.9094 26.3767 58.7306 26.1359 58.4924 25.9653C58.2543 25.7946 57.9688 25.7026 57.6758 25.702H56.1705C55.9903 25.7021 55.8126 25.7435 55.651 25.8229C55.4893 25.9023 55.3479 26.0176 55.2377 26.16C55.1274 26.3025 55.0512 26.4682 55.0149 26.6447C54.9786 26.8211 54.9831 27.0035 55.0281 27.1779C55.4041 28.6729 56.2424 30.0111 57.4235 31.0019C58.9067 32.2401 60.7988 32.8526 63.0982 32.8526C65.8197 32.8526 67.9553 31.9538 69.5212 30.1709C70.3523 29.2136 70.924 28.0591 71.1815 26.8178C71.286 26.2773 71.3594 25.7313 71.4014 25.1825C71.4561 24.57 71.4841 23.8542 71.4841 23.0322V20.5409C70.3683 18.9351 69.8105 17.0165 69.8105 14.785C69.8105 12.5933 70.3683 10.716 71.4841 9.13683L71.4811 7.43663ZM66.4322 18.7315C65.5614 19.8339 64.3497 20.3785 62.8252 20.3785C61.3006 20.3785 60.1169 19.8339 59.2595 18.7315C58.4723 17.7387 58.0788 16.4596 58.0788 14.8942C58.0788 13.3017 58.4743 11.9956 59.2595 11.0023C60.1302 9.88658 61.3257 9.32722 62.8252 9.32722C64.2405 9.32722 65.4109 9.83197 66.3097 10.8518C67.2085 11.8716 67.6557 13.1925 67.6557 14.8662C67.6557 16.4321 67.2483 17.7249 66.4322 18.7315V18.7315Z" fill="#DE5959"/>
<path d="M104.529 6.24146V6.22965H96.2846V1.1807C96.2846 0.867556 96.1602 0.567243 95.9388 0.345819C95.7173 0.124396 95.417 0 95.1039 0H93.4996C93.1841 0 92.8816 0.125329 92.6585 0.348414C92.4354 0.571498 92.3101 0.874065 92.3101 1.18955V6.22965H90.6113V9.93851H92.3071V24.7282H94.5726C95.0245 24.729 95.4584 24.5504 95.7788 24.2316C96.0992 23.9129 96.2801 23.48 96.2816 23.028V9.94146H100.359C100.68 9.3266 101.077 8.75442 101.54 8.23831C102.357 7.33654 103.383 6.65057 104.529 6.24146V6.24146Z" fill="#DE5959"/>
<path d="M124.828 0.00417667C124.148 0.00875525 123.497 0.279808 123.015 0.759128C122.532 1.23845 122.257 1.88781 122.248 2.56776C122.245 2.91072 122.311 3.25082 122.44 3.56838C122.57 3.88595 122.761 4.17468 123.003 4.41788C123.245 4.66108 123.532 4.85392 123.849 4.98525C124.166 5.11658 124.506 5.1838 124.849 5.18301C125.188 5.19008 125.525 5.1261 125.837 4.9952C126.15 4.8643 126.432 4.66936 126.665 4.42293C126.911 4.18487 127.106 3.89906 127.237 3.58307C127.368 3.26708 127.433 2.92759 127.428 2.58547C127.435 2.24608 127.371 1.90904 127.24 1.59594C127.108 1.28283 126.913 1.00056 126.667 0.767201C126.429 0.521268 126.143 0.326699 125.826 0.195475C125.51 0.064251 125.17 -0.000850104 124.828 0.00417667Z" fill="#DE5959"/>
<path d="M125.627 8.17774H124.187C123.831 8.17774 123.489 8.31903 123.238 8.57058C122.986 8.82213 122.844 9.16336 122.844 9.5193V22.1454C123.142 22.4981 123.3 22.9485 123.287 23.4102C123.299 23.874 123.141 24.3264 122.844 24.6824V25.3923H125.404C125.591 25.3921 125.775 25.3552 125.948 25.2837C126.12 25.2121 126.276 25.1074 126.408 24.9754C126.54 24.8434 126.644 24.6868 126.715 24.5145C126.786 24.3421 126.823 24.1575 126.823 23.971V9.36729C126.822 9.21069 126.791 9.0557 126.731 8.91116C126.671 8.76663 126.582 8.63539 126.471 8.52493C126.36 8.41447 126.229 8.32695 126.084 8.26738C125.939 8.20781 125.784 8.17735 125.627 8.17774V8.17774Z" fill="#DE5959"/>
<path d="M144.309 10.6208C142.526 8.86599 140.349 7.98047 137.777 7.98047C135.205 7.98047 133.041 8.85271 131.273 10.5942C129.505 12.3358 128.604 14.4595 128.604 16.9493C128.604 19.5892 129.476 21.7804 131.218 23.5229C132.96 25.2939 135.124 26.1794 137.712 26.1794C140.3 26.1794 142.496 25.3101 144.3 23.5716C146.083 21.8153 146.967 19.6649 146.967 17.0777C146.966 14.5274 146.08 12.3904 144.309 10.6208ZM141.505 21.1142C140.566 22.1208 139.328 22.6108 137.776 22.6108C136.223 22.6108 134.986 22.1075 134.048 21.0995C133.109 20.0915 132.659 18.7381 132.659 17.0172C132.659 15.4115 133.135 14.1053 134.074 13.0973C135.013 12.0893 136.252 11.5742 137.776 11.5742C139.299 11.5742 140.552 12.0775 141.505 13.0973C142.43 14.092 142.892 15.4262 142.892 17.0999C142.898 18.7735 142.436 20.1062 141.505 21.1142Z" fill="#DE5959"/>
<path d="M117.006 21.7664C114.762 21.7118 109.358 21.6571 109.141 21.6571C107.875 21.6571 106.827 21.2498 106.024 20.4189C105.193 19.5895 104.745 18.4604 104.636 17.0451H116.026C116.279 17.0478 116.522 16.9505 116.704 16.7744C116.885 16.5982 116.989 16.3575 116.993 16.1049C116.993 13.2604 116.262 11.0422 114.801 9.45022C113.325 7.82677 111.318 7.02832 108.787 7.02832C106.282 7.02832 104.268 7.85825 102.745 9.51811C101.233 11.2065 100.477 13.4115 100.477 16.133C100.477 18.8545 101.252 21.0545 102.804 22.7331C103.875 23.8779 105.272 24.6661 106.805 24.9911C107.474 25.1469 108.159 25.2202 108.846 25.2096C111.023 25.2642 112.979 25.3055 115.066 25.3453H115.088L116.98 25.3867V24.9779C116.713 24.6928 116.542 24.3317 116.49 23.9447C116.473 23.8363 116.464 23.7268 116.462 23.6171C116.456 23.1158 116.647 22.6321 116.993 22.2696L117.006 21.7664ZM105.466 12.4684C105.703 12.0856 106.008 11.7491 106.365 11.4751C106.707 11.1915 107.099 10.9748 107.521 10.8361C107.958 10.6852 108.419 10.6113 108.882 10.6176C110.992 10.6176 112.338 11.6655 112.896 13.7893H104.891C105.015 13.324 105.207 12.8799 105.462 12.4713L105.466 12.4684Z" fill="#DE5959"/>
<path d="M18.7202 23.7321L18.3055 23.3159C18.2357 23.2461 18.1468 23.1986 18.0501 23.1794C17.9533 23.1601 17.853 23.17 17.7619 23.2077C17.6707 23.2455 17.5928 23.3094 17.538 23.3915C17.4832 23.4735 17.4539 23.57 17.4539 23.6686V29.6223C17.4539 29.6879 17.4669 29.7529 17.492 29.8135C17.5172 29.8741 17.5541 29.9292 17.6005 29.9755C17.647 30.0219 17.7022 30.0586 17.7629 30.0836C17.8236 30.1086 17.8886 30.1213 17.9542 30.1211H23.9035C24.002 30.1212 24.0984 30.0921 24.1803 30.0373C24.2623 29.9826 24.3261 29.9048 24.3637 29.8137C24.4014 29.7226 24.4111 29.6224 24.3917 29.5258C24.3723 29.4292 24.3246 29.3405 24.2547 29.271C24.162 29.1773 24.11 29.0508 24.11 28.919C24.11 28.7872 24.162 28.6607 24.2547 28.567L30.5832 22.2208C30.6295 22.1746 30.6662 22.1197 30.6913 22.0593C30.7163 21.9989 30.7292 21.9342 30.7292 21.8688C30.7292 21.8034 30.7163 21.7387 30.6913 21.6783C30.6662 21.6179 30.6295 21.563 30.5832 21.5168L30.0077 20.9412C29.9384 20.8714 29.8913 20.7826 29.8724 20.6861C29.8534 20.5896 29.8634 20.4896 29.9011 20.3988C29.9388 20.3079 30.0025 20.2302 30.0842 20.1755C30.166 20.1208 30.262 20.0914 30.3604 20.0911H36.3052C36.4376 20.0911 36.5647 20.1436 36.6585 20.2371C36.7522 20.3306 36.8051 20.4575 36.8055 20.5899V26.5392C36.8048 26.6377 36.775 26.7338 36.7199 26.8155C36.6648 26.8972 36.5868 26.9608 36.4957 26.9983C36.4046 27.0358 36.3045 27.0456 36.2078 27.0264C36.1112 27.0072 36.0223 26.9599 35.9525 26.8904L35.551 26.4905C35.5056 26.4432 35.451 26.4055 35.3907 26.3798C35.3303 26.3541 35.2654 26.3408 35.1998 26.3408C35.1342 26.3408 35.0692 26.3541 35.0089 26.3798C34.9485 26.4055 34.894 26.4432 34.8485 26.4905L24.1735 37.1492C24.0796 37.242 23.9529 37.2941 23.8208 37.2941C23.6887 37.2941 23.562 37.242 23.4681 37.1492L10.4155 24.0951C10.3692 24.0489 10.3325 23.9941 10.3074 23.9337C10.2824 23.8733 10.2695 23.8085 10.2695 23.7431C10.2695 23.6778 10.2824 23.613 10.3074 23.5526C10.3325 23.4922 10.3692 23.4373 10.4155 23.3912V23.3912L28.4905 5.31912C28.5833 5.22519 28.6354 5.09845 28.6354 4.96639C28.6354 4.83432 28.5833 4.70758 28.4905 4.61365L24.2414 0.36462C24.1475 0.271787 24.0208 0.219727 23.8887 0.219727C23.7566 0.219727 23.6299 0.271787 23.536 0.36462L0.144896 23.7586C0.052063 23.8526 0 23.9793 0 24.1114C0 24.2434 0.052063 24.3702 0.144896 24.4641L23.536 47.8552C23.6299 47.948 23.7566 48.0001 23.8887 48.0001C24.0208 48.0001 24.1475 47.948 24.2414 47.8552L47.6399 24.4641C47.7323 24.3702 47.7841 24.2438 47.7841 24.1121C47.7841 23.9804 47.7323 23.854 47.6399 23.7601L33.8715 9.9932C33.7779 9.89965 33.6511 9.84709 33.5188 9.84709C33.3865 9.84709 33.2596 9.89965 33.166 9.9932L19.4257 23.7277C19.3796 23.7739 19.3249 23.8106 19.2646 23.8356C19.2043 23.8606 19.1397 23.8735 19.0744 23.8735C19.0091 23.8735 18.9445 23.8606 18.8842 23.8356C18.824 23.8106 18.7692 23.7739 18.7232 23.7277V23.7277L18.7202 23.7321Z" fill="#DE5959"/>
<path d="M146.967 36.6221H118.672" stroke="#DE5959" stroke-width="1.98" stroke-miterlimit="10"/>
<path d="M81.916 36.7686H53.6191" stroke="#DE5959" stroke-width="1.98" stroke-miterlimit="10"/>
<path d="M98.0141 38.5045V41.8916C98.018 42.0026 97.999 42.1131 97.9584 42.2164C97.9177 42.3197 97.8562 42.4135 97.7777 42.492C97.6992 42.5705 97.6054 42.632 97.5021 42.6727C97.3988 42.7134 97.2882 42.7323 97.1773 42.7284C96.9652 42.7088 96.7672 42.6134 96.6198 42.4597C96.4723 42.306 96.3852 42.1043 96.3744 41.8916C95.5759 42.5602 94.6742 42.7771 93.5702 42.7196C91.7771 42.6295 90.0134 41.1345 89.7197 39.3634C89.5971 38.6943 89.6376 38.0055 89.838 37.3553C90.0383 36.7052 90.3924 36.113 90.8704 35.629C91.3484 35.1449 91.9361 34.7833 92.5836 34.5747C93.2312 34.3662 93.9194 34.3169 94.5901 34.4311C96.5795 34.7366 98.0141 36.4973 98.0141 38.5045ZM96.243 39.4727C96.8806 37.4478 95.1553 35.4686 93.0566 36.1578C92.6812 36.2815 92.34 36.4915 92.0604 36.7709C91.7808 37.0502 91.5705 37.3912 91.4465 37.7665C90.7587 39.8652 92.7378 41.5905 94.7627 40.9544C95.1095 40.8435 95.4246 40.6511 95.6817 40.3933C95.9387 40.1354 96.1302 39.8197 96.2401 39.4727H96.243Z" fill="#DE5959"/>
<path d="M107.238 37.3845C107.399 37.9625 107.434 38.5681 107.341 39.1608C107.248 39.7534 107.03 40.3193 106.7 40.8204C106.37 41.3215 105.937 41.7463 105.43 42.0661C104.922 42.3859 104.352 42.5934 103.758 42.6746C103.163 42.7558 102.558 42.7088 101.984 42.5369C101.409 42.3649 100.878 42.0719 100.426 41.6776C99.9736 41.2833 99.6112 40.7968 99.3628 40.2508C99.1143 39.7048 98.9856 39.1119 98.9854 38.5121V30.9984C98.9875 30.8615 99.0231 30.7273 99.089 30.6073C99.1549 30.4873 99.2492 30.3853 99.3635 30.31C99.4779 30.2348 99.6089 30.1887 99.7452 30.1757C99.8815 30.1627 100.019 30.1832 100.145 30.2354C100.29 30.2984 100.413 30.4013 100.501 30.532C100.589 30.6627 100.639 30.8158 100.643 30.9733V35.1722C101.173 34.7715 101.79 34.5012 102.444 34.383C103.098 34.2649 103.771 34.3021 104.408 34.4918C105.089 34.6892 105.707 35.0592 106.203 35.5661C106.699 36.0729 107.056 36.6993 107.238 37.3845V37.3845ZM105.543 37.5321C105.402 37.1742 105.18 36.8543 104.893 36.598C104.607 36.3416 104.264 36.1561 103.893 36.0562C103.515 35.9481 103.118 35.9287 102.731 35.9997C102.345 36.0708 101.98 36.2302 101.666 36.4656C101.351 36.701 101.096 37.006 100.919 37.3567C100.742 37.7073 100.648 38.0942 100.646 38.487V38.5608C100.641 39.0333 100.773 39.4972 101.027 39.8959C101.28 40.2947 101.644 40.6112 102.074 40.807C104.273 41.7767 106.379 39.6854 105.543 37.538V37.5321Z" fill="#DE5959"/>
<path d="M98.9961 35.1406H100.631V41.1814C100.631 41.5959 100.467 41.9934 100.174 42.2865C99.8805 42.5796 99.4829 42.7443 99.0684 42.7443H98.9961V35.1406Z" fill="#DE5959"/>
<path d="M88.6128 40.9654V30.2344H86.9775V41.0673C86.9775 41.5115 87.154 41.9376 87.4682 42.2517C87.7823 42.5659 88.2084 42.7424 88.6527 42.7424H89.6548C89.6603 42.7424 89.6655 42.7402 89.6694 42.7363C89.6733 42.7325 89.6754 42.7272 89.6754 42.7217V41.0259H88.6689C88.6535 41.0252 88.639 41.0184 88.6285 41.0071C88.618 40.9958 88.6124 40.9808 88.6128 40.9654V40.9654Z" fill="#DE5959"/>
<path d="M110.854 42.7762C110.499 42.7817 110.145 42.7201 109.812 42.5947C109.476 42.4921 109.154 42.3479 108.854 42.1652C108.794 42.1269 108.735 42.087 108.679 42.0472C108.623 42.0073 108.549 41.9498 108.493 41.8996C108.258 41.7121 108.05 41.4948 107.871 41.2531L107.848 41.2236C107.767 41.1222 107.716 40.9998 107.702 40.8707C107.687 40.7416 107.709 40.611 107.766 40.4941C107.823 40.3772 107.911 40.2788 108.022 40.2101C108.132 40.1415 108.26 40.1056 108.39 40.1064C108.461 40.1065 108.532 40.118 108.601 40.1403H108.617C108.71 40.1623 108.794 40.2141 108.856 40.2879C108.993 40.4274 109.141 40.5562 109.299 40.6731C109.759 41.0333 110.326 41.2315 110.91 41.2369C111.262 41.2502 111.608 41.1435 111.892 40.9344C111.975 40.8671 112.043 40.7841 112.094 40.6901C112.145 40.5961 112.176 40.493 112.187 40.3868C112.208 40.2228 112.182 40.0564 112.115 39.9057C112.045 39.7778 111.943 39.6704 111.819 39.5943C111.649 39.4857 111.468 39.3952 111.279 39.3242C111.056 39.2371 110.767 39.1397 110.417 39.0364C110.043 38.9337 109.676 38.8065 109.318 38.6556C109.048 38.5439 108.798 38.3878 108.58 38.1937C108.391 38.0197 108.245 37.8039 108.155 37.5635C108.053 37.2771 108.003 36.9746 108.007 36.6706C108 36.3371 108.072 36.0067 108.218 35.7065C108.363 35.4063 108.578 35.1449 108.844 34.9438C109.119 34.7334 109.431 34.5763 109.764 34.4804C110.125 34.3739 110.501 34.3207 110.878 34.3225C111.225 34.3193 111.572 34.3554 111.911 34.4302C112.572 34.5819 113.182 34.9028 113.682 35.3615V35.3615C113.732 35.4065 113.779 35.4559 113.821 35.5091C113.949 35.6546 114.022 35.8416 114.024 36.0359V36.0655C114.016 36.2708 113.933 36.4661 113.79 36.6141C113.648 36.7621 113.456 36.8526 113.251 36.8683H113.193C113.062 36.8687 112.933 36.8373 112.817 36.7768C112.8 36.7695 112.783 36.7606 112.767 36.7503C112.706 36.7135 112.65 36.6694 112.6 36.6189H112.593L112.577 36.6012C112.13 36.1434 111.529 35.8691 110.891 35.8323C110.857 35.8323 110.825 35.8323 110.791 35.8323C110.555 35.8332 110.324 35.8903 110.115 35.999C109.995 36.0571 109.895 36.1496 109.827 36.2647C109.76 36.3798 109.729 36.5124 109.737 36.6455C109.733 36.7692 109.764 36.8914 109.827 36.9982C109.905 37.11 110.013 37.1979 110.138 37.2521C110.309 37.3346 110.485 37.4056 110.665 37.4646C110.875 37.5369 111.148 37.6122 111.479 37.7125C111.81 37.8101 112.135 37.9274 112.453 38.0638C112.735 38.1825 112.998 38.3437 113.232 38.542C113.45 38.7314 113.623 38.9661 113.741 39.2297C113.872 39.5421 113.935 39.8786 113.925 40.2171C113.932 40.5899 113.84 40.9577 113.66 41.2841C113.483 41.5995 113.242 41.8741 112.951 42.09C112.659 42.3081 112.334 42.4784 111.988 42.5947C111.622 42.7143 111.239 42.7755 110.854 42.7762V42.7762Z" fill="#DE5959"/>
</svg>
