<svg width="153" height="48" viewBox="0 0 153 48" fill="none" xmlns="http://www.w3.org/2000/svg">
<path d="M4.63525 37.7539C6.66444 40.5744 9.2664 42.9345 12.2708 44.6797C15.2752 46.425 18.6144 47.5161 22.0696 47.8816C20.0879 45.0145 17.4978 42.6202 14.4841 40.8696C11.4705 39.1189 8.1075 38.055 4.63525 37.7539Z" fill="url(#paint0_linear_8647_100138)"/>
<path d="M18.8362 33.4084C12.6202 29.7989 5.8918 28.879 1.07764 30.5041C1.54216 32.0393 2.15541 33.5255 2.90868 34.9416C7.47986 34.8999 11.975 36.1119 15.9056 38.446C19.8826 40.7029 23.1643 44.0074 25.3938 47.9998C26.9983 47.9504 28.5943 47.7465 30.1598 47.391C29.1698 42.4103 25.0302 37.0223 18.8362 33.4084Z" fill="url(#paint1_linear_8647_100138)"/>
<path d="M48.435 18.7512C47.6444 15.5373 46.2143 12.5156 44.23 9.86651C42.2458 7.21747 39.7481 4.99542 36.8861 3.33301C34.0242 1.6706 30.8565 0.601934 27.5724 0.190804C24.2883 -0.220325 20.955 0.0345169 17.7715 0.940114C23.0894 1.58843 28.9943 3.56841 34.7853 6.95016C40.5764 10.3319 45.2372 14.4539 48.435 18.7512Z" fill="url(#paint2_linear_8647_100138)"/>
<path d="M40.6956 30.5393C37.9753 26.0186 33.3101 21.6907 27.5541 18.3527C21.7982 15.0148 15.7268 13.0962 10.4702 12.9823C5.83563 12.8727 2.35313 14.2219 0.925092 16.6794L0.894429 16.7232C0.767395 17.1613 0.65788 17.6475 0.557129 18.1118C2.75925 17.2782 5.09306 16.8465 7.44765 16.8371C13.1423 16.7276 19.5597 18.5543 25.4603 21.9842C31.3608 25.4141 36.1224 30.0706 38.8602 35.0862C40.0114 37.136 40.7887 39.3743 41.1556 41.6964C41.5104 41.381 41.8565 41.0569 42.1938 40.7152L42.2157 40.667C43.6393 38.2052 43.0874 34.5124 40.6956 30.5393Z" fill="url(#paint3_linear_8647_100138)"/>
<path d="M23.2166 25.8738C14.3987 20.7618 4.67399 19.9645 0 23.5302C0.0101193 24.6458 0.0949999 25.7595 0.25407 26.8638C1.62965 26.4471 3.04752 26.1855 4.48125 26.0841C9.70718 25.6898 15.4675 27.1441 20.6891 30.1842C25.9106 33.2243 30.0327 37.504 32.2799 42.2349C32.9011 43.5317 33.3757 44.8937 33.6948 46.2957C34.7345 45.8861 35.7457 45.4075 36.7217 44.8632C37.5058 39.0372 31.9776 30.9858 23.2166 25.8738Z" fill="url(#paint4_linear_8647_100138)"/>
<path d="M45.2202 22.9742C42.4693 18.4579 37.7734 14.1168 31.978 10.757C26.1826 7.39716 20.0981 5.46098 14.8108 5.30328C10.7807 5.18939 7.65745 6.17938 6.0498 8.01043C12.7739 6.8715 21.64 8.78578 30.2345 13.7795C38.8291 18.7733 44.8917 25.528 47.2265 31.9323C48.015 29.615 47.3097 26.4173 45.2202 22.9742Z" fill="url(#paint5_linear_8647_100138)"/>
<path d="M73.4354 14.5284V27.2319C73.4354 28.9665 72.9506 30.3187 71.9811 31.2882C71.0115 32.2578 69.6857 32.7338 68.0036 32.7162C66.1696 32.7162 64.7094 32.1891 63.6231 31.1349C62.5367 30.0806 62.0008 28.5767 62.0154 26.623H65.5592C65.5213 27.3717 65.7273 28.1126 66.1462 28.7344C66.3519 28.9844 66.6141 29.1819 66.9111 29.3106C67.2082 29.4394 67.5316 29.4956 67.8546 29.4747C68.1338 29.4971 68.4145 29.4559 68.6755 29.3543C68.9365 29.2526 69.171 29.0931 69.3615 28.8877C69.7047 28.4045 69.8746 27.8194 69.8434 27.2275V14.524L73.4354 14.5284ZM90.0813 18.4052V32.5323H86.4893V29.6762C86.1293 30.6089 85.4739 31.3982 84.6232 31.9234C83.7319 32.4603 82.7066 32.7337 81.6663 32.7119C80.9378 32.7451 80.2109 32.6185 79.5366 32.3407C78.8623 32.063 78.257 31.6409 77.7633 31.1042C76.7967 30.0354 76.3119 28.5402 76.309 26.6186V18.3964H79.8835V26.1981C79.8252 27.1544 80.1391 28.0963 80.7596 28.8264C81.0629 29.1368 81.4286 29.3794 81.8326 29.5379C82.2366 29.6965 82.6696 29.7675 83.1031 29.7463C83.5628 29.7676 84.0217 29.6898 84.4488 29.5182C84.8758 29.3467 85.2609 29.0853 85.5781 28.7519C86.2377 27.952 86.5668 26.9303 86.498 25.8958V18.3964L90.0813 18.4052ZM101.795 18.2256C102.927 18.2125 104.041 18.5159 105.01 19.1017C105.984 19.7046 106.756 20.5848 107.227 21.6292C107.795 22.8315 108.074 24.1502 108.041 25.4797C108.071 26.8173 107.792 28.1439 107.227 29.3564C106.749 30.3883 105.978 31.2567 105.01 31.8533C104.041 32.4391 102.927 32.7425 101.795 32.7294C100.712 32.7609 99.6438 32.468 98.7284 31.8883C97.9096 31.3275 97.2863 30.525 96.9455 29.593V39.2826H93.3491V18.3964H96.9455V21.327C97.2834 20.4003 97.908 19.6054 98.7284 19.0579C99.6498 18.4779 100.724 18.1879 101.812 18.2256H101.795ZM100.673 21.362C100.169 21.3482 99.668 21.441 99.2022 21.6342C98.7365 21.8275 98.3168 22.1168 97.9705 22.4834C97.2395 23.3012 96.863 24.3757 96.9236 25.4709C96.8694 26.5639 97.2452 27.6346 97.9705 28.454C98.3203 28.8143 98.7412 29.0978 99.2066 29.2863C99.6719 29.4749 100.171 29.5644 100.673 29.5492C101.175 29.5708 101.676 29.486 102.142 29.3003C102.609 29.1145 103.031 28.8321 103.38 28.4715C104.043 27.6081 104.401 26.5503 104.401 25.4621C104.401 24.374 104.043 23.3162 103.38 22.4527C103.036 22.0894 102.618 21.804 102.154 21.6158C101.69 21.4277 101.191 21.3411 100.691 21.362H100.673ZM110.179 14.3532C110.17 14.0886 110.221 13.8255 110.327 13.583C110.433 13.3405 110.592 13.1247 110.792 12.9514C111.249 12.5886 111.815 12.3911 112.398 12.3911C112.981 12.3911 113.547 12.5886 114.003 12.9514C114.205 13.1235 114.365 13.3391 114.471 13.5819C114.577 13.8247 114.627 14.0884 114.616 14.3532C114.623 14.6175 114.571 14.8799 114.465 15.1221C114.359 15.3643 114.202 15.5803 114.003 15.755C113.545 16.0979 112.989 16.2843 112.417 16.2867C111.845 16.2891 111.288 16.1072 110.827 15.7681C110.624 15.5926 110.462 15.3744 110.353 15.129C110.244 14.8837 110.191 14.6173 110.197 14.3488L110.179 14.3532ZM114.2 18.3964V32.5235H110.604V18.3964H114.2ZM125.003 29.4396V32.506H123.115C121.532 32.506 120.317 32.1234 119.47 31.3583C118.638 30.5961 118.217 29.3214 118.217 27.5341V21.4628H116.255V18.3964H118.217V14.892H121.814V18.3964H124.976V21.4628H121.814V27.5954C121.759 28.107 121.907 28.6194 122.225 29.0235C122.613 29.3341 123.107 29.4804 123.601 29.4309L125.003 29.4396ZM140.878 24.9233C140.871 25.3351 140.829 25.7456 140.75 26.1499H130.395C130.448 27.4085 130.788 28.3358 131.416 28.9315C132.053 29.5211 132.896 29.8358 133.764 29.8076C134.5 29.8376 135.225 29.6235 135.827 29.1987C136.38 28.7998 136.764 28.2071 136.9 27.5385H140.698C140.519 28.5069 140.109 29.4178 139.502 30.1931C138.871 30.9883 138.056 31.6183 137.128 32.0285C136.128 32.481 135.04 32.7068 133.943 32.69C132.664 32.7112 131.4 32.4099 130.268 31.8139C129.21 31.2312 128.343 30.3549 127.771 29.2907C127.184 28.0919 126.88 26.7749 126.88 25.4402C126.88 24.1056 127.184 22.7886 127.771 21.5898C128.331 20.516 129.201 19.6354 130.268 19.0622C131.4 18.4662 132.664 18.1649 133.943 18.1861C135.213 18.1589 136.469 18.4607 137.588 19.0622C138.611 19.6101 139.453 20.4442 140.01 21.4628C140.606 22.5203 140.905 23.7187 140.878 24.9321V24.9233ZM137.255 24.5685C137.307 23.4004 137.002 22.5243 136.339 21.9402C135.684 21.349 134.825 21.0349 133.943 21.0641C133.045 21.0313 132.168 21.3449 131.494 21.9402C131.145 22.2825 130.867 22.6915 130.678 23.1429C130.489 23.5944 130.393 24.0792 130.395 24.5685H137.255ZM147.028 21.0992C147.527 20.2233 148.248 19.4938 149.117 18.9834C149.994 18.4534 151.001 18.1788 152.026 18.1905V22.0454H150.979C148.351 22.0454 147.036 23.269 147.036 25.7162V32.5235H143.44V18.3964H147.036L147.028 21.0992Z" fill="#292A33"/>
<defs>
<linearGradient id="paint0_linear_8647_100138" x1="36.004" y1="11.1074" x2="2.37054" y2="58.1977" gradientUnits="userSpaceOnUse">
<stop stop-color="#F9A43A"/>
<stop offset="0.25" stop-color="#FFC45E"/>
<stop offset="0.53" stop-color="#6DDFE0"/>
<stop offset="0.76" stop-color="#73E8F2"/>
<stop offset="1" stop-color="#39C7E3"/>
</linearGradient>
<linearGradient id="paint1_linear_8647_100138" x1="35.6617" y1="10.862" x2="2.0282" y2="57.9523" gradientUnits="userSpaceOnUse">
<stop stop-color="#F9A43A"/>
<stop offset="0.25" stop-color="#FFC45E"/>
<stop offset="0.53" stop-color="#6DDFE0"/>
<stop offset="0.76" stop-color="#73E8F2"/>
<stop offset="1" stop-color="#39C7E3"/>
</linearGradient>
<linearGradient id="paint2_linear_8647_100138" x1="33.4843" y1="9.31124" x2="-0.149126" y2="56.3972" gradientUnits="userSpaceOnUse">
<stop stop-color="#F9A43A"/>
<stop offset="0.25" stop-color="#FFC45E"/>
<stop offset="0.53" stop-color="#6DDFE0"/>
<stop offset="0.76" stop-color="#73E8F2"/>
<stop offset="1" stop-color="#39C7E3"/>
</linearGradient>
<linearGradient id="paint3_linear_8647_100138" x1="34.7513" y1="10.2138" x2="1.11345" y2="57.2997" gradientUnits="userSpaceOnUse">
<stop stop-color="#F9A43A"/>
<stop offset="0.25" stop-color="#FFC45E"/>
<stop offset="0.53" stop-color="#6DDFE0"/>
<stop offset="0.76" stop-color="#73E8F2"/>
<stop offset="1" stop-color="#39C7E3"/>
</linearGradient>
<linearGradient id="paint4_linear_8647_100138" x1="35.2411" y1="10.564" x2="1.60764" y2="57.6543" gradientUnits="userSpaceOnUse">
<stop stop-color="#F9A43A"/>
<stop offset="0.25" stop-color="#FFC45E"/>
<stop offset="0.53" stop-color="#6DDFE0"/>
<stop offset="0.76" stop-color="#73E8F2"/>
<stop offset="1" stop-color="#39C7E3"/>
</linearGradient>
<linearGradient id="paint5_linear_8647_100138" x1="33.9886" y1="9.66626" x2="0.350789" y2="56.7566" gradientUnits="userSpaceOnUse">
<stop stop-color="#F9A43A"/>
<stop offset="0.25" stop-color="#FFC45E"/>
<stop offset="0.53" stop-color="#6DDFE0"/>
<stop offset="0.76" stop-color="#73E8F2"/>
<stop offset="1" stop-color="#39C7E3"/>
</linearGradient>
</defs>
</svg>
