<svg width="153" height="48" viewBox="0 0 153 48" fill="none" xmlns="http://www.w3.org/2000/svg">
<path d="M4.63477 37.7539C6.66396 40.5744 9.26593 42.9345 12.2704 44.6798C15.2748 46.4251 18.6139 47.5162 22.0692 47.8817C20.0875 45.0146 17.4974 42.6203 14.4837 40.8696C11.47 39.1189 8.10702 38.055 4.63477 37.7539Z" fill="url(#paint0_linear_8647_100130)"/>
<path d="M18.8358 33.4084C12.6198 29.7989 5.89134 28.879 1.07715 30.5041C1.54167 32.0394 2.15493 33.5256 2.9082 34.9416C7.4794 34.8999 11.9746 36.112 15.9052 38.446C19.8822 40.703 23.164 44.0075 25.3934 47.9999C26.9979 47.9505 28.594 47.7466 30.1594 47.391C29.1694 42.4104 25.0298 37.0224 18.8358 33.4084Z" fill="url(#paint1_linear_8647_100130)"/>
<path d="M48.4351 18.7513C47.6445 15.5373 46.2144 12.5156 44.2301 9.86656C42.2459 7.21751 39.7482 4.99544 36.8862 3.33303C34.0242 1.67061 30.8566 0.601936 27.5724 0.190805C24.2883 -0.220326 20.955 0.0345171 17.7715 0.940118C23.0894 1.58843 28.9944 3.56843 34.7854 6.95019C40.5765 10.3319 45.2373 14.454 48.4351 18.7513Z" fill="url(#paint2_linear_8647_100130)"/>
<path d="M40.6948 30.5394C37.9745 26.0187 33.3093 21.6907 27.5533 18.3528C21.7973 15.0148 15.7259 13.0962 10.4693 12.9823C5.83468 12.8727 2.35217 14.2219 0.924117 16.6794L0.893454 16.7232C0.766419 17.1613 0.656904 17.6475 0.556152 18.1118C2.75829 17.2783 5.0921 16.8465 7.44671 16.8371C13.1414 16.7276 19.5588 18.5543 25.4594 21.9842C31.3599 25.4142 36.1216 30.0707 38.8594 35.0863C40.0106 37.1361 40.7879 39.3744 41.1548 41.6965C41.5096 41.3811 41.8557 41.057 42.193 40.7153L42.2149 40.6671C43.6385 38.2053 43.0866 34.5125 40.6948 30.5394Z" fill="url(#paint3_linear_8647_100130)"/>
<path d="M23.2167 25.8738C14.3988 20.7617 4.67401 19.9645 0 23.5302C0.0101193 24.6459 0.0950003 25.7595 0.254071 26.8638C1.62966 26.4471 3.04754 26.1856 4.48127 26.0841C9.70723 25.6898 15.4676 27.1442 20.6892 30.1842C25.9108 33.2243 30.0328 37.5041 32.28 42.235C32.9013 43.5318 33.3759 44.8938 33.6949 46.2958C34.7346 45.8862 35.7459 45.4076 36.7219 44.8633C37.506 39.0373 31.9778 30.9859 23.2167 25.8738Z" fill="url(#paint4_linear_8647_100130)"/>
<path d="M45.2199 22.9743C42.4689 18.458 37.773 14.1169 31.9776 10.757C26.1822 7.39717 20.0976 5.46098 14.8103 5.30328C10.7803 5.18939 7.65697 6.17939 6.04932 8.01044C12.7734 6.87151 21.6396 8.78579 30.2341 13.7796C38.8287 18.7734 44.8913 25.5281 47.2262 31.9324C48.0147 29.6151 47.3094 26.4174 45.2199 22.9743Z" fill="url(#paint5_linear_8647_100130)"/>
<path d="M73.4354 14.5284V27.2319C73.4354 28.9666 72.9507 30.3187 71.9811 31.2883C71.0115 32.2578 69.6857 32.7339 68.0036 32.7163C66.1696 32.7163 64.7094 32.1892 63.6231 31.135C62.5367 30.0807 62.0008 28.5768 62.0154 26.623H65.5593C65.5213 27.3718 65.7273 28.1127 66.1463 28.7344C66.3519 28.9845 66.6141 29.182 66.9111 29.3107C67.2082 29.4394 67.5316 29.4957 67.8546 29.4748C68.1339 29.4972 68.4145 29.456 68.6755 29.3543C68.9365 29.2527 69.1711 29.0931 69.3615 28.8878C69.7048 28.4045 69.8746 27.8195 69.8434 27.2276V14.5241L73.4354 14.5284ZM90.0814 18.4052V32.5324H86.4894V29.6763C86.1294 30.609 85.474 31.3983 84.6233 31.9235C83.7319 32.4604 82.7067 32.7338 81.6664 32.712C80.9379 32.7452 80.211 32.6185 79.5367 32.3408C78.8624 32.0631 78.2571 31.641 77.7634 31.1043C76.7967 30.0355 76.312 28.5402 76.309 26.6187V18.3964H79.8835V26.1981C79.8253 27.1545 80.1392 28.0963 80.7597 28.8264C81.0629 29.1369 81.4287 29.3794 81.8327 29.538C82.2367 29.6966 82.6697 29.7676 83.1032 29.7464C83.5629 29.7676 84.0218 29.6899 84.4489 29.5183C84.8759 29.3468 85.261 29.0854 85.5782 28.752C86.2378 27.9521 86.5669 26.9304 86.4981 25.8959V18.3964L90.0814 18.4052ZM101.795 18.2256C102.927 18.2125 104.041 18.5159 105.01 19.1017C105.984 19.7047 106.756 20.5848 107.227 21.6293C107.795 22.8315 108.074 24.1502 108.042 25.4797C108.071 26.8174 107.793 28.144 107.227 29.3565C106.749 30.3883 105.978 31.2567 105.01 31.8534C104.041 32.4392 102.927 32.7426 101.795 32.7295C100.712 32.761 99.644 32.4681 98.7285 31.8884C97.9097 31.3276 97.2865 30.5251 96.9457 29.593V39.2827H93.3493V18.3964H96.9457V21.327C97.2836 20.4003 97.9081 19.6055 98.7285 19.0579C99.65 18.4779 100.724 18.1879 101.812 18.2256H101.795ZM100.673 21.362C100.169 21.3483 99.6681 21.441 99.2024 21.6343C98.7367 21.8275 98.3169 22.1169 97.9707 22.4835C97.2397 23.3013 96.8631 24.3758 96.9238 25.471C96.8696 26.5639 97.2454 27.6347 97.9707 28.4541C98.3204 28.8144 98.7414 29.0978 99.2067 29.2864C99.6721 29.4749 100.172 29.5645 100.673 29.5492C101.175 29.5709 101.676 29.4861 102.142 29.3003C102.609 29.1146 103.031 28.8322 103.381 28.4716C104.043 27.6081 104.402 26.5503 104.402 25.4622C104.402 24.3741 104.043 23.3163 103.381 22.4528C103.036 22.0894 102.618 21.804 102.154 21.6159C101.69 21.4277 101.191 21.3412 100.691 21.362H100.673ZM110.179 14.3532C110.171 14.0887 110.221 13.8255 110.327 13.583C110.433 13.3405 110.592 13.1247 110.792 12.9515C111.249 12.5886 111.815 12.3911 112.398 12.3911C112.981 12.3911 113.547 12.5886 114.003 12.9515C114.205 13.1235 114.365 13.3391 114.471 13.5819C114.577 13.8247 114.627 14.0884 114.617 14.3532C114.623 14.6175 114.571 14.8799 114.466 15.1221C114.36 15.3643 114.202 15.5803 114.003 15.755C113.546 16.0979 112.99 16.2843 112.418 16.2867C111.846 16.2891 111.288 16.1072 110.828 15.7681C110.624 15.5926 110.462 15.3744 110.353 15.129C110.244 14.8837 110.191 14.6173 110.197 14.3488L110.179 14.3532ZM114.201 18.3964V32.5236H110.604V18.3964H114.201ZM125.003 29.4397V32.5061H123.115C121.532 32.5061 120.317 32.1235 119.47 31.3584C118.638 30.5962 118.217 29.3214 118.217 27.5342V21.4628H116.255V18.3964H118.217V14.892H121.814V18.3964H124.977V21.4628H121.814V27.5955C121.76 28.107 121.907 28.6195 122.226 29.0236C122.613 29.3342 123.107 29.4805 123.601 29.431L125.003 29.4397ZM140.878 24.9234C140.872 25.3352 140.829 25.7456 140.751 26.1499H130.395C130.448 27.4086 130.788 28.3358 131.416 28.9316C132.053 29.5211 132.896 29.8359 133.764 29.8077C134.5 29.8376 135.225 29.6236 135.827 29.1988C136.381 28.7999 136.764 28.2071 136.9 27.5386H140.698C140.52 28.507 140.109 29.4178 139.502 30.1932C138.871 30.9884 138.057 31.6183 137.128 32.0286C136.128 32.481 135.041 32.7069 133.943 32.6901C132.664 32.7113 131.4 32.41 130.268 31.814C129.21 31.2312 128.343 30.355 127.771 29.2908C127.185 28.0919 126.88 26.7749 126.88 25.4403C126.88 24.1057 127.185 22.7887 127.771 21.5898C128.331 20.5161 129.201 19.6354 130.268 19.0623C131.4 18.4662 132.664 18.1649 133.943 18.1862C135.214 18.1589 136.469 18.4607 137.588 19.0623C138.612 19.6101 139.453 20.4443 140.011 21.4628C140.606 22.5203 140.906 23.7188 140.878 24.9322V24.9234ZM137.255 24.5686C137.308 23.4004 137.003 22.5243 136.34 21.9403C135.684 21.349 134.826 21.0349 133.943 21.0642C133.045 21.0313 132.168 21.345 131.495 21.9403C131.145 22.2825 130.867 22.6915 130.679 23.143C130.49 23.5944 130.393 24.0792 130.395 24.5686H137.255ZM147.028 21.0992C147.528 20.2234 148.248 19.4938 149.118 18.9834C149.994 18.4535 151.002 18.1789 152.026 18.1905V22.0454H150.979C148.351 22.0454 147.037 23.269 147.037 25.7163V32.5236H143.44V18.3964H147.037L147.028 21.0992Z" fill="white"/>
<defs>
<linearGradient id="paint0_linear_8647_100130" x1="36.0036" y1="11.1072" x2="2.37004" y2="58.1978" gradientUnits="userSpaceOnUse">
<stop stop-color="#F9A43A"/>
<stop offset="0.25" stop-color="#FFC45E"/>
<stop offset="0.53" stop-color="#6DDFE0"/>
<stop offset="0.76" stop-color="#73E8F2"/>
<stop offset="1" stop-color="#39C7E3"/>
</linearGradient>
<linearGradient id="paint1_linear_8647_100130" x1="35.6613" y1="10.8619" x2="2.02772" y2="57.9525" gradientUnits="userSpaceOnUse">
<stop stop-color="#F9A43A"/>
<stop offset="0.25" stop-color="#FFC45E"/>
<stop offset="0.53" stop-color="#6DDFE0"/>
<stop offset="0.76" stop-color="#73E8F2"/>
<stop offset="1" stop-color="#39C7E3"/>
</linearGradient>
<linearGradient id="paint2_linear_8647_100130" x1="33.4844" y1="9.31128" x2="-0.149203" y2="56.3975" gradientUnits="userSpaceOnUse">
<stop stop-color="#F9A43A"/>
<stop offset="0.25" stop-color="#FFC45E"/>
<stop offset="0.53" stop-color="#6DDFE0"/>
<stop offset="0.76" stop-color="#73E8F2"/>
<stop offset="1" stop-color="#39C7E3"/>
</linearGradient>
<linearGradient id="paint3_linear_8647_100130" x1="34.7505" y1="10.2138" x2="1.11248" y2="57.2999" gradientUnits="userSpaceOnUse">
<stop stop-color="#F9A43A"/>
<stop offset="0.25" stop-color="#FFC45E"/>
<stop offset="0.53" stop-color="#6DDFE0"/>
<stop offset="0.76" stop-color="#73E8F2"/>
<stop offset="1" stop-color="#39C7E3"/>
</linearGradient>
<linearGradient id="paint4_linear_8647_100130" x1="35.2413" y1="10.5639" x2="1.60765" y2="57.6545" gradientUnits="userSpaceOnUse">
<stop stop-color="#F9A43A"/>
<stop offset="0.25" stop-color="#FFC45E"/>
<stop offset="0.53" stop-color="#6DDFE0"/>
<stop offset="0.76" stop-color="#73E8F2"/>
<stop offset="1" stop-color="#39C7E3"/>
</linearGradient>
<linearGradient id="paint5_linear_8647_100130" x1="33.9882" y1="9.66628" x2="0.35027" y2="56.7568" gradientUnits="userSpaceOnUse">
<stop stop-color="#F9A43A"/>
<stop offset="0.25" stop-color="#FFC45E"/>
<stop offset="0.53" stop-color="#6DDFE0"/>
<stop offset="0.76" stop-color="#73E8F2"/>
<stop offset="1" stop-color="#39C7E3"/>
</linearGradient>
</defs>
</svg>
