<svg width="291" height="36" viewBox="0 0 291 36" fill="none" xmlns="http://www.w3.org/2000/svg">
<path d="M85.0663 14.4H63.8549V7.2H90.5579V0H63.8061C61.9481 0 60.1662 0.7533 58.8524 2.09419C57.5389 3.43507 56.8008 5.25371 56.8008 7.15001V14.45C56.8008 16.3463 57.5389 18.1649 58.8524 19.5058C60.1662 20.8467 61.9481 21.6 63.8061 21.6H85.0175V28.8H57.3052V36H85.0663C86.9243 36 88.7062 35.2467 90.0197 33.9058C91.3335 32.5649 92.0716 30.7463 92.0716 28.85V21.55C92.0716 19.6537 91.3335 17.8351 90.0197 16.4942C88.7062 15.1533 86.9243 14.4 85.0663 14.4Z" fill="white"/>
<path d="M126.142 0H104.853C103.933 -2.29847e-07 103.022 0.184976 102.172 0.544357C101.323 0.903742 100.551 1.43049 99.9007 2.09449C99.2508 2.75849 98.7353 3.54674 98.3837 4.4142C98.0321 5.28165 97.8517 6.21128 97.8521 7.15001V28.85C97.8517 29.7887 98.0321 30.7183 98.3837 31.5858C98.7353 32.4532 99.2508 33.2415 99.9007 33.9055C100.551 34.5695 101.323 35.0963 102.172 35.4557C103.022 35.815 103.933 36 104.853 36H126.142C128 36 129.782 35.2467 131.096 33.9058C132.409 32.5649 133.148 30.7463 133.148 28.85V7.15001C133.148 5.25371 132.409 3.43507 131.096 2.09419C129.782 0.7533 128 0 126.142 0ZM126.093 28.8H104.931V7.2H126.093V28.8Z" fill="white"/>
<path d="M200.652 1.75085e-06H179.892C178.034 1.75085e-06 176.252 0.753304 174.938 2.09419C173.624 3.43507 172.886 5.25371 172.886 7.15001V36H179.94V24.17H200.603V36H207.657V7.15001C207.658 6.21086 207.477 5.28082 207.125 4.41304C206.774 3.54526 206.258 2.75679 205.607 2.09272C204.957 1.42865 204.184 0.902014 203.334 0.542925C202.484 0.183836 201.572 -0.000655676 200.652 1.75085e-06ZM200.603 16.97H179.94V7.2H200.603V16.97Z" fill="white"/>
<path d="M283.245 1.57357e-05H262.489C261.568 -0.00195674 260.655 0.181528 259.803 0.539966C258.952 0.898403 258.178 1.42476 257.526 2.08889C256.874 2.75303 256.356 3.5419 256.004 4.41037C255.651 5.2788 255.469 6.20981 255.469 7.15001V36H262.523V24.17H283.196V36H290.25V7.15001C290.25 5.25371 289.512 3.43509 288.198 2.0942C286.884 0.753319 285.102 1.57357e-05 283.245 1.57357e-05ZM283.196 16.97H262.538V7.2H283.196V16.97Z" fill="white"/>
<path d="M242.149 28.8H239.328L229.217 3C228.871 2.11479 228.273 1.35576 227.5 0.820969C226.727 0.286183 225.815 0.00021185 224.881 0H218.601C217.363 0 216.176 0.502024 215.3 1.39564C214.425 2.28925 213.933 3.50124 213.933 4.76501V36H220.987V7.2H223.808L233.915 33C234.259 33.8852 234.856 34.6444 235.628 35.1793C236.4 35.7142 237.312 36.0001 238.245 36H244.525C245.763 36 246.951 35.498 247.826 34.6044C248.702 33.7107 249.194 32.4988 249.194 31.235V0H242.139L242.149 28.8Z" fill="white"/>
<path d="M146.452 0H139.398V28.85C139.398 30.7463 140.136 32.5649 141.45 33.9058C142.764 35.2467 144.545 36 146.403 36H167.615V28.8H146.452V0Z" fill="white"/>
<path fill-rule="evenodd" clip-rule="evenodd" d="M6.73112 27.45C6.85637 27.3115 7.00771 27.2003 7.17605 27.123C7.3444 27.0457 7.5263 27.0039 7.71088 27H38.4944C38.6248 27.0019 38.7516 27.0421 38.8599 27.1159C38.9683 27.1896 39.0536 27.2938 39.1054 27.4158C39.1572 27.5378 39.1733 27.6725 39.1517 27.8036C39.1303 27.9348 39.0723 28.0568 38.9845 28.155L32.4593 35.55C32.334 35.6885 32.1827 35.7997 32.0143 35.877C31.846 35.9543 31.6641 35.9961 31.4795 36H0.676301C0.546056 35.9981 0.419111 35.9579 0.310737 35.8841C0.202368 35.8104 0.117185 35.7062 0.0654358 35.5842C0.0136869 35.4622 -0.00242388 35.3275 0.0190399 35.1964C0.0405037 35.0652 0.0986308 34.9432 0.18643 34.845L6.73112 27.45ZM39.0139 21.32C39.1017 21.4182 39.1597 21.5402 39.181 21.6714C39.2027 21.8025 39.1866 21.9372 39.1348 22.0592C39.083 22.1812 38.9977 22.2853 38.8893 22.3591C38.7809 22.4329 38.6542 22.4731 38.5238 22.475L7.73047 22.5C7.54592 22.4961 7.36398 22.4543 7.19563 22.377C7.02729 22.2997 6.87596 22.1884 6.75074 22.05L0.176631 14.68C0.0888358 14.5818 0.0307087 14.4598 0.00924123 14.3286C-0.0122226 14.1975 0.00388817 14.0628 0.0556371 13.9408C0.107386 13.8188 0.192569 13.7147 0.300942 13.6409C0.409312 13.5671 0.536258 13.5269 0.666506 13.525L31.4599 13.5C31.6445 13.5039 31.8264 13.5457 31.9948 13.623C32.1631 13.7003 32.3144 13.8116 32.4397 13.95L39.0139 21.32ZM6.73112 0.45C6.85637 0.311557 7.00771 0.200342 7.17605 0.123017C7.3444 0.0456934 7.5263 0.00385178 7.71088 0L38.5142 0.025C38.6443 0.0268723 38.7714 0.0671126 38.8798 0.14088C38.9882 0.214648 39.073 0.318802 39.1248 0.440813C39.1766 0.562826 39.1928 0.6975 39.1715 0.828634C39.1498 0.959771 39.0918 1.08179 39.004 1.18L32.4593 8.55C32.334 8.68845 32.1827 8.79968 32.0143 8.877C31.846 8.95433 31.6641 8.99614 31.4795 9H0.676301C0.546056 8.99813 0.419111 8.95789 0.310737 8.88412C0.202368 8.81036 0.117185 8.70619 0.0654358 8.5842C0.0136869 8.46217 -0.00242388 8.32751 0.0190399 8.19638C0.0405037 8.06524 0.0986308 7.94321 0.18643 7.845L6.73112 0.45Z" fill="url(#paint0_linear_8807_105400)"/>
<defs>
<linearGradient id="paint0_linear_8807_105400" x1="1.19067" y1="36.785" x2="38.7529" y2="-0.016349" gradientUnits="userSpaceOnUse">
<stop stop-color="#9945FF"/>
<stop offset="0.14" stop-color="#8A53F4"/>
<stop offset="0.42" stop-color="#6377D6"/>
<stop offset="0.79" stop-color="#24B0A7"/>
<stop offset="0.99" stop-color="#00D18C"/>
<stop offset="1" stop-color="#00D18C"/>
</linearGradient>
</defs>
</svg>
