<svg width="199" height="48" viewBox="0 0 199 48" fill="none" xmlns="http://www.w3.org/2000/svg">
<path d="M88.0458 40.4061C85.4969 40.4061 83.3243 39.9465 81.5286 39.027C79.7616 38.1078 78.2409 36.8723 76.9663 35.3209L80.3554 32.1751C81.427 33.4679 82.6002 34.4447 83.8748 35.1054C85.1783 35.7662 86.6556 36.0965 88.3064 36.0965C90.2471 36.0965 91.7101 35.6656 92.6947 34.8037C93.6795 33.9419 94.1719 32.7784 94.1719 31.313C94.1719 30.1352 93.8244 29.2016 93.1292 28.5121C92.4341 27.8226 91.2031 27.3053 89.4361 26.9607L86.7423 26.4865C83.7878 25.9406 81.5719 24.9784 80.0946 23.5993C78.6174 22.2203 77.8787 20.3241 77.8787 17.9108C77.8787 16.5893 78.1249 15.397 78.6174 14.334C79.1389 13.2423 79.8484 12.3373 80.7465 11.6191C81.6732 10.8721 82.7886 10.2975 84.0921 9.89529C85.3953 9.49309 86.8583 9.29199 88.4804 9.29199C90.7685 9.29199 92.7528 9.69419 94.4327 10.4986C96.1127 11.2743 97.5465 12.4091 98.734 13.9031L95.3016 16.9197C94.5197 15.9141 93.5638 15.1097 92.4341 14.5064C91.3044 13.9031 89.8996 13.6014 88.2196 13.6014C86.4815 13.6014 85.1348 13.9462 84.1789 14.6357C83.2229 15.3252 82.7451 16.3307 82.7451 17.6523C82.7451 18.9164 83.1362 19.8644 83.9181 20.4965C84.7002 21.0998 85.9169 21.5595 87.568 21.8755L90.2617 22.4357C93.303 23.0103 95.5189 23.9871 96.9092 25.366C98.3286 26.7451 99.0383 28.6414 99.0383 31.0547C99.0383 32.4624 98.7921 33.7409 98.2997 34.89C97.8073 36.0392 97.0832 37.0303 96.1273 37.8635C95.2003 38.668 94.0562 39.2999 92.6947 39.7596C91.3333 40.1905 89.7836 40.4061 88.0458 40.4061Z" fill="black"/>
<path d="M111.189 40.4072C109.625 40.4072 108.191 40.1342 106.887 39.5883C105.613 39.0425 104.527 38.2669 103.629 37.2614C102.731 36.2269 102.036 34.9918 101.543 33.5551C101.051 32.09 100.805 30.4666 100.805 28.6855C100.805 26.9042 101.051 25.2955 101.543 23.8589C102.036 22.3938 102.731 21.1584 103.629 20.1528C104.527 19.1186 105.613 18.3285 106.887 17.7827C108.191 17.2368 109.625 16.9639 111.189 16.9639C112.753 16.9639 114.172 17.2368 115.447 17.7827C116.75 18.3285 117.851 19.1186 118.749 20.1528C119.647 21.1584 120.342 22.3938 120.834 23.8589C121.327 25.2955 121.573 26.9042 121.573 28.6855C121.573 30.4666 121.327 32.09 120.834 33.5551C120.342 34.9918 119.647 36.2269 118.749 37.2614C117.851 38.2669 116.75 39.0425 115.447 39.5883C114.172 40.1342 112.753 40.4072 111.189 40.4072ZM111.189 36.5286C112.811 36.5286 114.114 36.0403 115.099 35.0635C116.084 34.058 116.576 32.5639 116.576 30.5816V26.7893C116.576 24.8069 116.084 23.3275 115.099 22.3507C114.114 21.3451 112.811 20.8424 111.189 20.8424C109.567 20.8424 108.263 21.3451 107.278 22.3507C106.294 23.3275 105.801 24.8069 105.801 26.7893V30.5816C105.801 32.5639 106.294 34.058 107.278 35.0635C108.263 36.0403 109.567 36.5286 111.189 36.5286Z" fill="black"/>
<path d="M129.414 39.8897C127.792 39.8897 126.575 39.4875 125.764 38.6832C124.982 37.85 124.591 36.7009 124.591 35.2355V8H129.327V36.0544H132.455V39.8897H129.414Z" fill="black"/>
<path d="M143.585 40.4072C141.963 40.4072 140.514 40.1342 139.24 39.5883C137.965 39.0425 136.879 38.2669 135.981 37.2614C135.083 36.2269 134.388 34.9918 133.896 33.5551C133.432 32.09 133.201 30.4666 133.201 28.6855C133.201 26.9042 133.432 25.2955 133.896 23.8589C134.388 22.3938 135.083 21.1584 135.981 20.1528C136.879 19.1186 137.965 18.3285 139.24 17.7827C140.514 17.2368 141.963 16.9639 143.585 16.9639C145.236 16.9639 146.684 17.2512 147.93 17.8258C149.204 18.4004 150.261 19.2048 151.101 20.239C151.941 21.2446 152.564 22.4225 152.97 23.7728C153.404 25.1231 153.621 26.5739 153.621 28.1253V29.892H138.11V30.6248C138.11 32.3486 138.617 33.7707 139.631 34.8911C140.674 35.9829 142.151 36.5286 144.063 36.5286C145.453 36.5286 146.626 36.2269 147.582 35.6237C148.538 35.0204 149.349 34.2016 150.015 33.1674L152.796 35.8823C151.956 37.2614 150.739 38.3673 149.146 39.2004C147.553 40.0049 145.699 40.4072 143.585 40.4072ZM143.585 20.6269C142.774 20.6269 142.021 20.7705 141.325 21.0578C140.659 21.3451 140.08 21.7473 139.588 22.2645C139.124 22.7816 138.762 23.3993 138.501 24.1175C138.241 24.8358 138.11 25.6258 138.11 26.4876V26.7893H148.625V26.3583C148.625 24.6346 148.176 23.2556 147.278 22.2214C146.38 21.1584 145.149 20.6269 143.585 20.6269Z" fill="black"/>
<path d="M156.604 39.89V17.481H161.34V21.1871H161.557C162.05 19.9805 162.788 18.9749 163.773 18.1705C164.787 17.3661 166.163 16.9639 167.901 16.9639C170.218 16.9639 172.014 17.7252 173.288 19.2479C174.592 20.7418 175.244 22.8821 175.244 25.669V39.89H170.508V26.2723C170.508 22.7672 169.088 21.0147 166.25 21.0147C165.641 21.0147 165.033 21.1009 164.425 21.2733C163.845 21.417 163.324 21.6468 162.861 21.9628C162.397 22.2788 162.021 22.681 161.731 23.1695C161.47 23.6578 161.34 24.2323 161.34 24.8932V39.89H156.604Z" fill="black"/>
<path d="M193.756 36.1837H193.539C193.046 37.5051 192.235 38.5396 191.106 39.2865C190.005 40.0334 188.701 40.4069 187.195 40.4069C184.328 40.4069 182.112 39.3871 180.548 37.3471C178.983 35.2788 178.201 32.3913 178.201 28.6853C178.201 24.9792 178.983 22.1062 180.548 20.0664C182.112 17.9979 184.328 16.9636 187.195 16.9636C188.701 16.9636 190.005 17.3371 191.106 18.0841C192.235 18.8023 193.046 19.8366 193.539 21.1868H193.756V8H198.492V39.8897H193.756V36.1837ZM188.629 36.356C190.077 36.356 191.294 36.0113 192.278 35.3218C193.263 34.6036 193.756 33.6698 193.756 32.5206V24.8499C193.756 23.7007 193.263 22.7813 192.278 22.0918C191.294 21.3736 190.077 21.0145 188.629 21.0145C186.978 21.0145 185.66 21.546 184.675 22.609C183.69 23.6432 183.198 25.0222 183.198 26.746V30.6246C183.198 32.3483 183.69 33.7417 184.675 34.8046C185.66 35.839 186.978 36.356 188.629 36.356Z" fill="black"/>
<path fill-rule="evenodd" clip-rule="evenodd" d="M15.39 1.06663C16.8751 2.51464 16.9052 4.89244 15.4572 6.37759L10.1428 11.8283C6.60248 15.4594 6.63921 21.2619 10.2252 24.8479C13.7983 28.4211 19.5757 28.4721 23.2114 24.9626L23.2114 24.9626L30.6598 17.7729C37.5386 11.1329 48.4549 11.18 55.2758 17.8795C62.6877 25.159 62.2374 37.2352 54.3026 43.9419L50.5513 47.1126C48.9671 48.4516 46.5974 48.2528 45.2585 46.6686C43.9195 45.0845 44.1183 42.7148 45.7024 41.3758L49.4538 38.2051C54.0102 34.3539 54.2691 27.419 50.0125 23.2385L50.0124 23.2384C46.0957 19.3913 39.8269 19.3641 35.8765 23.1773L33.2682 20.4751L35.8765 23.1773L28.4281 30.367C21.8449 36.7217 11.3838 36.6293 4.91379 30.1593C-1.57936 23.6662 -1.64586 13.1594 4.76457 6.58458L7.45367 9.20644L4.76457 6.58457L10.079 1.13385C11.527 -0.351293 13.9048 -0.381392 15.39 1.06663Z" fill="url(#paint0_linear_11473_120294)"/>
<path fill-rule="evenodd" clip-rule="evenodd" d="M38.7414 4.59401C39.2905 6.59424 38.1141 8.66086 36.1138 9.20995C32.2633 10.267 28.2902 13.0269 25.1022 15.7972C23.5509 17.1452 22.269 18.4217 21.3778 19.3583C20.9335 19.8253 20.5896 20.2044 20.3614 20.4613C20.2473 20.5896 20.1624 20.6872 20.1085 20.7497C20.0816 20.7809 20.0625 20.8033 20.0513 20.8164C20.0485 20.8197 20.0461 20.8225 20.0444 20.8246C20.0426 20.8266 20.0414 20.8281 20.0407 20.8289L20.0414 20.8281C20.0418 20.8276 20.0423 20.8271 17.1655 18.4126L20.0423 20.8271C20.0415 20.8279 20.0408 20.8288 20.04 20.8297C18.7062 22.4161 16.339 22.6221 14.751 21.2894C13.1622 19.9559 12.9552 17.587 14.2887 15.9982L17.1655 18.4126C14.2887 15.9982 14.2892 15.9975 14.2898 15.9969L14.2942 15.9917L14.3028 15.9814C14.3097 15.9733 14.3186 15.9628 14.3296 15.9498C14.3516 15.9239 14.382 15.8884 14.4204 15.8439C14.4972 15.7548 14.6064 15.6294 14.7461 15.4723C15.0252 15.1581 15.427 14.7156 15.9359 14.1807C16.9513 13.1135 18.406 11.6648 20.1753 10.1273C23.6285 7.12657 28.6325 3.47434 34.1254 1.96647C36.1257 1.41739 38.1923 2.59377 38.7414 4.59401Z" fill="url(#paint1_linear_11473_120294)"/>
<path fill-rule="evenodd" clip-rule="evenodd" d="M39.4343 28.8679C40.7653 27.2791 43.1321 27.0687 44.7225 28.3986C46.3137 29.7292 46.525 32.0977 45.1944 33.689L42.3132 31.2797C45.1944 33.689 45.1939 33.6896 45.1933 33.6903L45.1888 33.6956L45.1801 33.706C45.1732 33.7142 45.1642 33.7249 45.1531 33.7379C45.131 33.7641 45.1005 33.7998 45.0619 33.8446C44.9849 33.9343 44.8754 34.0603 44.7354 34.2181C44.4557 34.5337 44.0531 34.9777 43.5432 35.5137C42.5259 36.5831 41.0679 38.0333 39.2928 39.5671C35.8309 42.5586 30.7979 46.1918 25.2519 47.6107C23.2424 48.1248 21.1966 46.9125 20.6825 44.903C20.1684 42.8935 21.3807 40.8477 23.3902 40.3336C27.2311 39.351 31.1942 36.638 34.3816 33.8836C35.9313 32.5446 37.2112 31.2719 38.1008 30.3367C38.5443 29.8705 38.8874 29.4917 39.1149 29.2351C39.2285 29.1069 39.3131 29.0094 39.3667 28.9472C39.3934 28.916 39.4124 28.8937 39.4234 28.8807C39.4289 28.8743 39.4324 28.8701 39.4339 28.8684L39.4337 28.8686M39.4343 28.8679C39.4339 28.8684 39.4334 28.8689 39.433 28.8694Z" fill="url(#paint2_linear_11473_120294)"/>
<defs>
<linearGradient id="paint0_linear_11473_120294" x1="3.75572" y1="17.7562" x2="46.2764" y2="28.2179" gradientUnits="userSpaceOnUse">
<stop stop-color="#FF9351"/>
<stop offset="1" stop-color="#FF5C28"/>
</linearGradient>
<linearGradient id="paint1_linear_11473_120294" x1="17.1655" y1="14.3161" x2="34.6899" y2="6.21574" gradientUnits="userSpaceOnUse">
<stop stop-color="#FF9351"/>
<stop offset="1" stop-color="#FF5C28"/>
</linearGradient>
<linearGradient id="paint2_linear_11473_120294" x1="24.3211" y1="39.8614" x2="41.8747" y2="31.848" gradientUnits="userSpaceOnUse">
<stop stop-color="#FF9351"/>
<stop offset="1" stop-color="#FF5C28"/>
</linearGradient>
</defs>
</svg>
