<svg width="173" height="48" viewBox="0 0 173 48" fill="none" xmlns="http://www.w3.org/2000/svg">
<path d="M11.0659 11.5023C11.0659 11.5023 14.6905 11.1359 21.9594 7.54108C23.2468 6.94689 25.784 5.84764 28.141 5.24751L28.1905 5.23562C31.6011 4.42158 36.1606 3.96207 39.084 6.14671C39.084 6.14671 32.534 4.25521 25.9286 7.5074C25.9286 7.5074 31.5714 10.4288 36.1843 11.3914C36.1843 11.3914 40.9656 12.255 41.7618 9.83069C41.7618 9.83069 42.356 8.76907 41.4627 7.57277C41.4627 7.57277 35.4792 0.48012 24.9046 0.000807269H23.1438C23.1438 0.000807269 16.6077 -0.167547 10.1746 4.3582C10.1746 4.3582 5.74 7.2935 5.83904 9.14935C5.84696 9.15331 6.18565 12.2253 11.0659 11.5023Z" fill="url(#paint0_linear_8647_100167)"/>
<path d="M36.7439 36.4973C36.7439 36.4973 33.1193 36.8657 25.8504 40.4586C24.561 41.0528 22.0238 42.15 19.6668 42.7502L19.6193 42.762C16.2067 43.5781 11.6492 44.0376 8.72581 41.8509C8.72581 41.8509 15.2777 43.7444 21.8832 40.4922C21.8832 40.4922 16.2403 37.5708 11.6255 36.6082C11.6255 36.6082 6.84619 35.7447 6.04998 38.167C6.04998 38.167 5.45579 39.2306 6.34707 40.4249C6.34707 40.4249 12.3326 47.5175 22.9052 47.9988H24.6679C24.6679 47.9988 31.204 48.1652 37.6351 43.6414C37.6351 43.6414 42.0717 40.7081 41.9727 38.8523C41.9648 38.8483 41.6241 35.7744 36.7439 36.4973Z" fill="url(#paint1_linear_8647_100167)"/>
<path d="M46.9831 18.2801C45.7868 14.6575 41.9998 14.7308 41.9998 14.7308C37.4067 14.4594 32.5462 16.2737 32.5462 16.2737C30.0764 16.9689 25.6774 18.5494 25.6774 18.5494C28.894 20.2152 36.5214 22.8237 38.2921 23.4218H38.1376C34.721 23.3208 22.8174 18.7 22.8174 18.7C12.5696 14.7387 7.53481 14.7189 7.53481 14.7189C2.21087 14.5208 1.01457 17.6899 1.01457 17.6899C-1.1463 23.402 0.816507 29.7281 0.816507 29.7281C2.00489 33.3567 5.79384 33.2794 5.79384 33.2794C10.3849 33.5488 15.2474 31.7345 15.2474 31.7345C17.7172 31.0413 22.1142 29.4588 22.1142 29.4588C18.8977 27.795 11.2723 25.1846 9.50158 24.5864L9.65409 24.5963C13.0707 24.6954 24.9763 29.3181 24.9763 29.3181C35.2221 33.2794 40.2568 33.2972 40.2568 33.2972C45.5808 33.4953 46.7771 30.3263 46.7771 30.3263C48.9498 24.6082 46.9831 18.2801 46.9831 18.2801Z" fill="url(#paint2_linear_8647_100167)"/>
<path d="M156.904 22.4444C157.136 24.5016 156.89 26.5845 156.187 28.5316C154.633 32.7532 150.83 34.5939 146.892 34.4589C145.14 34.4219 143.431 33.9043 141.952 32.9626C141.693 32.7945 141.458 32.5906 141.21 32.4115L141.282 32.2462C143.092 32.2462 144.903 32.2462 146.713 32.2462C147.402 32.2641 148.091 32.2124 148.769 32.0918C151.324 31.5407 153.002 29.9562 153.77 27.49C154.575 25.0218 154.478 22.348 153.495 19.9451C152.434 17.3135 150.078 15.8117 147.157 15.8806C144.236 15.9494 141.921 17.5339 141.015 20.2262C139.912 23.5136 139.995 26.7184 141.987 29.7082C142.012 29.7795 142.026 29.8536 142.032 29.9287C141.114 29.9287 140.21 29.948 139.306 29.9287C139.212 29.9036 139.125 29.8586 139.05 29.7968C138.975 29.735 138.914 29.6578 138.871 29.5705C136.881 25.652 137.267 20.3832 139.747 17.1537C141.841 14.4311 144.729 13.3895 148.061 13.6485C153.109 14.0123 156.399 17.3879 156.904 22.4444ZM125.804 13.6265C122.693 13.373 119.951 14.2961 117.812 16.6907C114.993 19.8734 114.566 25.6079 116.575 29.5429C116.658 29.7 116.851 29.8984 117.008 29.9039C117.912 29.9397 118.821 29.9204 119.736 29.9204C119.736 29.7964 119.736 29.7441 119.711 29.7137C117.697 26.7267 117.655 23.5109 118.722 20.2262C119.601 17.5146 121.971 15.9191 124.927 15.8695C127.884 15.8199 130.235 17.3769 131.265 20.0553C132.213 22.5211 132.263 25.2414 131.409 27.7407C131.014 28.9872 130.245 30.0817 129.206 30.8756C128.167 31.6694 126.909 32.1239 125.603 32.1773C123.632 32.2627 121.657 32.2269 119.684 32.2462H118.959C120.554 33.759 122.453 34.357 124.514 34.4506C128.471 34.6435 132.346 32.756 133.883 28.5536C134.639 26.4992 134.876 24.2902 134.575 22.122C133.941 17.1977 130.731 14.0205 125.804 13.621V13.6265ZM112.15 22.0118C111.475 24.4285 109.785 25.9027 107.096 26.0515C103.789 26.2334 100.482 26.1673 97.1922 26.2086C97.1536 26.2086 97.115 26.17 97.0379 26.1314V14.1886C100.529 14.2603 103.957 14.1721 107.355 14.4394C111.962 14.8004 113.001 18.9613 112.15 22.0118ZM109.722 19.9423C109.606 17.9886 108.391 16.7844 106.341 16.6907C104.784 16.6191 103.221 16.6301 101.656 16.6108C101.023 16.6108 100.386 16.6108 99.7274 16.6108V23.8966C100.678 23.8966 101.571 23.9132 102.461 23.8966C103.858 23.8636 105.266 23.8966 106.647 23.7341C108.708 23.475 109.843 21.9843 109.722 19.9423ZM68.0433 23.0837C66.1144 22.5326 64.1855 22.1027 62.2565 21.5461C60.1981 20.9509 58.3739 20.0085 57.5885 17.7075C57.5272 17.8123 57.4747 17.922 57.4314 18.0355C56.985 20.0939 57.6657 22.0338 59.5147 23.0644C60.8346 23.7974 62.3392 24.2163 63.7859 24.7013C65.2794 25.2028 66.8171 25.5528 68.3106 26.0791C68.8323 26.2469 69.2857 26.5793 69.6026 27.0264C69.9196 27.4735 70.0831 28.0113 70.0687 28.5591C70.088 29.7854 69.5038 30.6975 68.4319 31.3148C66.8915 32.1883 65.2188 32.282 63.5517 31.9899C61.3003 31.5931 59.5478 30.5211 59.1151 28.0273C59.087 27.9151 59.052 27.8046 59.0104 27.6966H56.6075C56.5862 27.7994 56.5714 27.9034 56.5634 28.008C56.5591 28.1923 56.5701 28.3767 56.5965 28.5591C56.963 30.579 57.9302 32.1966 59.7324 33.263C61.0303 34.0318 62.4577 34.3211 63.9319 34.4424C66.0124 34.6105 68.0075 34.3459 69.8345 33.2547C72.5019 31.6592 73.4168 28.2092 71.8158 25.6602C70.9367 24.2521 69.5644 23.5191 68.0433 23.0837ZM92.6399 14.2465C91.5597 14.1115 90.8984 14.4201 90.2591 15.4534C88.1593 18.8401 85.8666 22.111 83.6732 25.4425C83.475 25.7684 83.3675 26.1414 83.3618 26.5227C83.3342 28.4517 83.3618 30.3806 83.3618 32.3095V34.4424H85.9548C85.9548 32.5824 86.0733 30.7609 85.9245 28.9615C85.7481 26.8314 86.3571 25.1036 87.6523 23.4089C89.8705 20.4907 91.8711 17.4099 94.0563 14.2603C93.5807 14.2836 93.104 14.279 92.6289 14.2465H92.6399ZM162.498 14.2961H159.984V29.3831H162.498V14.2961ZM63.4497 15.9494C66.7372 15.5389 68.3409 16.451 69.4928 19.4105H71.948C72.0417 17.7985 70.9477 15.7455 69.4184 14.8417C67.0155 13.4198 64.4279 13.2352 61.7798 13.9516C60.4516 14.3099 59.8812 15.8806 60.5315 17.1757C61.3334 16.3821 62.3502 16.0872 63.4387 15.9522L63.4497 15.9494ZM159.987 32.1855V34.4369H172.476V32.1855H159.987ZM79.0272 14.646C78.9625 14.5482 78.8786 14.4645 78.7805 14.4001C78.6824 14.3356 78.5723 14.2918 78.4568 14.2713C77.5419 14.2327 76.627 14.2548 75.5634 14.2548C77.6714 17.4182 79.6968 20.4549 81.7773 23.5715C82.2843 22.8109 82.7445 22.1579 83.1551 21.4717C83.1861 21.3736 83.195 21.2698 83.1812 21.1679C83.1674 21.0659 83.1312 20.9683 83.0752 20.882C81.7305 18.7951 80.3774 16.7174 79.0162 14.6488L79.0272 14.646ZM97.0517 34.4231H99.6337V29.0111H97.0517V34.4231Z" fill="url(#paint3_linear_8647_100167)"/>
<defs>
<linearGradient id="paint0_linear_8647_100167" x1="18.8954" y1="17.7889" x2="29.464" y2="-0.514154" gradientUnits="userSpaceOnUse">
<stop stop-color="#BD85E7"/>
<stop offset="0.07" stop-color="#A393DE"/>
<stop offset="0.14" stop-color="#909DD8"/>
<stop offset="0.21" stop-color="#85A3D4"/>
<stop offset="0.28" stop-color="#81A5D3"/>
<stop offset="0.35" stop-color="#6AB2CD"/>
<stop offset="0.42" stop-color="#57BCC7"/>
<stop offset="0.5" stop-color="#4CC2C4"/>
<stop offset="0.58" stop-color="#48C4C3"/>
<stop offset="0.62" stop-color="#3DCDBF"/>
<stop offset="0.7" stop-color="#2ADDB8"/>
<stop offset="0.79" stop-color="#1FE6B4"/>
<stop offset="0.89" stop-color="#1BE9B3"/>
<stop offset="1" stop-color="#01FFAD"/>
</linearGradient>
<linearGradient id="paint1_linear_8647_100167" x1="18.3457" y1="48.5138" x2="28.9144" y2="30.2108" gradientUnits="userSpaceOnUse">
<stop stop-color="#F067F8"/>
<stop offset="0.48" stop-color="#9D97DD"/>
<stop offset="0.76" stop-color="#9A98DC"/>
<stop offset="1" stop-color="#81A6D4"/>
</linearGradient>
<linearGradient id="paint2_linear_8647_100167" x1="9.10347" y1="38.8014" x2="38.706" y2="9.20086" gradientUnits="userSpaceOnUse">
<stop offset="0.07" stop-color="#F564FA"/>
<stop offset="0.12" stop-color="#DF71F3"/>
<stop offset="0.17" stop-color="#CC7CEC"/>
<stop offset="0.22" stop-color="#C183E8"/>
<stop offset="0.27" stop-color="#BD85E7"/>
<stop offset="0.33" stop-color="#A393DE"/>
<stop offset="0.38" stop-color="#909DD8"/>
<stop offset="0.44" stop-color="#85A3D4"/>
<stop offset="0.5" stop-color="#81A5D3"/>
<stop offset="0.53" stop-color="#6AB2CD"/>
<stop offset="0.56" stop-color="#57BCC7"/>
<stop offset="0.6" stop-color="#4CC2C4"/>
<stop offset="0.64" stop-color="#48C4C3"/>
<stop offset="0.65" stop-color="#44C7C2"/>
<stop offset="0.76" stop-color="#2ADDBA"/>
<stop offset="0.86" stop-color="#1AEAB5"/>
<stop offset="0.94" stop-color="#15EFB3"/>
</linearGradient>
<linearGradient id="paint3_linear_8647_100167" x1="56.5634" y1="24.0124" x2="172.465" y2="24.0124" gradientUnits="userSpaceOnUse">
<stop offset="0.07" stop-color="#F564FA"/>
<stop offset="0.12" stop-color="#DF71F3"/>
<stop offset="0.17" stop-color="#CC7CEC"/>
<stop offset="0.22" stop-color="#C183E8"/>
<stop offset="0.27" stop-color="#BD85E7"/>
<stop offset="0.33" stop-color="#A393DE"/>
<stop offset="0.38" stop-color="#909DD8"/>
<stop offset="0.44" stop-color="#85A3D4"/>
<stop offset="0.5" stop-color="#81A5D3"/>
<stop offset="0.53" stop-color="#6AB2CD"/>
<stop offset="0.56" stop-color="#57BCC7"/>
<stop offset="0.6" stop-color="#4CC2C4"/>
<stop offset="0.64" stop-color="#48C4C3"/>
<stop offset="0.65" stop-color="#44C7C2"/>
<stop offset="0.76" stop-color="#2ADDBA"/>
<stop offset="0.86" stop-color="#1AEAB5"/>
<stop offset="0.94" stop-color="#15EFB3"/>
</linearGradient>
</defs>
</svg>
