<svg width="276" height="48" viewBox="0 0 276 48" fill="none" xmlns="http://www.w3.org/2000/svg">
<path d="M89.3473 15.5379L83.0489 33.3496C82.9904 33.525 82.8184 33.642 82.6326 33.6248H82.1545C81.9687 33.6317 81.7967 33.5216 81.7279 33.3496L77.005 20.8594L72.2889 33.3496C72.2236 33.5216 72.055 33.6351 71.8727 33.6248H71.3877C71.202 33.6351 71.0334 33.5216 70.9715 33.3496L64.6731 15.5448C64.5767 15.2696 64.68 15.0976 64.9483 15.0976H66.8987C67.0878 15.077 67.2667 15.194 67.3252 15.3728L71.8142 28.8571L76.379 16.5045C76.4478 16.3291 76.6163 16.219 76.8055 16.2294H77.2148C77.4006 16.219 77.5692 16.3325 77.6311 16.5045L82.3299 28.8571L86.7158 15.3728C86.7742 15.1905 86.9531 15.077 87.1423 15.0976H89.0618C89.3404 15.0976 89.4436 15.2696 89.3473 15.5379Z" fill="black"/>
<path d="M116.76 24.2132C116.815 29.3455 112.697 33.5525 107.565 33.6041C102.432 33.6557 98.2255 29.5415 98.1739 24.4092C98.1739 24.3439 98.1739 24.2786 98.1739 24.2132C98.1188 19.0809 102.236 14.8739 107.369 14.8223C112.501 14.7673 116.708 18.8848 116.76 24.0171C116.763 24.0825 116.763 24.1478 116.76 24.2132ZM114.183 24.2132C114.183 19.8962 111.369 16.9207 107.465 16.9207C103.564 16.9207 100.747 19.8962 100.747 24.2132C100.747 28.5302 103.561 31.5057 107.465 31.5057C111.369 31.5057 114.183 28.5302 114.183 24.2132Z" fill="black"/>
<path d="M141.373 32.5894C141.534 32.7752 141.517 33.0607 141.328 33.2224C141.232 33.3049 141.104 33.3462 140.977 33.329H139.223C139.106 33.3255 138.999 33.2636 138.937 33.1639L134.531 26.5146H129.794V32.954C129.79 33.1604 129.625 33.3255 129.419 33.329H127.709C127.503 33.3255 127.338 33.1604 127.338 32.954V15.4726C127.341 15.2662 127.506 15.1011 127.709 15.0977H134.455C139.178 15.0977 141.507 17.5778 141.507 20.8044C141.507 23.3671 140.041 25.4585 137.076 26.2153L141.373 32.5894ZM133.97 24.4231C137.682 24.4231 138.93 22.8855 138.93 20.8078C138.93 18.7302 137.682 17.1925 133.97 17.1925H129.794V24.4231H133.97Z" fill="black"/>
<path d="M170.384 14.8018H170.944C171.14 14.7915 171.306 14.9394 171.319 15.132C171.319 15.1458 171.319 15.1595 171.319 15.1733V32.954C171.33 33.1501 171.182 33.3152 170.989 33.3289C170.975 33.3289 170.962 33.3289 170.948 33.3289H169.238C169.042 33.3392 168.877 33.1913 168.863 32.9987C168.863 32.985 168.863 32.9712 168.863 32.9574V20.34L161.953 30.3431C161.887 30.4841 161.719 30.5495 161.578 30.4841C161.516 30.4566 161.468 30.405 161.437 30.3431L154.526 20.34V32.9574C154.536 33.1535 154.388 33.3186 154.196 33.3324C154.182 33.3324 154.168 33.3324 154.154 33.3324H152.445C152.249 33.3427 152.084 33.1948 152.07 33.0022C152.07 32.9884 152.07 32.9746 152.07 32.9609V15.1802C152.06 14.9841 152.207 14.819 152.4 14.8052C152.414 14.8052 152.428 14.8052 152.441 14.8052H152.995C153.181 14.8087 153.356 14.9015 153.46 15.0598L161.695 26.5592L169.937 15.0598C170.026 14.8947 170.198 14.8018 170.384 14.8018Z" fill="black"/>
<path d="M199.042 15.4726V32.954C199.038 33.1604 198.873 33.3255 198.667 33.329H196.957C196.751 33.3255 196.585 33.1604 196.582 32.954V24.9907H185.237V32.954C185.234 33.1604 185.069 33.3255 184.862 33.329H183.153C182.946 33.3255 182.781 33.1604 182.778 32.954V15.4726C182.781 15.2662 182.946 15.1011 183.153 15.0977H184.866C185.072 15.1011 185.237 15.2662 185.241 15.4726V22.8993H196.589V15.4726C196.592 15.2662 196.757 15.1011 196.964 15.0977H198.674C198.88 15.1011 199.045 15.2662 199.048 15.4726" fill="black"/>
<path d="M228.201 24.2132C228.256 29.3455 224.138 33.5525 219.006 33.6041C213.874 33.6557 209.667 29.5415 209.615 24.4092C209.615 24.3439 209.615 24.2786 209.615 24.2132C209.56 19.0809 213.678 14.8739 218.81 14.8223C223.942 14.7673 228.149 18.8848 228.201 24.0171C228.201 24.0825 228.201 24.1478 228.201 24.2132ZM225.624 24.2132C225.624 19.8962 222.811 16.9207 218.906 16.9207C215.006 16.9207 212.188 19.8962 212.188 24.2132C212.188 28.5302 215.002 31.5057 218.906 31.5057C222.811 31.5057 225.624 28.5302 225.624 24.2132Z" fill="black"/>
<path d="M251.679 31.609V32.954C251.689 33.1501 251.541 33.3152 251.349 33.329C251.335 33.329 251.321 33.329 251.307 33.329H239.151C238.944 33.3255 238.779 33.1604 238.776 32.954V15.4726C238.779 15.2662 238.944 15.1011 239.151 15.0977H240.86C241.067 15.1011 241.232 15.2662 241.232 15.4726V31.2376H251.304C251.5 31.2272 251.665 31.3751 251.679 31.5678C251.679 31.5815 251.679 31.5953 251.679 31.609Z" fill="black"/>
<path d="M275.362 31.6091V32.9541C275.372 33.1501 275.224 33.3152 275.032 33.329C275.018 33.329 275.004 33.329 274.99 33.329H261.86C261.654 33.3256 261.489 33.1605 261.485 32.9541V15.4726C261.489 15.2662 261.654 15.1011 261.86 15.0977H274.688C274.884 15.0874 275.049 15.2353 275.063 15.4279C275.063 15.4417 275.063 15.4554 275.063 15.4692V16.8142C275.073 17.0102 274.925 17.1753 274.732 17.1891C274.719 17.1891 274.705 17.1891 274.691 17.1891H263.948V22.8959H273.497C273.69 22.8821 273.859 23.03 273.869 23.2227C273.869 23.2364 273.869 23.2467 273.869 23.2605V24.6158C273.879 24.8119 273.731 24.977 273.539 24.9873C273.525 24.9873 273.511 24.9873 273.497 24.9873H263.948V31.2307H274.99C275.186 31.2204 275.351 31.3683 275.365 31.5609C275.362 31.5815 275.362 31.5953 275.362 31.6091Z" fill="black"/>
<path d="M24 48C10.7462 48 0 37.2538 0 24C0 10.7462 10.7462 0 24 0C37.2538 0 48 10.7462 48 24C47.9862 37.2504 37.2504 47.9862 24 48ZM24 1.06293C11.3344 1.06293 1.06635 11.3309 1.06635 24C1.06635 36.6691 11.3344 46.9336 24.0034 46.9336C36.6691 46.9336 46.937 36.6656 46.937 24C46.9233 11.3378 36.6622 1.08013 24 1.06293Z" fill="black"/>
<path d="M25.964 45.6545C14.0551 45.6545 4.39941 35.9988 4.39941 24.0865C4.39941 12.1777 14.0551 2.52197 25.9674 2.52197C37.8763 2.52197 47.5286 12.1777 47.532 24.0865C47.5182 35.9954 37.8728 45.6442 25.964 45.6545ZM25.964 3.45074C14.5642 3.45074 5.3213 12.6937 5.32474 24.0934C5.32474 35.4932 14.5677 44.7361 25.9674 44.7327C37.3672 44.7292 46.6101 35.4897 46.6067 24.09C46.5963 12.6937 37.3603 3.46106 25.964 3.45074Z" fill="black"/>
<path d="M27.9319 43.3051C17.368 43.3051 8.80615 34.7398 8.80615 24.1794C8.80615 13.6155 17.3714 5.05371 27.9319 5.05371C38.4923 5.05371 47.0576 13.619 47.0576 24.1794C47.0472 34.7364 38.4888 43.2948 27.9319 43.3051ZM27.9319 5.83113C17.8014 5.83113 9.58701 14.0455 9.58701 24.176C9.58701 34.3064 17.8014 42.5208 27.9319 42.5208C38.0623 42.5208 46.2767 34.3064 46.2767 24.176C46.2629 14.049 38.0588 5.84145 27.9319 5.83113Z" fill="black"/>
<path d="M29.8963 40.9587C20.6775 40.9587 13.2026 33.4873 13.2026 24.2684C13.2026 15.0496 20.674 7.57471 29.8929 7.57471C39.1118 7.57471 46.5866 15.0461 46.5866 24.265C46.5763 33.4804 39.1117 40.9484 29.8963 40.9587ZM29.8963 8.21108C21.0318 8.21108 13.8424 15.397 13.8424 24.265C13.8424 33.133 21.0283 40.3188 29.8963 40.3188C38.7609 40.3188 45.9502 33.133 45.9502 24.265C45.9365 15.4039 38.7574 8.22139 29.8963 8.21108Z" fill="black"/>
<path d="M31.8598 38.6127C23.986 38.6127 17.6016 32.2284 17.6016 24.3545C17.6016 16.4806 23.986 10.0962 31.8598 10.0962C39.7337 10.0962 46.1181 16.4806 46.1181 24.3545C46.1078 32.2249 39.7303 38.6024 31.8598 38.6127ZM31.8598 10.595C24.2612 10.595 18.1003 16.7558 18.1003 24.3545C18.1003 31.9532 24.2612 38.114 31.8598 38.114C39.4585 38.114 45.6193 31.9532 45.6193 24.3545C45.609 16.7593 39.4551 10.6019 31.8598 10.595Z" fill="black"/>
<path d="M33.8243 36.2633C27.2954 36.2633 22.0015 30.9728 22.0015 24.4439C22.0015 17.9151 27.292 12.6211 33.8209 12.6211C40.3497 12.6211 45.6437 17.9116 45.6437 24.4405C45.6368 30.9694 40.3497 36.2565 33.8243 36.2633ZM33.8243 12.9788C27.4915 12.9788 22.3592 18.1111 22.3592 24.4439C22.3592 30.7767 27.4915 35.909 33.8243 35.909C40.1571 35.909 45.2894 30.7767 45.2894 24.4439C45.286 18.1146 40.1537 12.9857 33.8243 12.9788Z" fill="black"/>
</svg>
