<svg width="276" height="48" viewBox="0 0 276 48" fill="none" xmlns="http://www.w3.org/2000/svg">
<path d="M89.3473 15.5379L83.0489 33.3496C82.9904 33.525 82.8184 33.642 82.6326 33.6248H82.1545C81.9687 33.6317 81.7967 33.5216 81.7279 33.3496L77.005 20.8594L72.2889 33.3496C72.2236 33.5216 72.055 33.6351 71.8727 33.6248H71.3877C71.202 33.6351 71.0334 33.5216 70.9715 33.3496L64.6731 15.5448C64.5767 15.2696 64.68 15.0976 64.9483 15.0976H66.8987C67.0878 15.077 67.2667 15.194 67.3252 15.3728L71.8142 28.8571L76.379 16.5045C76.4478 16.3291 76.6163 16.219 76.8055 16.2294H77.2148C77.4006 16.219 77.5692 16.3325 77.6311 16.5045L82.3299 28.8571L86.7158 15.3728C86.7742 15.1905 86.9531 15.077 87.1423 15.0976H89.0618C89.3404 15.0976 89.4436 15.2696 89.3473 15.5379Z" fill="white"/>
<path d="M116.76 24.2132C116.815 29.3455 112.697 33.5525 107.565 33.6041C102.432 33.6557 98.2255 29.5415 98.1739 24.4092C98.1739 24.3439 98.1739 24.2785 98.1739 24.2132C98.1188 19.0809 102.236 14.8739 107.369 14.8223C112.501 14.7673 116.708 18.8848 116.76 24.0171C116.763 24.0825 116.763 24.1478 116.76 24.2132ZM114.183 24.2132C114.183 19.8962 111.369 16.9207 107.465 16.9207C103.564 16.9207 100.747 19.8962 100.747 24.2132C100.747 28.5302 103.561 31.5057 107.465 31.5057C111.369 31.5057 114.183 28.5302 114.183 24.2132Z" fill="white"/>
<path d="M141.372 32.5894C141.534 32.7752 141.517 33.0607 141.327 33.2224C141.231 33.3049 141.104 33.3462 140.976 33.329H139.222C139.105 33.3255 138.999 33.2636 138.937 33.1639L134.53 26.5146H129.793V32.954C129.79 33.1604 129.625 33.3255 129.419 33.329H127.709C127.503 33.3255 127.337 33.1604 127.337 32.954V15.4726C127.341 15.2662 127.506 15.1011 127.709 15.0977H134.454C139.177 15.0977 141.506 17.5778 141.506 20.8044C141.506 23.3671 140.041 25.4585 137.076 26.2153L141.372 32.5894ZM133.969 24.4231C137.681 24.4231 138.93 22.8855 138.93 20.8078C138.93 18.7302 137.681 17.1925 133.969 17.1925H129.793V24.4231H133.969Z" fill="white"/>
<path d="M170.384 14.8013H170.944C171.14 14.791 171.306 14.9389 171.319 15.1315C171.319 15.1453 171.319 15.159 171.319 15.1728V32.9535C171.33 33.1496 171.182 33.3147 170.989 33.3284C170.975 33.3284 170.962 33.3284 170.948 33.3284H169.238C169.042 33.3388 168.877 33.1909 168.863 32.9982C168.863 32.9845 168.863 32.9707 168.863 32.9569V20.3395L161.953 30.3426C161.887 30.4836 161.719 30.549 161.578 30.4837C161.516 30.4561 161.468 30.4045 161.437 30.3426L154.526 20.3395V32.9569C154.536 33.153 154.388 33.3181 154.196 33.3319C154.182 33.3319 154.168 33.3319 154.154 33.3319H152.445C152.249 33.3422 152.084 33.1943 152.07 33.0017C152.07 32.9879 152.07 32.9742 152.07 32.9604V15.1797C152.06 14.9836 152.207 14.8185 152.4 14.8047C152.414 14.8047 152.428 14.8047 152.441 14.8047H152.995C153.181 14.8082 153.356 14.901 153.46 15.0593L161.695 26.5588L169.937 15.0593C170.026 14.8942 170.198 14.8013 170.384 14.8013Z" fill="white"/>
<path d="M199.042 15.4726V32.954C199.039 33.1604 198.874 33.3255 198.667 33.329H196.957C196.751 33.3255 196.586 33.1604 196.583 32.954V24.9907H185.238V32.954C185.234 33.1604 185.069 33.3255 184.863 33.329H183.153C182.947 33.3255 182.782 33.1604 182.778 32.954V15.4726C182.782 15.2662 182.947 15.1011 183.153 15.0977H184.866C185.073 15.1011 185.238 15.2662 185.241 15.4726V22.8993H196.589V15.4726C196.593 15.2662 196.758 15.1011 196.964 15.0977H198.674C198.88 15.1011 199.045 15.2662 199.049 15.4726" fill="white"/>
<path d="M228.201 24.2132C228.256 29.3455 224.138 33.5525 219.006 33.6041C213.874 33.6557 209.667 29.5415 209.615 24.4092C209.615 24.3439 209.615 24.2785 209.615 24.2132C209.56 19.0809 213.678 14.8739 218.81 14.8223C223.942 14.7673 228.149 18.8848 228.201 24.0171C228.201 24.0825 228.201 24.1478 228.201 24.2132ZM225.624 24.2132C225.624 19.8962 222.811 16.9207 218.906 16.9207C215.006 16.9207 212.188 19.8962 212.188 24.2132C212.188 28.5302 215.002 31.5057 218.906 31.5057C222.811 31.5057 225.624 28.5302 225.624 24.2132Z" fill="white"/>
<path d="M251.679 31.609V32.954C251.689 33.1501 251.541 33.3152 251.349 33.329C251.335 33.329 251.321 33.329 251.307 33.329H239.151C238.944 33.3255 238.779 33.1604 238.776 32.954V15.4726C238.779 15.2662 238.944 15.1011 239.151 15.0977H240.86C241.067 15.1011 241.232 15.2662 241.232 15.4726V31.2376H251.304C251.5 31.2272 251.665 31.3751 251.679 31.5678C251.679 31.5815 251.679 31.5953 251.679 31.609Z" fill="white"/>
<path d="M275.361 31.6091V32.9541C275.372 33.1501 275.224 33.3152 275.031 33.329C275.017 33.329 275.004 33.329 274.99 33.329H261.86C261.653 33.3256 261.488 33.1605 261.485 32.9541V15.4726C261.488 15.2662 261.653 15.1011 261.86 15.0977H274.687C274.883 15.0874 275.048 15.2353 275.062 15.4279C275.062 15.4417 275.062 15.4554 275.062 15.4692V16.8142C275.072 17.0102 274.924 17.1753 274.732 17.1891C274.718 17.1891 274.704 17.1891 274.691 17.1891H263.948V22.8959H273.497C273.69 22.8821 273.858 23.03 273.868 23.2227C273.868 23.2364 273.868 23.2467 273.868 23.2605V24.6158C273.879 24.8119 273.731 24.977 273.538 24.9873C273.524 24.9873 273.511 24.9873 273.497 24.9873H263.948V31.2307H274.99C275.186 31.2204 275.351 31.3683 275.365 31.5609C275.361 31.5815 275.361 31.5953 275.361 31.6091Z" fill="white"/>
<path d="M24 48C10.7462 48 0 37.2538 0 24C0 10.7462 10.7462 0 24 0C37.2538 0 48 10.7462 48 24C47.9862 37.2504 37.2504 47.9862 24 48ZM24 1.06293C11.3344 1.06293 1.06635 11.3309 1.06635 24C1.06635 36.6691 11.3344 46.9336 24.0034 46.9336C36.6691 46.9336 46.937 36.6656 46.937 24C46.9233 11.3378 36.6622 1.08013 24 1.06293Z" fill="white"/>
<path d="M25.964 45.6545C14.0551 45.6545 4.39941 35.9988 4.39941 24.0865C4.39941 12.1777 14.0551 2.52197 25.9674 2.52197C37.8763 2.52197 47.5286 12.1777 47.532 24.0865C47.5182 35.9954 37.8728 45.6442 25.964 45.6545ZM25.964 3.45074C14.5642 3.45074 5.3213 12.6937 5.32474 24.0934C5.32474 35.4932 14.5677 44.7361 25.9674 44.7327C37.3672 44.7292 46.6101 35.4897 46.6067 24.09C46.5963 12.6937 37.3603 3.46106 25.964 3.45074Z" fill="white"/>
<path d="M27.9323 43.3046C17.3685 43.3046 8.80664 34.7393 8.80664 24.1789C8.80664 13.6151 17.3719 5.05322 27.9323 5.05322C38.4928 5.05322 47.0581 13.6185 47.0581 24.1789C47.0477 34.7359 38.4893 43.2943 27.9323 43.3046ZM27.9323 5.83064C17.8019 5.83064 9.5875 14.045 9.5875 24.1755C9.5875 34.3059 17.8019 42.5203 27.9323 42.5203C38.0628 42.5203 46.2772 34.3059 46.2772 24.1755C46.2634 14.0485 38.0593 5.84096 27.9323 5.83064Z" fill="white"/>
<path d="M29.8958 40.9587C20.677 40.9587 13.2021 33.4873 13.2021 24.2684C13.2021 15.0496 20.6736 7.57471 29.8924 7.57471C39.1113 7.57471 46.5861 15.0461 46.5861 24.265C46.5758 33.4804 39.1113 40.9484 29.8958 40.9587ZM29.8958 8.21108C21.0313 8.21108 13.842 15.397 13.842 24.265C13.842 33.133 21.0278 40.3188 29.8958 40.3188C38.7604 40.3188 45.9497 33.133 45.9497 24.265C45.936 15.4039 38.757 8.22139 29.8958 8.21108Z" fill="white"/>
<path d="M31.8603 38.6123C23.9865 38.6123 17.6021 32.2279 17.6021 24.354C17.6021 16.4801 23.9865 10.0957 31.8603 10.0957C39.7342 10.0957 46.1186 16.4801 46.1186 24.354C46.1083 32.2244 39.7308 38.6019 31.8603 38.6123ZM31.8603 10.5945C24.2616 10.5945 18.1008 16.7553 18.1008 24.354C18.1008 31.9527 24.2616 38.1135 31.8603 38.1135C39.459 38.1135 45.6198 31.9527 45.6198 24.354C45.6095 16.7588 39.4556 10.6014 31.8603 10.5945Z" fill="white"/>
<path d="M33.8243 36.2633C27.2954 36.2633 22.0015 30.9728 22.0015 24.4439C22.0015 17.9151 27.292 12.6211 33.8209 12.6211C40.3497 12.6211 45.6437 17.9116 45.6437 24.4405C45.6368 30.9694 40.3497 36.2565 33.8243 36.2633ZM33.8243 12.9788C27.4915 12.9788 22.3592 18.1111 22.3592 24.4439C22.3592 30.7767 27.4915 35.909 33.8243 35.909C40.1571 35.909 45.2894 30.7767 45.2894 24.4439C45.286 18.1146 40.1537 12.9857 33.8243 12.9788Z" fill="white"/>
</svg>
