<svg width="64" height="64" viewBox="0 0 64 64" fill="none" xmlns="http://www.w3.org/2000/svg">
<path d="M4 23.2C4 16.4794 4 13.1191 5.30792 10.5521C6.4584 8.29417 8.29417 6.4584 10.5521 5.30792C13.1191 4 16.4794 4 23.2 4H40.8C47.5206 4 50.8809 4 53.4479 5.30792C55.7058 6.4584 57.5416 8.29417 58.6921 10.5521C60 13.1191 60 16.4794 60 23.2V40.8C60 47.5206 60 50.8809 58.6921 53.4479C57.5416 55.7058 55.7058 57.5416 53.4479 58.6921C50.8809 60 47.5206 60 40.8 60H23.2C16.4794 60 13.1191 60 10.5521 58.6921C8.29417 57.5416 6.4584 55.7058 5.30792 53.4479C4 50.8809 4 47.5206 4 40.8V23.2Z" fill="white"/>
<path d="M47.2723 18.68C44.4239 17.428 41.3785 16.5181 38.1947 16C37.8035 16.6642 37.3468 17.5575 37.0319 18.2682C33.6472 17.79 30.2937 17.79 26.9714 18.2682C26.6566 17.5575 26.1893 16.6642 25.7948 16C22.6075 16.5181 19.5585 17.4313 16.7104 18.6866C10.9655 26.8427 9.40818 34.7963 10.1868 42.6368C13.9971 45.3101 17.6897 46.934 21.3201 47.9967C22.2164 46.8377 23.0158 45.6057 23.7045 44.3072C22.3929 43.8389 21.1367 43.2612 19.9496 42.5903C20.2645 42.3712 20.5725 42.142 20.8702 41.9063C28.1101 45.0876 35.9763 45.0876 43.1297 41.9063C43.4307 42.142 43.7388 42.3712 44.0503 42.5903C42.8597 43.2644 41.6001 43.8423 40.2884 44.3105C40.9771 45.6057 41.773 46.8411 42.6728 48C46.3066 46.9373 50.0027 45.3135 53.813 42.6368C54.7267 33.5476 52.2522 25.6671 47.2723 18.68ZM24.6908 37.8149C22.5175 37.8149 20.7352 35.9087 20.7352 33.5875C20.7352 31.2661 22.4794 29.3566 24.6908 29.3566C26.9023 29.3566 28.6845 31.2628 28.6464 33.5875C28.65 35.9087 26.9023 37.8149 24.6908 37.8149ZM39.3091 37.8149C37.1357 37.8149 35.3533 35.9087 35.3533 33.5875C35.3533 31.2661 37.0976 29.3566 39.3091 29.3566C41.5204 29.3566 43.3027 31.2628 43.2647 33.5875C43.2647 35.9087 41.5204 37.8149 39.3091 37.8149Z" fill="#5865F2"/>
</svg>
