<svg width="41" height="40" viewBox="0 0 41 40" fill="none" xmlns="http://www.w3.org/2000/svg">
<path d="M15.2359 35C11.1922 35 7.42272 33.8239 4.25 31.7945C6.94374 31.9688 11.6976 31.5514 14.6545 28.731C10.2063 28.5269 8.20033 25.1154 7.93867 23.6575C8.31662 23.8032 10.1191 23.9782 11.1367 23.57C6.01987 22.287 5.23491 17.7967 5.40935 16.4262C6.36875 17.0969 7.99682 17.3301 8.63642 17.2718C3.86849 13.8603 5.58378 8.72845 6.42689 7.62044C9.84853 12.3608 14.9765 15.0232 21.3205 15.1713C21.2009 14.6467 21.1377 14.1005 21.1377 13.5396C21.1377 9.51365 24.3918 6.25 28.4059 6.25C30.5032 6.25 32.393 7.14094 33.7196 8.56605C35.1211 8.23763 37.2304 7.46883 38.2615 6.80401C37.7418 8.67013 36.1237 10.2269 35.1449 10.8038C35.153 10.8235 35.1369 10.7841 35.1449 10.8038C36.0047 10.6738 38.331 10.2267 39.25 9.60319C38.7955 10.6516 37.08 12.3947 35.6721 13.3705C35.9341 24.9226 27.0956 35 15.2359 35Z" fill="#47ACDF"/>
</svg>
