<svg width="65" height="64" viewBox="0 0 65 64" fill="none" xmlns="http://www.w3.org/2000/svg">
<path d="M4.68896 19.8822C4.94602 15.9247 8.12785 12.8231 12.0889 12.6269C17.8247 12.3427 26.0229 12 32.2 12C38.377 12 46.5752 12.3427 52.311 12.6269C56.2721 12.8231 59.4539 15.9247 59.7109 19.8822C59.9572 23.6739 60.2 28.3393 60.2 32C60.2 35.6607 59.9572 40.3262 59.7109 44.1178C59.4539 48.0753 56.2721 51.1769 52.311 51.3731C46.5752 51.6573 38.377 52 32.2 52C26.0229 52 17.8247 51.6573 12.0889 51.3731C8.12785 51.1769 4.94602 48.0753 4.68896 44.1178C4.44268 40.3261 4.19995 35.6607 4.19995 32C4.19995 28.3393 4.44268 23.6739 4.68896 19.8822Z" fill="#FC0D1B"/>
<path d="M26.2 24V40L42.2 32L26.2 24Z" fill="white"/>
</svg>
