<svg width="156" height="156" viewBox="0 0 156 156" fill="none" xmlns="http://www.w3.org/2000/svg">
<g clip-path="url(#clip0_16873_6150)">
<mask id="mask0_16873_6150" style="mask-type:luminance" maskUnits="userSpaceOnUse" x="0" y="-1" width="157" height="157">
<path d="M78.0059 155.941C121.084 155.941 156.006 121.019 156.006 77.9409C156.006 34.8627 121.084 -0.059082 78.0059 -0.059082C34.9277 -0.059082 0.00592041 34.8627 0.00592041 77.9409C0.00592041 121.019 34.9277 155.941 78.0059 155.941Z" fill="white"/>
</mask>
<g mask="url(#mask0_16873_6150)">
<path d="M-561.47 173.172C-541.905 195.254 -519.799 215.056 -492.617 225.763C-456.938 239.85 -410.44 233.445 -388.865 201.743C-382.448 192.288 -378.578 181.315 -371.989 172.002C-349.594 140.347 -302.421 137.298 -265.992 150.576C-229.562 163.853 -198.983 189.41 -164.072 206.281C-142.291 216.799 -117.254 223.896 -92.8849 221.29C-66.5658 218.483 -47.509 198.049 -27.0576 182.721C-7.62265 168.155 13.4905 152.969 37.7591 152.171C59.2978 151.462 80.0328 162.719 94.5219 178.667C109.011 194.616 117.946 214.861 124.41 235.395C148.277 311.409 141.34 392.163 150.682 470.293C155.072 507.071 166.808 541.497 175.104 576.946C184.312 615.717 200.718 652.414 223.47 685.13C241.788 711.313 264.727 734.045 282.939 760.317C314.801 806.284 342.284 872.773 351.975 927.728C360.738 977.458 324.61 1028.57 276.758 1044.69C234.307 1059 198.362 1040.37 156.089 1046.75C131.59 1050.44 107.811 1058.35 83.1705 1060.89C52.9396 1064.02 17.1718 1056.97 -12.7813 1052.24C-51.6986 1046.09 -93.925 1021.26 -119.671 991.439C-144.111 963.123 -177.935 943.168 -217.845 948.894C-229.468 950.572 -240.518 954.886 -251.526 958.987C-315.15 982.694 -462.25 1002.28 -501.067 923.532C-528.019 868.838 -482.649 835.132 -453.895 798.578C-425.531 762.533 -443.377 696.788 -473.625 667.568C-516.986 625.69 -567.816 651.655 -599.755 693.036C-661.735 773.323 -670.451 891.02 -620.98 979.568C-604.825 1008.48 -580.722 1035.78 -548.405 1043.01C-522.334 1048.84 -495.483 1040.76 -469.223 1035.75C-362.795 1015.44 -252.224 1045.94 -144.974 1030.53C-111.587 1025.73 -78.5732 1016.48 -44.8441 1016.94C-6.58267 1017.47 24.7473 1030.43 58.9196 1044.71C92.2351 1058.62 122.696 1043.82 156.307 1034.76C181.052 1028.11 206.396 1023.92 231.967 1022.27C244.046 1021.49 256.744 1021.09 267.168 1014.95C282.892 1005.66 288.937 985.944 290.804 967.768C294.604 931.066 286.077 894.926 286.721 858.319C287.182 833.194 296.087 814.722 302.823 791.363C317.395 740.823 283.14 669.878 348.914 644.983C372.74 635.966 388.239 611.804 399.088 589.503C421.643 543.164 421.377 485.314 394.473 441.356C369.566 400.637 344.447 372.273 340.464 322.666L328.605 174.833C324.027 117.806 319.449 60.7752 314.872 3.74068L-620.525 -30.7271C-619.935 -30.7271 -612.016 65.3311 -610.527 74.2066C-605.522 104.089 -598.402 127.843 -579.15 151.988C-573.454 159.138 -567.586 166.264 -561.47 173.172Z" fill="url(#paint0_linear_16873_6150)"/>
<g filter="url(#filter0_d_16873_6150)">
<path d="M-518.676 134.237C-506.474 145.624 -489.763 153.902 -476.237 157.572C-447.921 165.254 -415.616 159.345 -392.624 140.95C-371.942 124.404 -358.9 100.177 -335.684 86.3614C-286.183 56.9282 -238.237 66.5482 -198.463 105.726C-159.309 144.294 -104.313 197.866 -48.2654 156.307C-31.6549 143.993 -19.0332 127.211 -6.08633 111.091C5.08774 97.1869 16.7523 79.241 33.7823 71.9728C54.2455 63.2392 72.6464 79.6546 85.1914 94.8114C135.153 155.143 137.617 245.452 190.462 303.272C207.994 322.459 232.139 337.545 258.121 337.061C271.221 336.83 283.902 332.706 296.353 328.622C303.68 326.217 311.297 323.641 316.721 318.169C328.268 306.511 315.54 287.655 314.358 273.668C312.68 254.091 311.214 234.491 309.631 214.908C306.404 174.726 303.18 134.544 299.957 94.3623C299.337 86.6273 291.761 -37.5995 289.362 -37.6881L-557.41 -68.894C-561.996 -60.4381 -553.936 -30.6504 -553.026 -20.6463C-551.732 -6.41722 -551.295 7.91232 -547.347 21.6037C-539.075 50.3869 -541.243 81.3328 -534.347 109.649C-532.155 118.814 -526.293 127.134 -518.676 134.237Z" fill="url(#paint1_linear_16873_6150)"/>
</g>
<g filter="url(#filter1_d_16873_6150)">
<path d="M-240.618 136.831C-226.614 145.47 -210.446 150.635 -194.019 150.836C-173.828 151.09 -153.394 143.532 -139.13 129.232C-131.259 121.343 -125.415 111.706 -119.63 102.174C-106.748 80.8603 -94.9177 51.1198 -77.5096 33.3748C-63.2273 18.7794 -40.82 6.42345 -20.8 2.48209C19.7482 -5.48927 51.3736 9.45482 80.4936 34.6866C108.68 59.0912 159.38 97.5357 197.955 73.3439C208.922 66.4657 216.273 55.1971 222.867 44.0526C229.462 32.908 235.867 21.2789 245.706 12.8821C296.802 -30.6443 351.124 43.7925 371.197 83.2003C386.395 113.059 397.126 144.95 410.871 175.5C419.54 194.752 430.211 214.358 448.098 225.574C455.095 229.958 463.669 232.919 471.599 230.614C485.869 226.478 490.342 208.822 492.422 194.102C497.061 161.253 498.284 135.011 495.264 102.594C491.955 67.0448 485.574 31.9094 482.353 -3.63972C481.762 -9.84427 476.403 -99.2134 473.59 -99.4852L374.991 -108.827L150.812 -130.1L-91.975 -153.11C-143.089 -157.956 -195.035 -166.045 -246.374 -167.741C-269.236 -168.497 -315.392 -161.418 -320.208 -133.043C-323.275 -114.979 -320.799 -93.907 -321.271 -75.5002C-321.791 -55.9588 -321.862 -36.2934 -318.441 -17.0002C-316.385 -5.35928 -313.123 6.04527 -309.831 17.3907C-297.818 59.0912 -283.991 103.557 -249.901 130.355C-246.932 132.687 -243.833 134.85 -240.618 136.831Z" fill="url(#paint2_linear_16873_6150)"/>
</g>
</g>
<g filter="url(#filter2_d_16873_6150)">
<path d="M66.2586 85.4571C64.7481 78.8047 61.3264 72.7387 56.4143 68.005C51.5021 63.2714 45.3137 60.0764 38.61 58.813V73.2016C41.356 74.0972 43.8886 75.5479 46.0503 77.4636C48.212 79.3793 49.9566 81.7191 51.1758 84.3375C52.395 86.956 53.0627 89.7973 53.1374 92.6847C53.2121 95.5721 52.6922 98.4441 51.61 101.122C50.4755 103.962 48.7187 106.512 46.469 108.584C44.2193 110.656 41.5338 112.197 38.61 113.094V113.454H60.6332C62.2176 111.285 63.5442 108.939 64.5864 106.464C67.2883 99.7996 67.8721 92.4649 66.2586 85.4571Z" fill="url(#paint3_linear_16873_6150)"/>
</g>
<g filter="url(#filter3_d_16873_6150)">
<path d="M108.633 77.5745C111.14 75.3269 114.146 73.7067 117.402 72.8473V58.5591C112.169 59.3753 107.189 61.3631 102.832 64.3739C98.4753 67.3848 94.855 71.3409 92.2415 75.9469C89.628 80.553 88.0887 85.6899 87.7387 90.9742C87.3887 96.2585 88.2369 101.554 90.22 106.464C91.2638 108.94 92.5925 111.286 94.1791 113.455H117.325C112.052 112.09 107.522 108.718 104.701 104.059C101.88 99.3999 100.993 93.8228 102.227 88.5182C103.195 84.3018 105.43 80.4828 108.633 77.5745Z" fill="url(#paint4_linear_16873_6150)"/>
</g>
<g filter="url(#filter4_d_16873_6150)">
<path d="M84.7364 55.386L87.0232 57.8264C87.4003 58.2267 87.8561 58.5447 88.3619 58.7605C88.8678 58.9762 89.4128 59.085 89.9628 59.08C90.5127 59.075 91.0556 58.9563 91.5575 58.7314C92.0594 58.5066 92.5093 58.1803 92.8791 57.7732C93.6579 56.9235 94.0939 55.815 94.1027 54.6623C94.1114 53.5097 93.6922 52.3947 92.9264 51.5332L80.405 38.1846C80.0311 37.7723 79.5751 37.4429 79.0662 37.2174C78.5574 36.992 78.007 36.8755 77.4505 36.8755C76.8939 36.8755 76.3435 36.992 75.8347 37.2174C75.3258 37.4429 74.8698 37.7723 74.4959 38.1846L61.9805 51.5332C61.217 52.3969 60.801 53.5131 60.813 54.6657C60.825 55.8184 61.2641 56.9257 62.0455 57.7732C62.4152 58.1803 62.8652 58.5066 63.367 58.7314C63.8689 58.9563 64.4119 59.075 64.9618 59.08C65.5117 59.085 66.0567 58.9762 66.5626 58.7605C67.0685 58.5447 67.5243 58.2267 67.9014 57.8264L70.1882 55.386C71.0028 54.518 71.9652 53.8017 73.0305 53.2705V113.455H81.8941V53.2705C82.9594 53.8017 83.9218 54.518 84.7364 55.386Z" fill="url(#paint5_linear_16873_6150)"/>
</g>
<mask id="mask1_16873_6150" style="mask-type:luminance" maskUnits="userSpaceOnUse" x="87" y="58" width="31" height="56">
<path d="M108.822 77.5745C111.328 75.3249 114.334 73.7044 117.591 72.8473V58.5591C111.647 59.3967 106.022 61.7595 101.263 65.4173C96.5042 69.075 92.7737 73.903 90.4352 79.431C88.0967 84.959 87.2298 90.9984 87.919 96.9609C88.6083 102.924 90.8301 108.606 94.3682 113.455H117.508C112.238 112.086 107.711 108.713 104.89 104.055C102.07 99.3974 101.18 93.8225 102.41 88.5182C103.383 84.3022 105.62 80.4839 108.822 77.5745Z" fill="white"/>
</mask>
<g mask="url(#mask1_16873_6150)">
<g opacity="0.5" filter="url(#filter5_d_16873_6150)">
<path d="M160.775 64.6573C155.251 58.9466 149.439 53.5228 143.36 48.4073C135.679 41.9073 124.948 35.6201 116.468 40.566C112.426 42.9296 110.057 47.3614 108.509 51.7932C103.19 67.1569 103.74 85.8473 92.9736 98.5932C81.4509 112.237 63.2568 119.151 45.7364 120.829C27.6309 122.566 8.03047 119.972 -7.60498 129.025C-24.2745 138.704 -31.4482 158.665 -38.6159 176.682C-44.4777 191.455 -54.7418 222.389 -72.5813 225.993C-89.6704 229.45 -113.626 220.752 -128.647 212.81C-138.042 207.841 -146.817 201.76 -155.238 195.278C-161.046 190.816 -171.228 185.008 -175.547 179.288L-94.4863 286.703C-94.4272 286.78 -40.2527 246.433 -37.1032 244.093L94.445 146.404L148.85 106.003C155.167 101.311 161.726 96.8264 167.865 91.8982C175.459 85.7941 175.654 82.1719 169.201 74.171C166.542 70.9091 163.717 67.736 160.775 64.6573Z" fill="url(#paint6_linear_16873_6150)"/>
</g>
</g>
<mask id="mask2_16873_6150" style="mask-type:luminance" maskUnits="userSpaceOnUse" x="60" y="36" width="35" height="78">
<path d="M84.7364 55.386L87.0232 57.8264C87.4003 58.2267 87.8561 58.5447 88.3619 58.7605C88.8678 58.9762 89.4128 59.085 89.9628 59.08C90.5127 59.075 91.0556 58.9563 91.5575 58.7314C92.0594 58.5066 92.5093 58.1803 92.8791 57.7732C93.6579 56.9235 94.0939 55.815 94.1027 54.6623C94.1114 53.5097 93.6922 52.3947 92.9264 51.5332L80.405 38.1846C80.0311 37.7723 79.5751 37.4429 79.0662 37.2174C78.5574 36.992 78.007 36.8755 77.4505 36.8755C76.8939 36.8755 76.3435 36.992 75.8347 37.2174C75.3258 37.4429 74.8698 37.7723 74.4959 38.1846L61.9805 51.5332C61.217 52.3969 60.801 53.5131 60.813 54.6657C60.825 55.8184 61.2641 56.9257 62.0455 57.7732C62.4152 58.1803 62.8652 58.5066 63.367 58.7314C63.8689 58.9563 64.4119 59.075 64.9618 59.08C65.5117 59.085 66.0567 58.9762 66.5626 58.7605C67.0685 58.5447 67.5243 58.2267 67.9014 57.8264L70.1882 55.386C71.0028 54.518 71.9652 53.8017 73.0305 53.2705V113.455H81.8941V53.2705C82.9594 53.8017 83.9218 54.518 84.7364 55.386Z" fill="white"/>
</mask>
<g mask="url(#mask2_16873_6150)">
<g filter="url(#filter6_d_16873_6150)">
<path d="M113.147 -15.2807C105.26 -16.2299 97.3296 -16.7723 89.3868 -16.9057C79.3414 -17.1243 67.0327 -15.2157 63.5759 -6.03294C61.9272 -1.6543 62.8845 3.27979 64.4977 7.71752C70.0404 22.9984 82.2723 37.1566 81.9591 53.8084C81.6223 71.6598 71.8604 88.5066 59.3273 100.863C46.3745 113.65 29.5454 124.003 23.1045 140.885C16.2618 158.896 23.2818 178.91 29.0963 197.423C33.8236 212.562 45.4113 243.065 33.8236 257.105C22.7441 270.56 -1.32957 278.927 -17.9991 282.236C-28.4227 284.304 -39.0709 285.12 -49.7132 285.421C-57.0346 285.622 -68.6223 287.537 -75.5596 285.823L55.1259 318.028C55.2204 318.028 71.8073 252.573 72.7764 248.767C86.2688 195.837 99.7573 142.91 113.242 89.9839L130 24.3221C131.944 16.6934 134.201 9.07661 135.856 1.38297C137.906 -8.14248 135.767 -11.0793 125.734 -13.1948C121.574 -14.0693 117.378 -14.7725 113.147 -15.2807Z" fill="url(#paint7_linear_16873_6150)"/>
</g>
</g>
<mask id="mask3_16873_6150" style="mask-type:luminance" maskUnits="userSpaceOnUse" x="38" y="58" width="29" height="56">
<path d="M66.0578 85.4571C64.5472 78.8047 61.1255 72.7387 56.2134 68.005C51.3013 63.2714 45.1129 60.0764 38.4091 58.813V73.2016C41.8669 74.3243 44.9736 76.3263 47.4246 79.0113C49.8756 81.6964 51.5866 84.9724 52.39 88.518C53.6146 93.6238 52.8514 99.0043 50.2551 103.568C47.6588 108.132 43.4238 111.537 38.4091 113.094V113.454H60.4323C62.0251 111.287 63.3597 108.941 64.4091 106.464C67.1001 99.7964 67.6757 92.4627 66.0578 85.4571Z" fill="white"/>
</mask>
<g mask="url(#mask3_16873_6150)">
<g filter="url(#filter7_d_16873_6150)">
<path d="M245.481 -109.821C238.81 -114.132 231.919 -118.093 224.835 -121.686C215.877 -126.295 204 -129.959 196.867 -123.217C193.47 -120.002 192.14 -115.145 191.673 -110.453C189.965 -94.2857 194.764 -76.1802 187.176 -61.3484C179.045 -45.447 162.902 -34.5743 146.226 -28.9547C128.99 -23.152 109.318 -21.2256 96.1409 -8.86383C82.1009 4.32526 79.6486 25.4089 76.765 44.5839C74.4014 60.2725 71.4468 92.7607 54.9014 100.33C39.0414 107.575 13.7386 104.549 -2.69455 100.224C-13 97.4998 -22.9036 93.5998 -32.6064 89.2271C-39.2777 86.2016 -50.5109 82.8571 -56.0182 78.2657L47.3555 164.414C47.4323 164.473 91.0177 112.875 93.5527 109.879C128.862 68.2085 164.166 26.5336 199.467 -15.1452C214.071 -32.38 228.67 -49.6149 243.265 -66.8497C248.353 -72.8534 253.725 -78.7152 258.582 -84.9079C264.591 -92.5897 263.959 -96.1352 255.864 -102.446C252.525 -105.04 249.05 -107.492 245.481 -109.821Z" fill="url(#paint8_linear_16873_6150)"/>
</g>
</g>
</g>
<defs>
<filter id="filter0_d_16873_6150" x="-582.812" y="-84.894" width="920.34" height="445.966" filterUnits="userSpaceOnUse" color-interpolation-filters="sRGB">
<feFlood flood-opacity="0" result="BackgroundImageFix"/>
<feColorMatrix in="SourceAlpha" type="matrix" values="0 0 0 0 0 0 0 0 0 0 0 0 0 0 0 0 0 0 127 0" result="hardAlpha"/>
<feOffset dx="-4" dy="4"/>
<feGaussianBlur stdDeviation="10"/>
<feColorMatrix type="matrix" values="0 0 0 0 0 0 0 0 0 0 0 0 0 0 0 0 0 0 0.12 0"/>
<feBlend mode="normal" in2="BackgroundImageFix" result="effect1_dropShadow_16873_6150"/>
<feBlend mode="normal" in="SourceGraphic" in2="effect1_dropShadow_16873_6150" result="shape"/>
</filter>
<filter id="filter1_d_16873_6150" x="-345.771" y="-183.794" width="858.687" height="439.211" filterUnits="userSpaceOnUse" color-interpolation-filters="sRGB">
<feFlood flood-opacity="0" result="BackgroundImageFix"/>
<feColorMatrix in="SourceAlpha" type="matrix" values="0 0 0 0 0 0 0 0 0 0 0 0 0 0 0 0 0 0 127 0" result="hardAlpha"/>
<feOffset dx="-4" dy="4"/>
<feGaussianBlur stdDeviation="10"/>
<feColorMatrix type="matrix" values="0 0 0 0 0 0 0 0 0 0 0 0 0 0 0 0 0 0 0.12 0"/>
<feBlend mode="normal" in2="BackgroundImageFix" result="effect1_dropShadow_16873_6150"/>
<feBlend mode="normal" in="SourceGraphic" in2="effect1_dropShadow_16873_6150" result="shape"/>
</filter>
<filter id="filter2_d_16873_6150" x="23.61" y="47.813" width="60.5412" height="86.6416" filterUnits="userSpaceOnUse" color-interpolation-filters="sRGB">
<feFlood flood-opacity="0" result="BackgroundImageFix"/>
<feColorMatrix in="SourceAlpha" type="matrix" values="0 0 0 0 0 0 0 0 0 0 0 0 0 0 0 0 0 0 127 0" result="hardAlpha"/>
<feOffset dx="1" dy="5"/>
<feGaussianBlur stdDeviation="8"/>
<feColorMatrix type="matrix" values="0 0 0 0 0 0 0 0 0 0 0 0 0 0 0 0 0 0 0.4 0"/>
<feBlend mode="normal" in2="BackgroundImageFix" result="effect1_dropShadow_16873_6150"/>
<feBlend mode="normal" in="SourceGraphic" in2="effect1_dropShadow_16873_6150" result="shape"/>
</filter>
<filter id="filter3_d_16873_6150" x="72.6618" y="47.5591" width="61.7401" height="86.8955" filterUnits="userSpaceOnUse" color-interpolation-filters="sRGB">
<feFlood flood-opacity="0" result="BackgroundImageFix"/>
<feColorMatrix in="SourceAlpha" type="matrix" values="0 0 0 0 0 0 0 0 0 0 0 0 0 0 0 0 0 0 127 0" result="hardAlpha"/>
<feOffset dx="1" dy="5"/>
<feGaussianBlur stdDeviation="8"/>
<feColorMatrix type="matrix" values="0 0 0 0 0 0 0 0 0 0 0 0 0 0 0 0 0 0 0.4 0"/>
<feBlend mode="normal" in2="BackgroundImageFix" result="effect1_dropShadow_16873_6150"/>
<feBlend mode="normal" in="SourceGraphic" in2="effect1_dropShadow_16873_6150" result="shape"/>
</filter>
<filter id="filter4_d_16873_6150" x="45.8127" y="25.8755" width="65.29" height="108.579" filterUnits="userSpaceOnUse" color-interpolation-filters="sRGB">
<feFlood flood-opacity="0" result="BackgroundImageFix"/>
<feColorMatrix in="SourceAlpha" type="matrix" values="0 0 0 0 0 0 0 0 0 0 0 0 0 0 0 0 0 0 127 0" result="hardAlpha"/>
<feOffset dx="1" dy="5"/>
<feGaussianBlur stdDeviation="8"/>
<feColorMatrix type="matrix" values="0 0 0 0 0 0 0 0 0 0 0 0 0 0 0 0 0 0 0.4 0"/>
<feBlend mode="normal" in2="BackgroundImageFix" result="effect1_dropShadow_16873_6150"/>
<feBlend mode="normal" in="SourceGraphic" in2="effect1_dropShadow_16873_6150" result="shape"/>
</filter>
<filter id="filter5_d_16873_6150" x="-192.767" y="29.9205" width="373.363" height="271.913" filterUnits="userSpaceOnUse" color-interpolation-filters="sRGB">
<feFlood flood-opacity="0" result="BackgroundImageFix"/>
<feColorMatrix in="SourceAlpha" type="matrix" values="0 0 0 0 0 0 0 0 0 0 0 0 0 0 0 0 0 0 127 0" result="hardAlpha"/>
<feOffset dx="-5.22" dy="3.13"/>
<feGaussianBlur stdDeviation="6"/>
<feColorMatrix type="matrix" values="0 0 0 0 0 0 0 0 0 0 0 0 0 0 0 0 0 0 0.12 0"/>
<feBlend mode="normal" in2="BackgroundImageFix" result="effect1_dropShadow_16873_6150"/>
<feBlend mode="normal" in="SourceGraphic" in2="effect1_dropShadow_16873_6150" result="shape"/>
</filter>
<filter id="filter6_d_16873_6150" x="-96.7796" y="-29.7919" width="244.121" height="366.949" filterUnits="userSpaceOnUse" color-interpolation-filters="sRGB">
<feFlood flood-opacity="0" result="BackgroundImageFix"/>
<feColorMatrix in="SourceAlpha" type="matrix" values="0 0 0 0 0 0 0 0 0 0 0 0 0 0 0 0 0 0 127 0" result="hardAlpha"/>
<feOffset dx="-5.22" dy="3.13"/>
<feGaussianBlur stdDeviation="8"/>
<feColorMatrix type="matrix" values="0 0 0 0 0 0 0 0 0 0 0 0 0 0 0 0 0 0 0.08 0"/>
<feBlend mode="normal" in2="BackgroundImageFix" result="effect1_dropShadow_16873_6150"/>
<feBlend mode="normal" in="SourceGraphic" in2="effect1_dropShadow_16873_6150" result="shape"/>
</filter>
<filter id="filter7_d_16873_6150" x="-77.2382" y="-139.788" width="350.605" height="323.333" filterUnits="userSpaceOnUse" color-interpolation-filters="sRGB">
<feFlood flood-opacity="0" result="BackgroundImageFix"/>
<feColorMatrix in="SourceAlpha" type="matrix" values="0 0 0 0 0 0 0 0 0 0 0 0 0 0 0 0 0 0 127 0" result="hardAlpha"/>
<feOffset dx="-5.22" dy="3.13"/>
<feGaussianBlur stdDeviation="8"/>
<feColorMatrix type="matrix" values="0 0 0 0 0 0 0 0 0 0 0 0 0 0 0 0 0 0 0.08 0"/>
<feBlend mode="normal" in2="BackgroundImageFix" result="effect1_dropShadow_16873_6150"/>
<feBlend mode="normal" in="SourceGraphic" in2="effect1_dropShadow_16873_6150" result="shape"/>
</filter>
<linearGradient id="paint0_linear_16873_6150" x1="33" y1="146" x2="84" y2="62.0002" gradientUnits="userSpaceOnUse">
<stop stop-color="#F078F0"/>
<stop offset="0.860946" stop-color="#FC8DEA"/>
</linearGradient>
<linearGradient id="paint1_linear_16873_6150" x1="62" y1="110.5" x2="110.5" y2="32.0001" gradientUnits="userSpaceOnUse">
<stop stop-color="#FD8FD8"/>
<stop offset="0.884618" stop-color="#F99DCB"/>
</linearGradient>
<linearGradient id="paint2_linear_16873_6150" x1="88.0001" y1="54.0002" x2="127" y2="4.00026" gradientUnits="userSpaceOnUse">
<stop stop-color="#F895B6"/>
<stop offset="1" stop-color="#FCA9B7"/>
</linearGradient>
<linearGradient id="paint3_linear_16873_6150" x1="38.4091" y1="58.7952" x2="62.9318" y2="111.977" gradientUnits="userSpaceOnUse">
<stop stop-color="white"/>
<stop offset="1" stop-color="#FFE0F5"/>
</linearGradient>
<linearGradient id="paint4_linear_16873_6150" x1="117.591" y1="63.5227" x2="85.9773" y2="97.7954" gradientUnits="userSpaceOnUse">
<stop stop-color="#FFE0F5"/>
<stop offset="1" stop-color="white"/>
</linearGradient>
<linearGradient id="paint5_linear_16873_6150" x1="81.8409" y1="34.2728" x2="70.9091" y2="79.4774" gradientUnits="userSpaceOnUse">
<stop stop-color="#FFE0F5"/>
<stop offset="1" stop-color="white"/>
</linearGradient>
<linearGradient id="paint6_linear_16873_6150" x1="-15.1851" y1="115.822" x2="25.6159" y2="165.987" gradientUnits="userSpaceOnUse">
<stop stop-color="white"/>
<stop offset="1" stop-color="#FAFBFF"/>
</linearGradient>
<linearGradient id="paint7_linear_16873_6150" x1="20.1384" y1="137.595" x2="83.5134" y2="150.834" gradientUnits="userSpaceOnUse">
<stop stop-color="white"/>
<stop offset="1" stop-color="#FAFBFF"/>
</linearGradient>
<linearGradient id="paint8_linear_16873_6150" x1="86.9438" y1="-19.0809" x2="138.074" y2="20.5039" gradientUnits="userSpaceOnUse">
<stop stop-color="white"/>
<stop offset="1" stop-color="#FAFBFF"/>
</linearGradient>
<clipPath id="clip0_16873_6150">
<rect width="156" height="156" fill="white"/>
</clipPath>
</defs>
</svg>
