<svg width="156" height="156" viewBox="0 0 156 156" fill="none" xmlns="http://www.w3.org/2000/svg">
<g clip-path="url(#clip0_16873_6220)">
<mask id="mask0_16873_6220" style="mask-type:luminance" maskUnits="userSpaceOnUse" x="0" y="0" width="156" height="156">
<path d="M78.1522 155.647C120.826 155.647 155.421 120.923 155.421 78.0881C155.421 35.2533 120.826 0.528809 78.1522 0.528809C35.4781 0.528809 0.883911 35.2533 0.883911 78.0881C0.883911 120.923 35.4781 155.647 78.1522 155.647Z" fill="white"/>
</mask>
<g mask="url(#mask0_16873_6220)">
<path d="M-318.855 131.575C-301.294 151.453 -281.491 169.279 -257.11 178.939C-225.114 191.613 -183.419 185.861 -164.037 157.311C-158.283 148.82 -154.812 138.92 -148.905 130.541C-128.851 102.05 -86.5464 99.2998 -53.8537 111.257C-21.161 123.214 6.21655 146.211 37.5278 161.394C57.0556 170.866 79.5102 177.259 101.362 174.908C124.964 172.382 142.057 153.985 160.396 140.189C177.822 127.08 196.759 113.413 218.523 112.691C237.84 112.05 256.431 122.186 269.45 136.54C282.468 150.894 290.458 169.121 296.254 187.629C317.631 256.011 311.415 328.699 319.785 399.031C323.707 432.135 334.244 463.129 341.69 495.04C349.948 529.942 364.664 562.976 385.071 592.424C401.514 615.992 422.066 636.457 438.398 660.101C466.97 701.477 491.619 761.321 500.306 810.783C508.168 855.55 475.768 901.551 432.855 916.07C394.806 928.944 362.552 912.18 324.638 917.921C302.669 921.241 281.321 928.362 259.247 930.654C232.139 933.468 200.06 927.128 173.198 922.862C138.299 917.327 100.431 894.982 77.3444 868.136C55.4283 842.641 25.0946 824.656 -10.7005 829.856C-21.12 831.366 -31.0302 835.25 -40.8995 838.94C-97.9551 860.286 -229.873 877.913 -264.685 807.029C-288.855 757.796 -248.166 727.454 -222.38 694.55C-196.94 662.087 -212.944 602.889 -240.076 576.619C-278.962 538.92 -324.544 562.294 -353.186 599.534C-408.767 671.805 -416.587 777.756 -372.222 857.477C-357.735 883.507 -336.117 908.079 -307.136 914.583C-283.756 919.836 -259.674 912.562 -236.142 908.055C-140.699 889.776 -41.5376 917.233 54.638 903.355C84.5795 899.03 114.187 890.71 144.433 891.139C178.747 891.621 206.845 903.284 237.506 916.123C267.36 928.644 294.702 915.33 324.843 907.174C347.035 901.169 369.768 897.392 392.704 895.899C403.539 895.194 414.948 894.853 424.273 889.312C438.375 880.945 443.795 863.194 445.481 846.836C448.894 813.803 441.219 781.269 441.822 748.319C442.232 725.703 450.222 709.069 456.263 688.046C469.335 642.55 438.609 578.687 497.584 556.277C518.95 548.163 532.853 526.411 542.581 506.333C562.806 464.616 562.572 412.545 538.443 372.955C516.099 336.308 493.575 310.767 490.004 266.135C486.457 221.781 482.905 177.425 479.35 133.068C475.249 81.7334 471.151 30.3974 467.058 -20.9406L-371.772 -51.9702C-371.221 -51.9702 -364.162 34.4967 -362.804 42.4876C-358.314 69.3866 -351.934 90.7742 -334.665 112.508C-329.608 118.936 -324.345 125.359 -318.855 131.575Z" fill="url(#paint0_linear_16873_6220)"/>
<g filter="url(#filter0_d_16873_6220)">
<path d="M-329.128 95.2865C-317.04 106.609 -300.486 114.841 -287.087 118.49C-259.036 126.128 -227.034 120.282 -204.258 101.961C-183.77 85.5093 -170.851 61.4189 -147.852 47.6815C-98.8156 18.4146 -51.319 27.9803 -11.918 66.9362C26.8683 105.287 81.3658 158.556 136.87 117.232C153.325 104.987 165.828 88.3003 178.66 72.2713C189.723 58.4458 201.278 40.6013 218.148 33.3742C238.42 24.6899 256.648 41.0126 269.075 56.0838C318.568 116.075 321.009 205.873 373.358 263.367C390.726 282.445 414.644 297.446 440.382 296.964C453.36 296.735 465.922 292.634 478.256 288.574C485.514 286.182 493.06 283.621 498.433 278.18C509.871 266.587 497.262 247.837 496.092 233.93C494.429 214.463 492.978 194.974 491.409 175.502C488.217 135.547 485.022 95.592 481.826 55.6372C481.212 47.9459 473.707 -75.579 471.331 -75.6672L-367.499 -106.697C-372.041 -98.2886 -364.057 -68.6692 -363.155 -58.7216C-361.873 -44.5729 -361.44 -30.3244 -357.53 -16.7103C-349.335 11.9102 -351.483 42.6813 -344.652 70.8377C-342.48 79.9509 -336.673 88.2239 -329.128 95.2865Z" fill="url(#paint1_linear_16873_6220)"/>
</g>
<g filter="url(#filter1_d_16873_6220)">
<path d="M-282.556 136.058C-268.683 144.648 -252.667 149.784 -236.394 149.983C-216.392 150.236 -196.15 142.721 -182.02 128.502C-174.222 120.658 -168.433 111.074 -162.702 101.597C-149.941 80.4032 -138.222 50.8308 -120.978 33.186C-106.788 18.673 -84.6147 6.38693 -64.7824 2.46783C-24.6322 -5.4585 6.69656 9.40117 35.5434 34.4904C63.4653 58.7747 113.69 96.9845 151.902 72.9293C162.767 66.09 170.049 54.885 176.581 43.8034C183.114 32.7218 189.459 21.1585 199.206 12.8091C249.822 -30.4714 303.635 43.5449 323.526 82.73C338.576 112.42 349.206 144.131 362.821 174.509C371.409 193.652 381.98 213.147 399.7 224.299C406.63 228.659 415.124 231.603 422.979 229.311C437.116 225.198 441.547 207.642 443.608 193.005C448.203 160.342 449.415 134.248 446.423 102.014C443.122 66.6658 436.823 31.7289 433.633 -3.6194C433.048 -9.78888 427.739 -98.6531 424.952 -98.9234L327.278 -108.213L105.202 -129.365L-135.307 -152.245C-185.941 -157.063 -237.401 -165.107 -288.258 -166.794C-310.905 -167.546 -356.628 -160.507 -361.399 -132.291C-364.437 -114.329 -361.984 -93.3767 -362.453 -75.0739C-362.968 -55.6429 -363.038 -36.0886 -359.649 -16.9044C-357.612 -5.32924 -354.38 6.01088 -351.12 17.2922C-339.225 58.7571 -325.522 102.972 -291.752 129.618C-288.811 131.938 -285.74 134.088 -282.556 136.058Z" fill="url(#paint2_linear_16873_6220)"/>
</g>
</g>
<g filter="url(#filter2_d_16873_6220)">
<path d="M119.286 78.2054C119.286 86.396 116.866 94.4025 112.333 101.213C107.8 108.023 101.356 113.331 93.8175 116.465C86.2789 119.599 77.9835 120.42 69.9805 118.822C61.9776 117.224 54.6263 113.28 48.8565 107.488C43.0867 101.697 39.1574 94.3176 37.5655 86.2845C35.9736 78.2514 36.7906 69.9248 39.9132 62.3578C43.0358 54.7907 48.3238 48.323 55.1084 43.7726C61.893 39.2222 69.8695 36.7935 78.0293 36.7935C88.9708 36.795 99.4636 41.1586 107.2 48.9245C114.937 56.6904 119.284 67.2228 119.286 78.2054ZM64.5366 72.4943C65.7456 72.4954 66.9277 72.1366 67.9334 71.4633C68.9392 70.79 69.7234 69.8323 70.1868 68.7116C70.6503 67.5908 70.7721 66.3572 70.537 65.1669C70.3018 63.9766 69.7203 62.883 68.8658 62.0245C68.0114 61.1661 66.9225 60.5812 65.7369 60.3441C64.5513 60.1069 63.3222 60.228 62.2052 60.6922C61.0881 61.1563 60.1334 61.9425 59.4616 62.9514C58.7898 63.9603 58.4313 65.1465 58.4313 66.36C58.4343 67.9849 59.0784 69.5425 60.2225 70.6921C61.3667 71.8416 62.9178 72.4896 64.5366 72.4943ZM65.0342 93.9465L92.0547 66.8183C92.3418 66.5301 92.5695 66.188 92.7249 65.8114C92.8803 65.4349 92.9603 65.0313 92.9603 64.6237C92.9603 64.2162 92.8803 63.8126 92.7249 63.436C92.5695 63.0595 92.3418 62.7174 92.0547 62.4292C91.7676 62.141 91.4267 61.9124 91.0516 61.7564C90.6764 61.6004 90.2744 61.5201 89.8683 61.5201C89.4623 61.5201 89.0602 61.6004 88.6851 61.7564C88.31 61.9124 87.9691 62.141 87.682 62.4292L60.6615 89.5514C60.0853 90.1366 59.7621 90.9262 59.7621 91.7489C59.7621 92.5717 60.0853 93.3613 60.6615 93.9465C60.9485 94.2348 61.2894 94.4635 61.6645 94.6196C62.0397 94.7757 62.4418 94.856 62.8478 94.856C63.2539 94.856 63.656 94.7757 64.0312 94.6196C64.4063 94.4635 64.7472 94.2348 65.0342 93.9465ZM97.6274 90.0509C97.6285 88.8371 97.2709 87.6503 96.5999 86.6407C95.9288 85.631 94.9744 84.8438 93.8575 84.3788C92.7406 83.9138 91.5113 83.7918 90.3253 84.0283C89.1393 84.2648 88.0499 84.8492 87.1949 85.7074C86.3398 86.5657 85.7577 87.6592 85.5221 88.8497C85.2864 90.0402 85.408 91.274 85.8712 92.3952C86.3345 93.5163 87.1187 94.4743 88.1246 95.1479C89.1305 95.8215 90.3128 96.1804 91.522 96.1792C93.1403 96.1761 94.6914 95.5295 95.8357 94.3808C96.98 93.2322 97.6243 91.6753 97.6274 90.0509Z" fill="url(#paint3_linear_16873_6220)"/>
</g>
<mask id="mask1_16873_6220" style="mask-type:luminance" maskUnits="userSpaceOnUse" x="36" y="36" width="84" height="84">
<path d="M119.286 78.2054C119.286 86.396 116.866 94.4025 112.333 101.213C107.8 108.023 101.356 113.331 93.8175 116.465C86.2789 119.599 77.9835 120.42 69.9805 118.822C61.9776 117.224 54.6263 113.28 48.8565 107.488C43.0867 101.697 39.1574 94.3176 37.5655 86.2845C35.9736 78.2514 36.7906 69.9248 39.9132 62.3578C43.0358 54.7907 48.3238 48.323 55.1084 43.7726C61.893 39.2222 69.8695 36.7935 78.0293 36.7935C88.9708 36.795 99.4636 41.1586 107.2 48.9245C114.937 56.6904 119.284 67.2228 119.286 78.2054ZM64.5366 72.4943C65.7456 72.4954 66.9277 72.1366 67.9334 71.4633C68.9392 70.79 69.7234 69.8323 70.1868 68.7116C70.6503 67.5908 70.7721 66.3572 70.537 65.1669C70.3018 63.9766 69.7203 62.883 68.8658 62.0245C68.0114 61.1661 66.9225 60.5812 65.7369 60.3441C64.5513 60.1069 63.3222 60.228 62.2052 60.6922C61.0881 61.1563 60.1334 61.9425 59.4616 62.9514C58.7898 63.9603 58.4313 65.1465 58.4313 66.36C58.4343 67.9849 59.0784 69.5425 60.2225 70.6921C61.3667 71.8416 62.9178 72.4896 64.5366 72.4943ZM65.0342 93.9465L92.0547 66.8183C92.3418 66.5301 92.5695 66.188 92.7249 65.8114C92.8803 65.4349 92.9603 65.0313 92.9603 64.6237C92.9603 64.2162 92.8803 63.8126 92.7249 63.436C92.5695 63.0595 92.3418 62.7174 92.0547 62.4292C91.7676 62.141 91.4267 61.9124 91.0516 61.7564C90.6764 61.6004 90.2744 61.5201 89.8683 61.5201C89.4623 61.5201 89.0602 61.6004 88.6851 61.7564C88.31 61.9124 87.9691 62.141 87.682 62.4292L60.6615 89.5514C60.0853 90.1366 59.7621 90.9262 59.7621 91.7489C59.7621 92.5717 60.0853 93.3613 60.6615 93.9465C60.9485 94.2348 61.2894 94.4635 61.6645 94.6196C62.0397 94.7757 62.4418 94.856 62.8478 94.856C63.2539 94.856 63.656 94.7757 64.0312 94.6196C64.4063 94.4635 64.7472 94.2348 65.0342 93.9465ZM97.6274 90.0509C97.6285 88.8371 97.2709 87.6503 96.5999 86.6407C95.9288 85.631 94.9744 84.8438 93.8575 84.3788C92.7406 83.9138 91.5113 83.7918 90.3253 84.0283C89.1393 84.2648 88.0499 84.8492 87.1949 85.7074C86.3398 86.5657 85.7577 87.6592 85.5221 88.8497C85.2864 90.0402 85.408 91.274 85.8712 92.3952C86.3345 93.5163 87.1187 94.4743 88.1246 95.1479C89.1305 95.8215 90.3128 96.1804 91.522 96.1792C93.1403 96.1761 94.6914 95.5295 95.8357 94.3808C96.98 93.2322 97.6243 91.6753 97.6274 90.0509Z" fill="white"/>
</mask>
<g mask="url(#mask1_16873_6220)">
<g filter="url(#filter3_d_16873_6220)">
<path d="M269.774 70.0198C267.511 77.5751 264.861 85.0075 261.834 92.2872C258.042 101.541 251.442 111.958 241.725 111.435C237.093 111.182 233.012 108.334 229.6 105.102C217.917 93.9463 209.9 77.1589 194.627 70.7779C178.278 63.9496 159.104 66.1039 142.915 72.5761C126.185 79.2588 110.111 90.4552 92.2262 89.5468C73.159 88.5891 57.7537 74.1927 43.2393 61.5074C31.3694 51.1326 8.24431 28.4169 -9.10419 33.3298C-25.7235 38.0361 -42.861 56.6007 -52.4681 70.4529C-58.4751 79.1122 -63.4416 88.4711 -67.9288 98.0383C-71.0163 104.62 -77.3343 114.377 -78.5359 121.396C-78.5359 121.396 -56.0007 -10.3684 -56.0049 -10.3794C-56.0091 -10.3904 10.0973 0.592547 13.9027 1.23942L174.165 27.8776L240.449 38.85C248.148 40.1291 255.969 41.1174 263.605 42.6592C273.064 44.6046 274.903 47.7158 272.833 57.7009C272.004 61.8649 270.961 65.9591 269.774 70.0198Z" fill="url(#paint4_linear_16873_6220)"/>
</g>
</g>
</g>
<defs>
<filter id="filter0_d_16873_6220" x="-388.886" y="-122.697" width="912.082" height="443.672" filterUnits="userSpaceOnUse" color-interpolation-filters="sRGB">
<feFlood flood-opacity="0" result="BackgroundImageFix"/>
<feColorMatrix in="SourceAlpha" type="matrix" values="0 0 0 0 0 0 0 0 0 0 0 0 0 0 0 0 0 0 127 0" result="hardAlpha"/>
<feOffset dy="4"/>
<feGaussianBlur stdDeviation="10"/>
<feColorMatrix type="matrix" values="0 0 0 0 0 0 0 0 0 0 0 0 0 0 0 0 0 0 0.12 0"/>
<feBlend mode="normal" in2="BackgroundImageFix" result="effect1_dropShadow_16873_6220"/>
<feBlend mode="normal" in="SourceGraphic" in2="effect1_dropShadow_16873_6220" result="shape"/>
</filter>
<filter id="filter1_d_16873_6220" x="-384.948" y="-182.847" width="851.006" height="436.956" filterUnits="userSpaceOnUse" color-interpolation-filters="sRGB">
<feFlood flood-opacity="0" result="BackgroundImageFix"/>
<feColorMatrix in="SourceAlpha" type="matrix" values="0 0 0 0 0 0 0 0 0 0 0 0 0 0 0 0 0 0 127 0" result="hardAlpha"/>
<feOffset dx="-2" dy="4"/>
<feGaussianBlur stdDeviation="10"/>
<feColorMatrix type="matrix" values="0 0 0 0 0 0 0 0 0 0 0 0 0 0 0 0 0 0 0.12 0"/>
<feBlend mode="normal" in2="BackgroundImageFix" result="effect1_dropShadow_16873_6220"/>
<feBlend mode="normal" in="SourceGraphic" in2="effect1_dropShadow_16873_6220" result="shape"/>
</filter>
<filter id="filter2_d_16873_6220" x="21.7727" y="25.7935" width="114.513" height="114.824" filterUnits="userSpaceOnUse" color-interpolation-filters="sRGB">
<feFlood flood-opacity="0" result="BackgroundImageFix"/>
<feColorMatrix in="SourceAlpha" type="matrix" values="0 0 0 0 0 0 0 0 0 0 0 0 0 0 0 0 0 0 127 0" result="hardAlpha"/>
<feOffset dx="1" dy="5"/>
<feGaussianBlur stdDeviation="8"/>
<feColorMatrix type="matrix" values="0 0 0 0 0 0 0 0 0 0 0 0 0 0 0 0 0 0 0.4 0"/>
<feBlend mode="normal" in2="BackgroundImageFix" result="effect1_dropShadow_16873_6220"/>
<feBlend mode="normal" in="SourceGraphic" in2="effect1_dropShadow_16873_6220" result="shape"/>
</filter>
<filter id="filter3_d_16873_6220" x="-94.5359" y="-22.3794" width="384.133" height="163.775" filterUnits="userSpaceOnUse" color-interpolation-filters="sRGB">
<feFlood flood-opacity="0" result="BackgroundImageFix"/>
<feColorMatrix in="SourceAlpha" type="matrix" values="0 0 0 0 0 0 0 0 0 0 0 0 0 0 0 0 0 0 127 0" result="hardAlpha"/>
<feOffset dy="4"/>
<feGaussianBlur stdDeviation="8"/>
<feColorMatrix type="matrix" values="0 0 0 0 0 0 0 0 0 0 0 0 0 0 0 0 0 0 0.08 0"/>
<feBlend mode="normal" in2="BackgroundImageFix" result="effect1_dropShadow_16873_6220"/>
<feBlend mode="normal" in="SourceGraphic" in2="effect1_dropShadow_16873_6220" result="shape"/>
</filter>
<linearGradient id="paint0_linear_16873_6220" x1="98" y1="50.0005" x2="40.5" y2="151.001" gradientUnits="userSpaceOnUse">
<stop offset="0.535351" stop-color="#5562EF"/>
<stop offset="1" stop-color="#5F66F2"/>
</linearGradient>
<linearGradient id="paint1_linear_16873_6220" x1="102.5" y1="21.5002" x2="53.5933" y2="124.045" gradientUnits="userSpaceOnUse">
<stop offset="0.344797" stop-color="#3AA2EB"/>
<stop offset="1" stop-color="#5976ED"/>
</linearGradient>
<linearGradient id="paint2_linear_16873_6220" x1="76.5" y1="74" x2="125.944" y2="-0.53717" gradientUnits="userSpaceOnUse">
<stop stop-color="#41BFFF"/>
<stop offset="0.890569" stop-color="#2ED5F5"/>
</linearGradient>
<linearGradient id="paint3_linear_16873_6220" x1="90" y1="67.9998" x2="60.5" y2="117" gradientUnits="userSpaceOnUse">
<stop stop-color="#E0E7FF"/>
<stop offset="1" stop-color="white"/>
</linearGradient>
<linearGradient id="paint4_linear_16873_6220" x1="102.137" y1="84.4482" x2="118.133" y2="37.0633" gradientUnits="userSpaceOnUse">
<stop stop-color="#FCFDFF"/>
<stop offset="1" stop-color="white"/>
</linearGradient>
<clipPath id="clip0_16873_6220">
<rect width="156" height="156" fill="white"/>
</clipPath>
</defs>
</svg>
