<svg width="156" height="156" viewBox="0 0 156 156" fill="none" xmlns="http://www.w3.org/2000/svg">
<g clip-path="url(#clip0_16873_6291)">
<mask id="mask0_16873_6291" style="mask-type:luminance" maskUnits="userSpaceOnUse" x="0" y="-1" width="157" height="157">
<path d="M78.0059 155.941C121.084 155.941 156.006 121.019 156.006 77.9409C156.006 34.8627 121.084 -0.059082 78.0059 -0.059082C34.9276 -0.059082 0.00585938 34.8627 0.00585938 77.9409C0.00585938 121.019 34.9276 155.941 78.0059 155.941Z" fill="white"/>
</mask>
<g mask="url(#mask0_16873_6291)">
<path d="M-352.879 122.354C-333.314 144.436 -311.208 164.237 -284.026 174.945C-248.347 189.032 -201.849 182.626 -180.275 150.924C-173.857 141.47 -169.987 130.496 -163.398 121.184C-141.003 89.5287 -93.8305 86.4796 -57.4009 99.7573C-20.9714 113.035 9.60815 138.592 44.5191 155.462C66.3 165.981 91.3369 173.077 115.706 170.471C142.025 167.665 161.082 147.231 181.533 131.903C200.968 117.337 222.081 102.151 246.35 101.353C267.889 100.644 288.624 111.901 303.113 127.849C317.602 143.798 326.536 164.042 333.001 184.576C356.868 260.591 349.93 341.345 359.273 419.475C363.663 456.253 375.399 490.679 383.695 526.128C392.903 564.899 409.309 601.596 432.061 634.311C450.379 660.495 473.318 683.227 491.53 709.499C523.392 755.466 550.875 821.955 560.566 876.909C569.329 926.64 533.201 977.748 485.349 993.874C442.898 1008.18 406.953 989.554 364.68 995.93C340.18 999.617 316.402 1007.53 291.761 1010.08C261.53 1013.2 225.763 1006.15 195.81 1001.42C156.892 995.274 114.666 970.444 88.92 940.621C64.48 912.305 30.6563 892.35 -9.25366 898.076C-20.8768 899.754 -31.9268 904.067 -42.9355 908.168C-106.559 931.876 -253.66 951.464 -292.476 872.714C-319.428 818.019 -274.058 784.314 -245.304 747.76C-216.94 711.715 -234.786 645.97 -265.035 616.75C-308.395 574.872 -359.225 600.836 -391.164 642.218C-453.145 722.505 -461.861 840.202 -412.39 928.75C-396.234 957.663 -372.131 984.957 -339.814 992.19C-313.743 998.022 -286.892 989.938 -260.632 984.933C-154.204 964.624 -43.6328 995.126 63.6173 979.71C97.0036 974.911 130.018 965.664 163.747 966.119C202.008 966.656 233.338 979.609 267.51 993.891C300.826 1007.8 331.287 993.005 364.898 983.947C389.642 977.288 414.987 973.104 440.558 971.455C452.636 970.675 465.335 970.273 475.759 964.133C491.483 954.838 497.528 935.126 499.395 916.949C503.195 880.248 494.668 844.108 495.312 807.501C495.773 782.376 504.678 763.904 511.414 740.545C525.986 690.005 491.731 619.06 557.505 594.165C581.33 585.148 596.83 560.986 607.679 538.685C630.234 492.346 629.968 434.495 603.064 390.538C578.157 349.818 553.038 321.455 549.055 271.848L537.195 124.014C532.618 66.9835 528.04 9.95293 523.463 -47.0777L-411.935 -81.5454C-411.344 -81.5749 -403.425 14.5128 -401.936 23.3882C-396.931 53.2705 -389.811 77.0251 -370.559 101.17C-364.863 108.32 -358.995 115.446 -352.879 122.354Z" fill="url(#paint0_linear_16873_6291)"/>
<g filter="url(#filter0_d_16873_6291)">
<path d="M-310.086 84.0093C-297.883 95.3962 -281.172 103.675 -267.646 107.344C-239.33 115.026 -207.025 109.147 -184.033 90.7221C-163.351 74.1766 -150.31 49.9493 -127.093 36.1339C-77.5923 6.70069 -29.6459 16.3207 10.1281 55.498C49.2818 94.0666 104.278 147.638 160.325 106.08C176.936 93.7652 189.558 76.9834 202.505 60.8634C213.679 46.9593 225.343 29.0134 242.373 21.7452C262.836 13.0116 281.237 29.4566 293.782 44.5839C343.744 104.916 346.208 195.224 399.053 253.045C416.585 272.232 440.73 287.318 466.712 286.833C479.812 286.603 492.493 282.478 504.944 278.395C512.271 275.99 519.888 273.413 525.312 267.942C536.859 256.283 524.13 237.427 522.949 223.44C521.27 203.863 519.805 184.263 518.221 164.68C514.995 124.498 511.771 84.3166 508.548 44.1348C507.928 36.3998 500.352 -87.827 497.953 -87.9157L-348.82 -119.122C-353.405 -110.666 -345.345 -80.8779 -344.435 -70.8739C-343.141 -56.6448 -342.704 -42.3152 -338.756 -28.6239C-330.484 0.159332 -332.652 31.1052 -325.756 59.4216C-323.564 68.5866 -317.702 76.9066 -310.086 84.0093Z" fill="url(#paint1_linear_16873_6291)"/>
</g>
<g filter="url(#filter1_d_16873_6291)">
<path d="M-315.073 132.104C-301.068 140.743 -284.901 145.907 -268.474 146.108C-248.282 146.362 -227.849 138.805 -213.584 124.505C-205.713 116.616 -199.869 106.978 -194.084 97.4468C-181.202 76.1327 -169.372 46.3923 -151.964 28.6473C-137.641 14.0518 -115.257 1.69591 -95.2369 -2.24545C-54.7064 -10.2168 -23.081 4.72728 6.03903 29.9591C34.2254 54.3636 84.9254 92.8082 123.5 68.6164C134.467 61.7382 141.818 50.4696 148.413 39.325C155.007 28.1805 161.413 16.5514 171.251 8.15456C222.347 -35.3718 276.669 39.065 296.743 78.4727C311.941 108.331 322.672 140.223 336.416 170.773C345.085 190.025 355.757 209.631 373.644 220.846C380.64 225.231 389.214 228.191 397.144 225.887C411.414 221.75 415.888 204.094 417.968 189.375C422.606 156.526 423.829 130.284 420.81 97.8664C417.501 62.3173 411.119 27.1818 407.899 -8.36726C407.308 -14.5718 401.948 -103.941 399.135 -104.213L300.536 -113.555L76.3572 -134.828L-166.43 -157.838C-217.543 -162.683 -269.49 -170.773 -320.828 -172.469C-343.69 -173.225 -389.846 -166.146 -394.662 -137.77C-397.729 -119.706 -395.253 -98.6346 -395.726 -80.2277C-396.246 -60.6864 -396.317 -41.0209 -392.896 -21.7277C-390.839 -10.0868 -387.577 1.31773 -384.286 12.6632C-372.273 54.3636 -358.445 98.8296 -324.356 125.627C-321.386 127.96 -318.287 130.122 -315.073 132.104Z" fill="url(#paint2_linear_16873_6291)"/>
</g>
</g>
<g filter="url(#filter2_d_16873_6291)">
<path d="M50.0145 96.6435C46.1441 99.8935 43.8986 107.168 42.7641 112.119C42.6339 112.682 42.6491 113.269 42.8082 113.824C42.9672 114.379 43.265 114.885 43.6734 115.293C44.0818 115.702 44.5875 115.999 45.1427 116.159C45.698 116.318 46.2845 116.333 46.8473 116.203C51.7991 115.068 59.0732 112.823 62.3232 108.952C65.2364 105.507 65.195 100.213 61.9509 97.0158C60.3577 95.4921 58.2575 94.6112 56.0541 94.5424C53.8506 94.4737 51.6996 95.222 50.0145 96.6435Z" fill="url(#paint3_linear_16873_6291)"/>
<path d="M104.16 43.4379C90.7192 46.333 78.9372 54.3544 71.3168 65.7979C69.5441 65.4198 56.1777 62.737 49.9791 66.8675C46.54 69.1661 44.3359 74.2893 43.0891 78.2011C42.904 78.7863 42.8597 79.4068 42.9597 80.0124C43.0597 80.6179 43.3011 81.1913 43.6645 81.6859C44.0278 82.1805 44.5027 82.5824 45.0507 82.8589C45.5986 83.1354 46.204 83.2786 46.8177 83.277H62.2877C62.2877 83.277 59.9655 89.6529 63.765 93.6061C67.9014 97.7425 74.5905 95.5857 74.5905 95.5857V111.056C74.5888 111.668 74.7313 112.272 75.0064 112.819C75.2815 113.366 75.6815 113.84 76.174 114.204C76.6665 114.567 77.2376 114.81 77.8413 114.912C78.4449 115.014 79.0641 114.972 79.6486 114.79C83.5664 113.543 88.7014 111.333 91 107.894C95.0832 101.772 92.5186 88.6543 92.0873 86.6216C106.494 76.5761 112.285 64.0725 114.447 53.7434C114.75 52.3283 114.693 50.8602 114.284 49.4724C113.874 48.0846 113.124 46.8213 112.102 45.7972C111.079 44.7732 109.817 44.021 108.43 43.6089C107.043 43.1969 105.575 43.1381 104.16 43.4379ZM89.2627 75.9379C87.8112 75.9379 86.3923 75.5075 85.1854 74.7011C83.9785 73.8946 83.0378 72.7484 82.4823 71.4074C81.9268 70.0663 81.7815 68.5907 82.0647 67.1671C82.3478 65.7434 83.0468 64.4357 84.0732 63.4093C85.0996 62.3829 86.4073 61.684 87.831 61.4008C89.2546 61.1176 90.7302 61.2629 92.0713 61.8184C93.4123 62.3739 94.5585 63.3146 95.365 64.5215C96.1714 65.7284 96.6018 67.1473 96.6018 68.5988C96.6026 69.5631 96.4133 70.5181 96.0449 71.4092C95.6764 72.3003 95.1359 73.1101 94.4543 73.7922C93.7728 74.4743 92.9635 75.0154 92.0727 75.3846C91.1819 75.7538 90.227 75.9438 89.2627 75.9438V75.9379Z" fill="url(#paint4_linear_16873_6291)"/>
</g>
<mask id="mask1_16873_6291" style="mask-type:luminance" maskUnits="userSpaceOnUse" x="42" y="43" width="73" height="73">
<path d="M104 43.4791C90.5587 46.3757 78.7754 54.3965 71.1514 65.8391C69.3787 65.455 56.0123 62.7782 49.8137 66.9087C46.3805 69.2073 44.1764 74.3305 42.9237 78.2423C42.7392 78.8298 42.6962 79.4526 42.7983 80.0599C42.9004 80.6672 43.1446 81.2417 43.511 81.7366C43.8775 82.2315 44.3557 82.6328 44.9068 82.9077C45.4578 83.1825 46.0661 83.3232 46.6818 83.3182H62.1518C62.1518 83.3182 59.8296 89.6941 63.635 93.6414C67.7714 97.7777 74.4605 95.6268 74.4605 95.6268V111.091C74.4588 111.703 74.6013 112.307 74.8764 112.854C75.1515 113.401 75.5515 113.875 76.044 114.239C76.5365 114.603 77.1077 114.845 77.7113 114.947C78.3149 115.049 78.9341 115.007 79.5187 114.825C83.4364 113.573 88.5655 111.369 90.87 107.93C94.9532 101.802 92.3827 88.6896 91.9573 86.6568C106.364 76.6114 112.155 64.1018 114.311 53.7727C114.614 52.3559 114.558 50.8858 114.146 49.4966C113.735 48.1073 112.983 46.8432 111.957 45.8196C110.932 44.796 109.666 44.0456 108.276 43.6367C106.887 43.2279 105.416 43.1737 104 43.4791ZM89.1032 75.9791C87.6514 75.9791 86.2322 75.5485 85.0252 74.7418C83.8182 73.9351 82.8775 72.7886 82.3222 71.4472C81.7669 70.1058 81.6219 68.6299 81.9056 67.2061C82.1892 65.7823 82.8888 64.4746 83.9158 63.4484C84.9428 62.4223 86.251 61.7237 87.675 61.4412C89.0991 61.1587 90.5749 61.3049 91.9159 61.8613C93.2568 62.4177 94.4026 63.3593 95.2083 64.5669C96.014 65.7746 96.4435 67.1941 96.4423 68.6459C96.4439 70.5882 95.6742 72.4517 94.3025 73.8267C92.9307 75.2018 91.0691 75.976 89.1268 75.9791H89.1032Z" fill="white"/>
</mask>
<g mask="url(#mask1_16873_6291)">
<g filter="url(#filter3_d_16873_6291)">
<path d="M142.409 36.8017C136.211 31.8354 129.761 27.1907 123.086 22.8858C114.636 17.3844 103.214 12.5212 95.4318 18.5012C91.7209 21.3494 89.9305 26.0472 88.9318 30.6622C85.5814 46.5694 88.5005 65.0531 79.43 79.0517C69.7273 94.0372 52.5909 103.196 35.4014 107.073C17.6741 111.085 -2.11545 110.984 -16.4804 121.94C-31.7968 133.622 -36.3941 154.328 -41.2277 173.124C-45.175 188.488 -51.4504 220.504 -68.6932 226.306C-85.2091 231.89 -110.057 226.306 -125.976 220.303C-135.921 216.562 -145.399 211.64 -154.594 206.274C-160.922 202.587 -171.73 198.108 -176.765 192.979L-82.7568 289.297C-82.6918 289.368 -34.0482 242.503 -31.2177 239.785L86.9641 126.265L135.832 79.3176C141.505 73.8635 147.45 68.5867 152.915 62.9258C159.681 55.9117 159.415 52.2894 152.005 45.1985C148.939 42.2853 145.73 39.4844 142.409 36.8017Z" fill="url(#paint5_linear_16873_6291)"/>
</g>
<path d="M49.8728 96.6845C46.0082 99.9345 43.7568 107.209 42.6223 112.16C42.4953 112.721 42.512 113.304 42.6706 113.856C42.8292 114.408 43.1247 114.911 43.5296 115.318C43.9345 115.725 44.4358 116.024 44.9869 116.186C45.538 116.347 46.121 116.367 46.6818 116.244C51.6337 115.109 58.9078 112.858 62.1578 108.993C65.0709 105.542 65.0296 100.254 61.7914 97.0509C60.1966 95.5365 58.1002 94.6621 55.9019 94.5946C53.7037 94.527 51.5575 95.2709 49.8728 96.6845Z" fill="url(#paint6_linear_16873_6291)"/>
</g>
</g>
<defs>
<filter id="filter0_d_16873_6291" x="-382.221" y="-135.122" width="920.34" height="445.966" filterUnits="userSpaceOnUse" color-interpolation-filters="sRGB">
<feFlood flood-opacity="0" result="BackgroundImageFix"/>
<feColorMatrix in="SourceAlpha" type="matrix" values="0 0 0 0 0 0 0 0 0 0 0 0 0 0 0 0 0 0 127 0" result="hardAlpha"/>
<feOffset dx="-12" dy="4"/>
<feGaussianBlur stdDeviation="10"/>
<feColorMatrix type="matrix" values="0 0 0 0 0 0 0 0 0 0 0 0 0 0 0 0 0 0 0.12 0"/>
<feBlend mode="normal" in2="BackgroundImageFix" result="effect1_dropShadow_16873_6291"/>
<feBlend mode="normal" in="SourceGraphic" in2="effect1_dropShadow_16873_6291" result="shape"/>
</filter>
<filter id="filter1_d_16873_6291" x="-420.225" y="-188.522" width="858.687" height="439.211" filterUnits="userSpaceOnUse" color-interpolation-filters="sRGB">
<feFlood flood-opacity="0" result="BackgroundImageFix"/>
<feColorMatrix in="SourceAlpha" type="matrix" values="0 0 0 0 0 0 0 0 0 0 0 0 0 0 0 0 0 0 127 0" result="hardAlpha"/>
<feOffset dx="-4" dy="4"/>
<feGaussianBlur stdDeviation="10"/>
<feColorMatrix type="matrix" values="0 0 0 0 0 0 0 0 0 0 0 0 0 0 0 0 0 0 0.12 0"/>
<feBlend mode="normal" in2="BackgroundImageFix" result="effect1_dropShadow_16873_6291"/>
<feBlend mode="normal" in="SourceGraphic" in2="effect1_dropShadow_16873_6291" result="shape"/>
</filter>
<filter id="filter2_d_16873_6291" x="27.6765" y="32.2495" width="103.962" height="105.041" filterUnits="userSpaceOnUse" color-interpolation-filters="sRGB">
<feFlood flood-opacity="0" result="BackgroundImageFix"/>
<feColorMatrix in="SourceAlpha" type="matrix" values="0 0 0 0 0 0 0 0 0 0 0 0 0 0 0 0 0 0 127 0" result="hardAlpha"/>
<feOffset dx="1" dy="5"/>
<feGaussianBlur stdDeviation="8"/>
<feColorMatrix type="matrix" values="0 0 0 0 0 0 0 0 0 0 0 0 0 0 0 0 0 0 0.4 0"/>
<feBlend mode="normal" in2="BackgroundImageFix" result="effect1_dropShadow_16873_6291"/>
<feBlend mode="normal" in="SourceGraphic" in2="effect1_dropShadow_16873_6291" result="shape"/>
</filter>
<filter id="filter3_d_16873_6291" x="-197.985" y="2.88635" width="366.55" height="305.541" filterUnits="userSpaceOnUse" color-interpolation-filters="sRGB">
<feFlood flood-opacity="0" result="BackgroundImageFix"/>
<feColorMatrix in="SourceAlpha" type="matrix" values="0 0 0 0 0 0 0 0 0 0 0 0 0 0 0 0 0 0 127 0" result="hardAlpha"/>
<feOffset dx="-5.22" dy="3.13"/>
<feGaussianBlur stdDeviation="8"/>
<feColorMatrix type="matrix" values="0 0 0 0 0 0 0 0 0 0 0 0 0 0 0 0 0 0 0.08 0"/>
<feBlend mode="normal" in2="BackgroundImageFix" result="effect1_dropShadow_16873_6291"/>
<feBlend mode="normal" in="SourceGraphic" in2="effect1_dropShadow_16873_6291" result="shape"/>
</filter>
<linearGradient id="paint0_linear_16873_6291" x1="33.5" y1="145" x2="96" y2="58.5" gradientUnits="userSpaceOnUse">
<stop stop-color="#745CE6"/>
<stop offset="0.705168" stop-color="#906BF6"/>
</linearGradient>
<linearGradient id="paint1_linear_16873_6291" x1="62" y1="106" x2="134.5" y2="17.4997" gradientUnits="userSpaceOnUse">
<stop stop-color="#A37AF0"/>
<stop offset="0.632716" stop-color="#BB76E0"/>
</linearGradient>
<linearGradient id="paint2_linear_16873_6291" x1="68.5" y1="76.5" x2="127" y2="3.50003" gradientUnits="userSpaceOnUse">
<stop stop-color="#D07FDC"/>
<stop offset="0.9128" stop-color="#EDADD7"/>
</linearGradient>
<linearGradient id="paint3_linear_16873_6291" x1="78" y1="90.4094" x2="42.5455" y2="114.341" gradientUnits="userSpaceOnUse">
<stop stop-color="#EBE0FF"/>
<stop offset="1" stop-color="white"/>
</linearGradient>
<linearGradient id="paint4_linear_16873_6291" x1="99" y1="71.5002" x2="42.25" y2="80.3638" gradientUnits="userSpaceOnUse">
<stop stop-color="#EBE0FF"/>
<stop offset="1" stop-color="white"/>
</linearGradient>
<linearGradient id="paint5_linear_16873_6291" x1="-29.0963" y1="158.145" x2="103.232" y2="139.147" gradientUnits="userSpaceOnUse">
<stop stop-color="white"/>
<stop offset="1" stop-color="#FAFBFF"/>
</linearGradient>
<linearGradient id="paint6_linear_16873_6291" x1="62.27" y1="96.9977" x2="51.3205" y2="107.303" gradientUnits="userSpaceOnUse">
<stop stop-color="white"/>
<stop offset="1" stop-color="#FAFBFF"/>
</linearGradient>
<clipPath id="clip0_16873_6291">
<rect width="156" height="156" fill="white"/>
</clipPath>
</defs>
</svg>
