<svg width="156" height="156" viewBox="0 0 156 156" fill="none" xmlns="http://www.w3.org/2000/svg">
<g clip-path="url(#clip0_16873_6350)">
<mask id="mask0_16873_6350" style="mask-type:luminance" maskUnits="userSpaceOnUse" x="0" y="-1" width="157" height="157">
<path d="M78.0059 155.941C121.084 155.941 156.006 121.019 156.006 77.9409C156.006 34.8627 121.084 -0.059082 78.0059 -0.059082C34.9277 -0.059082 0.00592041 34.8627 0.00592041 77.9409C0.00592041 121.019 34.9277 155.941 78.0059 155.941Z" fill="white"/>
</mask>
<g mask="url(#mask0_16873_6350)">
<path d="M-422.015 144.808C-402.45 166.891 -380.345 186.692 -353.163 197.399C-317.484 211.486 -270.985 205.081 -249.411 173.379C-242.994 163.924 -239.123 152.951 -232.535 143.638C-210.139 111.983 -162.967 108.934 -126.537 122.212C-90.1077 135.49 -59.5282 161.046 -24.6173 177.917C-2.83635 188.435 22.2005 195.532 46.5696 192.926C72.8887 190.119 91.9455 169.686 112.397 154.357C131.832 139.791 152.945 124.605 177.214 123.807C198.752 123.098 219.487 134.355 233.976 150.304C248.466 166.252 257.4 186.497 263.865 207.031C287.731 283.046 280.794 363.799 290.136 441.929C294.527 478.707 306.262 513.134 314.559 548.582C323.766 587.353 340.173 624.05 362.925 656.766C381.243 682.949 404.182 705.681 422.394 731.953C454.256 777.92 481.739 844.409 491.43 899.364C500.193 949.095 464.065 1000.2 416.213 1016.33C373.762 1030.63 337.817 1012.01 295.543 1018.38C271.044 1022.07 247.266 1029.98 222.625 1032.53C192.394 1035.66 156.626 1028.6 126.673 1023.87C87.7559 1017.73 45.5296 992.899 19.7836 963.076C-4.65633 934.759 -38.48 914.804 -78.39 920.53C-90.0132 922.208 -101.063 926.522 -112.072 930.623C-175.695 954.33 -322.796 973.919 -361.613 895.168C-388.564 840.474 -343.194 806.768 -314.44 770.215C-286.077 734.169 -303.922 668.425 -334.171 639.204C-377.532 597.326 -428.362 623.291 -460.3 664.672C-522.281 744.959 -530.997 862.656 -481.526 951.204C-465.37 980.117 -441.267 1007.41 -408.95 1014.64C-382.88 1020.48 -356.029 1012.39 -329.769 1007.39C-223.364 987.084 -112.781 1017.59 -5.5309 1002.18C27.8555 997.384 60.8696 988.136 94.5987 988.591C132.86 989.129 164.19 1002.08 198.362 1016.36C231.678 1030.27 262.139 1015.48 295.75 1006.42C320.498 999.754 345.846 995.563 371.422 993.909C383.5 993.129 396.199 992.727 406.622 986.588C422.346 977.293 428.391 957.58 430.259 939.404C434.058 902.702 425.531 866.562 426.175 829.956C426.636 804.83 435.541 786.358 442.278 763C456.85 712.459 422.595 641.515 488.369 616.62C512.194 607.602 527.694 583.44 538.543 561.139C561.098 514.8 560.832 456.95 533.928 412.992C509.021 372.273 483.901 343.909 479.919 294.302L468.059 146.469C463.482 89.4421 458.904 32.4115 454.326 -24.6231L-481.071 -59.0908C-480.48 -59.0908 -472.562 36.9674 -471.073 45.8428C-466.068 75.7251 -458.947 99.4797 -439.695 123.624C-433.999 130.774 -428.131 137.901 -422.015 144.808Z" fill="url(#paint0_linear_16873_6350)"/>
<g filter="url(#filter0_d_16873_6350)">
<path d="M-395.767 96.4185C-383.565 107.805 -366.854 116.084 -353.328 119.754C-325.012 127.435 -292.707 121.556 -269.715 103.131C-249.033 86.5858 -235.991 62.3585 -212.775 48.5431C-163.274 19.1099 -115.328 28.7299 -75.5536 67.9072C-36.4 106.476 18.5959 160.048 74.6437 118.489C91.2542 106.174 103.876 89.3926 116.823 73.2726C127.997 59.3685 139.661 41.4226 156.691 34.1544C177.155 25.4208 195.555 41.8362 208.1 56.993C258.062 117.325 260.526 207.634 313.371 265.454C330.903 284.641 355.048 299.727 381.03 299.242C394.13 299.012 406.811 294.887 419.262 290.804C426.589 288.399 434.206 285.823 439.631 280.351C451.177 268.692 438.449 249.836 437.267 235.849C435.589 216.273 434.123 196.672 432.54 177.089C429.313 136.908 426.089 96.7258 422.866 56.544C422.246 48.809 414.67 -75.4179 412.271 -75.5065L-434.501 -106.712C-439.087 -98.2565 -431.027 -68.4688 -430.117 -58.4647C-428.823 -44.2356 -428.385 -29.906 -424.438 -16.2147C-416.165 12.5685 -418.334 43.5144 -411.438 71.8308C-409.246 80.9958 -403.384 89.3158 -395.767 96.4185Z" fill="url(#paint1_linear_16873_6350)"/>
</g>
<g filter="url(#filter1_d_16873_6350)">
<path d="M-384.209 154.558C-370.205 163.197 -354.037 168.362 -337.61 168.563C-317.419 168.817 -296.985 161.259 -282.72 146.959C-274.85 139.07 -269.005 129.433 -263.22 119.901C-250.339 98.5873 -238.509 68.8469 -221.1 51.1019C-206.777 36.5064 -184.393 24.1505 -164.373 20.2091C-123.843 12.2378 -92.2173 27.1819 -63.0973 52.4137C-34.9109 76.8182 15.7891 115.263 54.3636 91.071C65.3309 84.1928 72.6818 72.9241 79.2763 61.7796C85.8709 50.6351 92.2763 39.006 102.115 30.6091C153.211 -12.9172 207.533 61.5196 227.606 100.927C242.805 130.786 253.535 162.677 267.28 193.227C275.949 212.479 286.62 232.086 304.507 243.301C311.504 247.686 320.078 250.646 328.008 248.341C342.278 244.205 346.751 226.549 348.831 211.829C353.47 178.98 354.693 152.738 351.674 120.321C348.364 84.7719 341.983 49.6364 338.762 14.0873C338.171 7.88278 332.812 -81.4863 329.999 -81.7581L231.4 -91.1004L7.22089 -112.373L-235.566 -135.383C-286.68 -140.229 -338.626 -148.318 -389.965 -150.014C-412.827 -150.77 -458.983 -143.691 -463.799 -115.316C-466.865 -97.2518 -464.39 -76.18 -464.862 -57.7731C-465.382 -38.2318 -465.453 -18.5663 -462.032 0.726868C-459.975 12.3678 -456.714 23.7723 -453.422 35.1178C-441.409 76.8182 -427.582 121.284 -393.492 148.082C-390.523 150.414 -387.423 152.577 -384.209 154.558Z" fill="url(#paint2_linear_16873_6350)"/>
</g>
</g>
<g filter="url(#filter2_d_16873_6350)">
<path d="M89.0973 42.8881L54.3637 54.4404C30.9932 62.2522 30.9932 74.9981 54.3637 82.8041L64.6809 86.2313L68.1023 96.5486C75.8846 119.919 88.6659 119.919 96.4659 96.5486L108.054 61.8209C113.159 46.2031 104.685 37.6941 89.0973 42.8881ZM90.3264 63.6054L75.6955 78.3072C75.4289 78.577 75.1115 78.7912 74.7615 78.9374C74.4116 79.0836 74.0361 79.1588 73.6568 79.1588C73.2776 79.1588 72.9021 79.0836 72.5522 78.9374C72.2022 78.7912 71.8848 78.577 71.6182 78.3072C71.082 77.7642 70.7813 77.0318 70.7813 76.2686C70.7813 75.5054 71.082 74.773 71.6182 74.23L86.2727 59.5222C86.5408 59.2545 86.8591 59.0422 87.2092 58.8975C87.5594 58.7527 87.9346 58.6784 88.3135 58.6787C88.6924 58.6789 89.0675 58.7538 89.4174 58.8991C89.7673 59.0443 90.0853 59.2571 90.353 59.5252C90.6207 59.7933 90.833 60.1115 90.9777 60.4617C91.1225 60.8118 91.1968 61.187 91.1965 61.5659C91.1963 61.9448 91.1214 62.3199 90.9761 62.6699C90.8309 63.0198 90.6181 63.3377 90.35 63.6054H90.3264Z" fill="url(#paint3_linear_16873_6350)"/>
</g>
<mask id="mask1_16873_6350" style="mask-type:luminance" maskUnits="userSpaceOnUse" x="36" y="41" width="74" height="74">
<path d="M89.0973 42.8881L54.3637 54.4404C30.9932 62.2522 30.9932 74.9981 54.3637 82.8041L64.6809 86.2313L68.1023 96.5486C75.8846 119.919 88.6659 119.919 96.4659 96.5486L108.054 61.8209C113.159 46.2031 104.685 37.6941 89.0973 42.8881ZM90.3264 63.6054L75.6955 78.3072C75.4289 78.577 75.1115 78.7912 74.7615 78.9374C74.4116 79.0836 74.0361 79.1588 73.6568 79.1588C73.2776 79.1588 72.9021 79.0836 72.5522 78.9374C72.2022 78.7912 71.8848 78.577 71.6182 78.3072C71.082 77.7642 70.7813 77.0318 70.7813 76.2686C70.7813 75.5054 71.082 74.773 71.6182 74.23L86.2727 59.5222C86.5408 59.2545 86.8591 59.0422 87.2092 58.8975C87.5594 58.7527 87.9346 58.6784 88.3135 58.6787C88.6924 58.6789 89.0675 58.7538 89.4174 58.8991C89.7673 59.0443 90.0853 59.2571 90.353 59.5252C90.6207 59.7933 90.833 60.1115 90.9777 60.4617C91.1225 60.8118 91.1968 61.187 91.1965 61.5659C91.1963 61.9448 91.1214 62.3199 90.9761 62.6699C90.8309 63.0198 90.6181 63.3377 90.35 63.6054H90.3264Z" fill="white"/>
</mask>
<g mask="url(#mask1_16873_6350)">
<g filter="url(#filter3_d_16873_6350)">
<path d="M147.727 23.2109C141.529 18.2446 135.079 13.5999 128.405 9.29497C119.955 3.7936 108.532 -1.06958 100.75 4.91042C97.0391 7.7586 95.2487 12.4563 94.25 17.0713C90.8996 32.9786 93.8186 51.4622 84.7482 65.4609C75.0455 80.4463 57.9091 89.6054 40.7196 93.4818C22.9923 97.4941 3.20273 97.3936 -11.1623 108.349C-26.4786 120.031 -31.0759 140.737 -35.9095 159.534C-39.8568 174.897 -46.1323 206.913 -63.375 212.715C-79.8909 218.3 -104.739 212.715 -120.658 206.712C-130.603 202.971 -140.081 198.049 -149.275 192.684C-155.604 188.996 -166.412 184.517 -171.446 179.388L-77.4386 275.706C-77.3736 275.777 -28.73 228.912 -25.8995 226.194L92.2823 112.675L141.15 65.7268C146.823 60.2727 152.768 54.9959 158.234 49.335C165 42.3209 164.734 38.6986 157.324 31.6077C154.257 28.6945 151.048 25.8936 147.727 23.2109Z" fill="url(#paint4_linear_16873_6350)"/>
</g>
</g>
</g>
<defs>
<filter id="filter0_d_16873_6350" x="-451.902" y="-122.712" width="920.34" height="445.966" filterUnits="userSpaceOnUse" color-interpolation-filters="sRGB">
<feFlood flood-opacity="0" result="BackgroundImageFix"/>
<feColorMatrix in="SourceAlpha" type="matrix" values="0 0 0 0 0 0 0 0 0 0 0 0 0 0 0 0 0 0 127 0" result="hardAlpha"/>
<feOffset dx="4" dy="4"/>
<feGaussianBlur stdDeviation="10"/>
<feColorMatrix type="matrix" values="0 0 0 0 0 0 0 0 0 0 0 0 0 0 0 0 0 0 0.12 0"/>
<feBlend mode="normal" in2="BackgroundImageFix" result="effect1_dropShadow_16873_6350"/>
<feBlend mode="normal" in="SourceGraphic" in2="effect1_dropShadow_16873_6350" result="shape"/>
</filter>
<filter id="filter1_d_16873_6350" x="-477.362" y="-166.067" width="858.687" height="439.211" filterUnits="userSpaceOnUse" color-interpolation-filters="sRGB">
<feFlood flood-opacity="0" result="BackgroundImageFix"/>
<feColorMatrix in="SourceAlpha" type="matrix" values="0 0 0 0 0 0 0 0 0 0 0 0 0 0 0 0 0 0 127 0" result="hardAlpha"/>
<feOffset dx="8" dy="4"/>
<feGaussianBlur stdDeviation="10"/>
<feColorMatrix type="matrix" values="0 0 0 0 0 0 0 0 0 0 0 0 0 0 0 0 0 0 0.12 0"/>
<feBlend mode="normal" in2="BackgroundImageFix" result="effect1_dropShadow_16873_6350"/>
<feBlend mode="normal" in="SourceGraphic" in2="effect1_dropShadow_16873_6350" result="shape"/>
</filter>
<filter id="filter2_d_16873_6350" x="21.8358" y="30.3633" width="104.704" height="104.713" filterUnits="userSpaceOnUse" color-interpolation-filters="sRGB">
<feFlood flood-opacity="0" result="BackgroundImageFix"/>
<feColorMatrix in="SourceAlpha" type="matrix" values="0 0 0 0 0 0 0 0 0 0 0 0 0 0 0 0 0 0 127 0" result="hardAlpha"/>
<feOffset dx="1" dy="5"/>
<feGaussianBlur stdDeviation="8"/>
<feColorMatrix type="matrix" values="0 0 0 0 0 0 0 0 0 0 0 0 0 0 0 0 0 0 0.4 0"/>
<feBlend mode="normal" in2="BackgroundImageFix" result="effect1_dropShadow_16873_6350"/>
<feBlend mode="normal" in="SourceGraphic" in2="effect1_dropShadow_16873_6350" result="shape"/>
</filter>
<filter id="filter3_d_16873_6350" x="-192.666" y="-10.7045" width="366.55" height="305.541" filterUnits="userSpaceOnUse" color-interpolation-filters="sRGB">
<feFlood flood-opacity="0" result="BackgroundImageFix"/>
<feColorMatrix in="SourceAlpha" type="matrix" values="0 0 0 0 0 0 0 0 0 0 0 0 0 0 0 0 0 0 127 0" result="hardAlpha"/>
<feOffset dx="-5.22" dy="3.13"/>
<feGaussianBlur stdDeviation="8"/>
<feColorMatrix type="matrix" values="0 0 0 0 0 0 0 0 0 0 0 0 0 0 0 0 0 0 0.08 0"/>
<feBlend mode="normal" in2="BackgroundImageFix" result="effect1_dropShadow_16873_6350"/>
<feBlend mode="normal" in="SourceGraphic" in2="effect1_dropShadow_16873_6350" result="shape"/>
</filter>
<linearGradient id="paint0_linear_16873_6350" x1="85.5001" y1="82.5" x2="141" y2="130" gradientUnits="userSpaceOnUse">
<stop stop-color="#6185EC"/>
<stop offset="1" stop-color="#6B5DF8"/>
</linearGradient>
<linearGradient id="paint1_linear_16873_6350" x1="48.5001" y1="51.4997" x2="106" y2="108.5" gradientUnits="userSpaceOnUse">
<stop stop-color="#4BB5EE"/>
<stop offset="1" stop-color="#6485F1"/>
</linearGradient>
<linearGradient id="paint2_linear_16873_6350" x1="20.5" y1="21.5" x2="88" y2="78" gradientUnits="userSpaceOnUse">
<stop stop-color="#35EFE1"/>
<stop offset="1" stop-color="#45B8EC"/>
</linearGradient>
<linearGradient id="paint3_linear_16873_6350" x1="36.6364" y1="68.2499" x2="92.1818" y2="71.7954" gradientUnits="userSpaceOnUse">
<stop stop-color="white"/>
<stop offset="1" stop-color="#E0E7FE"/>
</linearGradient>
<linearGradient id="paint4_linear_16873_6350" x1="10.5359" y1="133.055" x2="38.0605" y2="150.44" gradientUnits="userSpaceOnUse">
<stop stop-color="white"/>
<stop offset="1" stop-color="#FAFCFF"/>
</linearGradient>
<clipPath id="clip0_16873_6350">
<rect width="156" height="156" fill="white"/>
</clipPath>
</defs>
</svg>
