<svg width="156" height="156" viewBox="0 0 156 156" fill="none" xmlns="http://www.w3.org/2000/svg">
<g clip-path="url(#clip0_16873_6003)">
<mask id="mask0_16873_6003" style="mask-type:luminance" maskUnits="userSpaceOnUse" x="0" y="-1" width="155" height="156">
<path d="M77.2481 154.426C119.908 154.426 154.49 119.843 154.49 77.1836C154.49 34.5239 119.908 -0.0585938 77.2481 -0.0585938C34.5884 -0.0585938 0.00585938 34.5239 0.00585938 77.1836C0.00585938 119.843 34.5884 154.426 77.2481 154.426Z" fill="white"/>
</mask>
<g mask="url(#mask0_16873_6003)">
<path d="M-221.902 167.317C-204.347 187.114 -184.55 204.868 -160.178 214.488C-128.193 227.11 -86.5113 221.381 -67.1364 192.948C-61.3842 184.492 -57.9141 174.632 -52.0098 166.287C-31.9619 137.913 10.3282 135.174 42.9865 147.082C75.6447 158.99 103.06 181.894 134.355 197.015C153.882 206.447 176.329 212.814 198.173 210.473C221.767 207.957 238.854 189.636 257.187 175.896C274.608 162.841 293.538 149.23 315.295 148.51C334.605 147.872 353.19 157.966 366.204 172.262C379.218 186.558 387.206 204.71 392.999 223.142C414.393 291.244 408.178 363.635 416.546 433.68C420.49 466.648 431.006 497.516 438.443 529.297C446.699 564.055 461.409 596.954 481.81 626.282C498.247 649.753 518.793 670.135 535.119 693.682C563.681 734.889 588.322 794.489 597.006 843.748C604.865 888.332 572.476 934.145 529.577 948.605C491.541 961.426 459.298 944.731 421.397 950.448C399.436 953.754 378.095 960.846 356.028 963.129C328.929 965.932 296.862 959.618 270.008 955.369C235.121 949.857 197.266 927.603 174.187 900.867C152.278 875.476 121.949 857.564 86.1718 862.743C75.7559 864.247 65.849 868.115 55.983 871.79C-1.05331 893.049 -132.927 910.604 -167.727 840.009C-191.888 790.978 -151.213 760.76 -125.437 727.99C-100.005 695.66 -116.004 636.704 -143.126 610.541C-181.999 572.997 -227.566 596.275 -256.198 633.363C-311.76 705.339 -319.578 810.856 -275.228 890.252C-260.745 916.175 -239.135 940.646 -210.163 947.124C-186.792 952.356 -162.718 945.111 -139.194 940.623C-43.7823 922.418 55.3452 949.763 151.488 935.942C181.42 931.635 211.017 923.349 241.253 923.776C275.556 924.256 303.644 935.871 334.295 948.657C364.138 961.127 391.472 947.867 421.602 939.745C443.787 933.764 466.512 930.003 489.441 928.516C500.266 927.814 511.677 927.474 520.999 921.956C535.095 913.623 540.514 895.945 542.199 879.654C545.611 846.756 537.939 814.355 538.542 781.539C538.952 759.016 546.939 742.45 552.978 721.513C566.045 676.203 535.329 612.601 594.285 590.283C615.644 582.202 629.541 560.539 639.267 540.543C659.485 498.997 659.251 447.139 635.13 407.71C612.794 371.213 590.277 345.776 586.707 301.327C583.161 257.146 579.617 212.968 576.075 168.792C571.975 117.664 567.879 66.5377 563.786 15.4135L-274.76 -15.4893C-274.21 -15.5185 -267.153 70.6241 -265.801 78.5824C-261.307 105.371 -254.929 126.672 -237.666 148.317C-232.651 154.73 -227.391 161.126 -221.902 167.317Z" fill="url(#paint0_linear_16873_6003)"/>
<g filter="url(#filter0_d_16873_6003)">
<path d="M-232.171 131.177C-220.088 142.453 -203.539 150.651 -190.145 154.285C-162.103 161.892 -130.112 156.041 -107.343 137.824C-86.8624 121.44 -73.9477 97.4479 -50.9565 83.7666C-1.93692 54.6194 45.5436 64.146 84.9313 102.943C123.705 141.137 178.166 194.188 233.669 153.033C250.118 140.838 262.618 124.219 275.439 108.256C286.504 94.4869 298.055 76.7153 314.92 69.5178C335.184 60.869 353.406 77.125 365.83 92.1345C415.306 151.88 417.746 241.311 470.077 298.57C487.439 317.571 511.349 332.51 537.079 332.03C550.052 331.802 562.61 327.717 574.939 323.674C582.196 321.292 589.738 318.741 595.11 313.322C606.544 301.777 593.94 283.104 592.77 269.253C591.108 249.867 589.656 230.457 588.088 211.064C584.893 171.273 581.7 131.481 578.509 91.6898C577.895 84.03 570.393 -38.99 568.017 -39.0777L-270.529 -69.9805C-275.07 -61.6067 -267.088 -32.1084 -266.187 -22.2015C-264.906 -8.11064 -264.473 6.0797 -260.564 19.638C-252.371 48.1416 -254.519 78.7868 -247.69 106.828C-245.519 115.904 -239.714 124.143 -232.171 131.177Z" fill="url(#paint1_linear_16873_6003)"/>
</g>
<g filter="url(#filter1_d_16873_6003)">
<path d="M-185.615 171.782C-171.747 180.337 -155.737 185.451 -139.469 185.65C-119.474 185.902 -99.2387 178.418 -85.1127 164.257C-77.3183 156.445 -71.531 146.9 -65.8022 137.462C-53.0455 116.355 -41.3304 86.9032 -24.0914 69.3306C-9.94788 54.8769 12.2417 42.6411 32.0672 38.738C72.2215 30.8441 103.54 45.643 132.377 70.6296C160.289 94.7971 210.497 132.868 248.697 108.911C259.557 102.1 266.837 90.9408 273.367 79.9046C279.898 68.8683 286.241 57.3522 295.984 49.0369C346.583 5.93344 400.378 79.6471 420.256 118.672C435.307 148.241 445.933 179.822 459.544 210.075C468.129 229.14 478.697 248.556 496.41 259.662C503.338 264.004 511.829 266.936 519.682 264.654C533.814 260.558 538.244 243.073 540.303 228.496C544.897 195.967 546.108 169.98 543.118 137.877C539.841 102.673 533.521 67.8794 530.332 32.6756C529.747 26.5314 524.439 -61.9695 521.654 -62.2386L424.013 -71.4902L202.012 -92.5562L-38.4163 -115.319C-89.0333 -120.118 -140.475 -128.129 -191.315 -129.808C-213.955 -130.557 -259.663 -123.547 -264.432 -95.4469C-267.469 -77.5584 -265.017 -56.6913 -265.485 -38.4633C-266 -19.1118 -266.07 0.362656 -262.682 19.4684C-260.646 30.9962 -257.416 42.29 -254.156 53.5252C-242.26 94.7971 -228.567 138.831 -194.808 165.368C-191.868 167.678 -188.798 169.82 -185.615 171.782Z" fill="url(#paint2_linear_16873_6003)"/>
</g>
</g>
<g filter="url(#filter2_d_16873_6003)">
<path d="M77.2422 35.9409C69.0857 35.9432 61.113 38.364 54.3322 42.8972C47.5514 47.4305 42.2671 53.8725 39.1473 61.4088C36.0275 68.9451 35.2125 77.2373 36.8051 85.2368C38.3978 93.2363 42.3267 100.584 48.0951 106.351C53.8634 112.117 61.2122 116.044 69.2122 117.635C77.2121 119.225 85.5041 118.408 93.0395 115.286C100.575 112.164 107.015 106.878 111.547 100.096C116.078 93.3135 118.497 85.3401 118.497 77.1836C118.497 71.7665 117.429 66.4025 115.356 61.398C113.283 56.3934 110.244 51.8464 106.413 48.0165C102.582 44.1866 98.0338 41.1489 93.0287 39.077C88.0235 37.005 82.6592 35.9394 77.2422 35.9409ZM53.7535 68.7103C53.9378 68.348 54.1744 68.0148 54.4558 67.7214L66.6273 55.5909C66.9143 55.3039 67.255 55.0762 67.63 54.9208C68.005 54.7655 68.407 54.6856 68.8129 54.6856C69.2188 54.6856 69.6207 54.7655 69.9957 54.9208C70.3707 55.0762 70.7114 55.3039 70.9985 55.5909C71.2855 55.8779 71.5131 56.2186 71.6685 56.5936C71.8238 56.9686 71.9038 57.3706 71.9038 57.7765C71.9038 58.1824 71.8238 58.5843 71.6685 58.9593C71.5131 59.3343 71.2855 59.6751 70.9985 59.9621L64.111 66.8261H97.8928C98.6897 66.8608 99.4425 67.2018 99.9942 67.7779C100.546 68.3541 100.854 69.121 100.854 69.9187C100.854 70.7164 100.546 71.4833 99.9942 72.0595C99.4425 72.6357 98.6897 72.9767 97.8928 73.0113H56.6443C56.242 73.0058 55.8445 72.9223 55.4739 72.7656C54.7132 72.441 54.1074 71.8351 53.7828 71.0744C53.6163 70.7053 53.5283 70.3056 53.5243 69.9007C53.5202 69.4958 53.6003 69.0944 53.7594 68.722L53.7535 68.7103ZM100.731 85.6217C100.574 85.9891 100.347 86.3229 100.064 86.6048L87.8981 98.7704C87.6124 99.0597 87.272 99.2894 86.8969 99.4461C86.5217 99.6029 86.1191 99.6836 85.7125 99.6836C85.3059 99.6836 84.9033 99.6029 84.5282 99.4461C84.153 99.2894 83.8127 99.0597 83.5269 98.7704C82.9512 98.1887 82.6283 97.4033 82.6283 96.5848C82.6283 95.7664 82.9512 94.981 83.5269 94.3992L90.4143 87.5118H56.6443C55.8473 87.4771 55.0946 87.1361 54.5429 86.56C53.9912 85.9838 53.6833 85.2169 53.6833 84.4192C53.6833 83.6215 53.9912 82.8546 54.5429 82.2784C55.0946 81.7022 55.8473 81.3612 56.6443 81.3266H97.8928C98.2951 81.3321 98.6926 81.4156 99.0631 81.5723C99.8224 81.8989 100.428 82.5041 100.754 83.2635C101.06 84.025 101.054 84.8765 100.737 85.6334L100.731 85.6217Z" fill="url(#paint3_linear_16873_6003)"/>
</g>
<mask id="mask1_16873_6003" style="mask-type:luminance" maskUnits="userSpaceOnUse" x="36" y="35" width="83" height="84">
<path d="M77.2422 35.9409C69.0857 35.9432 61.113 38.364 54.3322 42.8972C47.5514 47.4305 42.2671 53.8725 39.1473 61.4088C36.0275 68.9451 35.2125 77.2373 36.8051 85.2368C38.3978 93.2363 42.3267 100.584 48.0951 106.351C53.8634 112.117 61.2122 116.044 69.2122 117.635C77.2121 119.225 85.5041 118.408 93.0395 115.286C100.575 112.164 107.015 106.878 111.547 100.096C116.078 93.3135 118.497 85.3401 118.497 77.1836C118.497 71.7665 117.429 66.4025 115.356 61.398C113.283 56.3934 110.244 51.8464 106.413 48.0165C102.582 44.1866 98.0338 41.1489 93.0287 39.077C88.0235 37.005 82.6592 35.9394 77.2422 35.9409ZM53.7535 68.7103C53.9378 68.348 54.1744 68.0148 54.4558 67.7214L66.6273 55.5909C66.9143 55.3039 67.255 55.0762 67.63 54.9208C68.005 54.7655 68.407 54.6856 68.8129 54.6856C69.2188 54.6856 69.6207 54.7655 69.9957 54.9208C70.3707 55.0762 70.7114 55.3039 70.9985 55.5909C71.2855 55.8779 71.5131 56.2186 71.6685 56.5936C71.8238 56.9686 71.9038 57.3706 71.9038 57.7765C71.9038 58.1824 71.8238 58.5843 71.6685 58.9593C71.5131 59.3343 71.2855 59.6751 70.9985 59.9621L64.111 66.8261H97.8928C98.6897 66.8608 99.4425 67.2018 99.9942 67.7779C100.546 68.3541 100.854 69.121 100.854 69.9187C100.854 70.7164 100.546 71.4833 99.9942 72.0595C99.4425 72.6357 98.6897 72.9767 97.8928 73.0113H56.6443C56.242 73.0058 55.8445 72.9223 55.4739 72.7656C54.7132 72.441 54.1074 71.8351 53.7828 71.0744C53.6163 70.7053 53.5283 70.3056 53.5243 69.9007C53.5202 69.4958 53.6003 69.0944 53.7594 68.722L53.7535 68.7103ZM100.731 85.6217C100.574 85.9891 100.347 86.3229 100.064 86.6048L87.8981 98.7704C87.6124 99.0597 87.272 99.2894 86.8969 99.4461C86.5217 99.6029 86.1191 99.6836 85.7125 99.6836C85.3059 99.6836 84.9033 99.6029 84.5282 99.4461C84.153 99.2894 83.8127 99.0597 83.5269 98.7704C82.9512 98.1887 82.6283 97.4033 82.6283 96.5848C82.6283 95.7664 82.9512 94.981 83.5269 94.3992L90.4143 87.5118H56.6443C55.8473 87.4771 55.0946 87.1361 54.5429 86.56C53.9912 85.9838 53.6833 85.2169 53.6833 84.4192C53.6833 83.6215 53.9912 82.8546 54.5429 82.2784C55.0946 81.7022 55.8473 81.3612 56.6443 81.3266H97.8928C98.2951 81.3321 98.6926 81.4156 99.0631 81.5723C99.8224 81.8989 100.428 82.5041 100.754 83.2635C101.06 84.025 101.054 84.8765 100.737 85.6334L100.731 85.6217Z" fill="white"/>
</mask>
<g mask="url(#mask1_16873_6003)">
<g filter="url(#filter3_d_16873_6003)">
<path d="M255.57 6.41256C255.886 14.2734 255.8 22.1454 255.31 29.9973C254.702 39.9652 251.852 51.943 242.487 54.6261C238.035 55.9092 233.236 54.5743 228.996 52.6517C214.344 45.9766 201.324 32.7771 184.843 31.7889C167.185 30.6964 149.8 39.03 136.616 50.4383C122.988 62.2001 111.453 78.04 94.2639 83.0554C75.956 88.4186 56.7473 79.8916 38.9226 72.7004C24.3565 66.8153 -4.84841 52.9998 -19.6168 63.344C-33.7746 73.2252 -43.9232 96.3351 -48.5224 112.534C-51.381 122.661 -53.0286 133.11 -54.1608 143.59C-54.886 150.751 -57.6834 162.013 -56.5244 169.017L-78.0308 37.4938C-78.0626 37.4057 -12.1137 26.1463 -8.27364 25.5131L151.651 -1.95103L217.783 -13.3075C225.469 -14.6258 233.166 -16.259 240.893 -17.2933C250.455 -18.567 253.186 -16.2242 254.483 -6.14766C255.024 -1.9943 255.353 2.21051 255.57 6.41256Z" fill="url(#paint4_linear_16873_6003)"/>
</g>
</g>
</g>
<defs>
<filter id="filter0_d_16873_6003" x="-299.917" y="-81.9805" width="911.787" height="442.022" filterUnits="userSpaceOnUse" color-interpolation-filters="sRGB">
<feFlood flood-opacity="0" result="BackgroundImageFix"/>
<feColorMatrix in="SourceAlpha" type="matrix" values="0 0 0 0 0 0 0 0 0 0 0 0 0 0 0 0 0 0 127 0" result="hardAlpha"/>
<feOffset dx="-8" dy="8"/>
<feGaussianBlur stdDeviation="10"/>
<feColorMatrix type="matrix" values="0 0 0 0 0 0 0 0 0 0 0 0 0 0 0 0 0 0 0.12 0"/>
<feBlend mode="normal" in2="BackgroundImageFix" result="effect1_dropShadow_16873_6003"/>
<feBlend mode="normal" in="SourceGraphic" in2="effect1_dropShadow_16873_6003" result="shape"/>
</filter>
<filter id="filter1_d_16873_6003" x="-289.98" y="-145.861" width="850.733" height="435.31" filterUnits="userSpaceOnUse" color-interpolation-filters="sRGB">
<feFlood flood-opacity="0" result="BackgroundImageFix"/>
<feColorMatrix in="SourceAlpha" type="matrix" values="0 0 0 0 0 0 0 0 0 0 0 0 0 0 0 0 0 0 127 0" result="hardAlpha"/>
<feOffset dx="-4" dy="4"/>
<feGaussianBlur stdDeviation="10"/>
<feColorMatrix type="matrix" values="0 0 0 0 0 0 0 0 0 0 0 0 0 0 0 0 0 0 0.12 0"/>
<feBlend mode="normal" in2="BackgroundImageFix" result="effect1_dropShadow_16873_6003"/>
<feBlend mode="normal" in="SourceGraphic" in2="effect1_dropShadow_16873_6003" result="shape"/>
</filter>
<filter id="filter2_d_16873_6003" x="21.0112" y="24.9409" width="114.485" height="114.485" filterUnits="userSpaceOnUse" color-interpolation-filters="sRGB">
<feFlood flood-opacity="0" result="BackgroundImageFix"/>
<feColorMatrix in="SourceAlpha" type="matrix" values="0 0 0 0 0 0 0 0 0 0 0 0 0 0 0 0 0 0 127 0" result="hardAlpha"/>
<feOffset dx="1" dy="5"/>
<feGaussianBlur stdDeviation="8"/>
<feColorMatrix type="matrix" values="0 0 0 0 0 0 0 0 0 0 0 0 0 0 0 0 0 0 0.4 0"/>
<feBlend mode="normal" in2="BackgroundImageFix" result="effect1_dropShadow_16873_6003"/>
<feBlend mode="normal" in="SourceGraphic" in2="effect1_dropShadow_16873_6003" result="shape"/>
</filter>
<filter id="filter3_d_16873_6003" x="-92.0308" y="-29.6099" width="365.787" height="218.626" filterUnits="userSpaceOnUse" color-interpolation-filters="sRGB">
<feFlood flood-opacity="0" result="BackgroundImageFix"/>
<feColorMatrix in="SourceAlpha" type="matrix" values="0 0 0 0 0 0 0 0 0 0 0 0 0 0 0 0 0 0 127 0" result="hardAlpha"/>
<feOffset dx="2" dy="4"/>
<feGaussianBlur stdDeviation="8"/>
<feColorMatrix type="matrix" values="0 0 0 0 0 0 0 0 0 0 0 0 0 0 0 0 0 0 0.08 0"/>
<feBlend mode="normal" in2="BackgroundImageFix" result="effect1_dropShadow_16873_6003"/>
<feBlend mode="normal" in="SourceGraphic" in2="effect1_dropShadow_16873_6003" result="shape"/>
</filter>
<linearGradient id="paint0_linear_16873_6003" x1="36" y1="144.5" x2="94" y2="66.5003" gradientUnits="userSpaceOnUse">
<stop stop-color="#FA7BA6"/>
<stop offset="0.772448" stop-color="#FF9AA7"/>
</linearGradient>
<linearGradient id="paint1_linear_16873_6003" x1="64" y1="100.5" x2="123.5" y2="3.99976" gradientUnits="userSpaceOnUse">
<stop stop-color="#FE9292"/>
<stop offset="0.688587" stop-color="#F59178"/>
</linearGradient>
<linearGradient id="paint2_linear_16873_6003" x1="79" y1="56.9998" x2="118.5" y2="-6.50024" gradientUnits="userSpaceOnUse">
<stop stop-color="#FDB17F"/>
<stop offset="0.830592" stop-color="#FFC56E"/>
</linearGradient>
<linearGradient id="paint3_linear_16873_6003" x1="78.5" y1="57.5" x2="67" y2="119.5" gradientUnits="userSpaceOnUse">
<stop offset="0.17875" stop-color="#FFE3E0"/>
<stop offset="1" stop-color="white"/>
</linearGradient>
<linearGradient id="paint4_linear_16873_6003" x1="58.0274" y1="71.8113" x2="150.942" y2="-22.4914" gradientUnits="userSpaceOnUse">
<stop stop-color="#FCFDFF"/>
<stop offset="1" stop-color="white"/>
</linearGradient>
<clipPath id="clip0_16873_6003">
<rect width="156" height="156" fill="white"/>
</clipPath>
</defs>
</svg>
